<?xml version="1.0" encoding="UTF-8"?>
<svg version="1.1" xmlns="http://www.w3.org/2000/svg" width="512" height="512">
<path d="M0 0 C0.66966797 -0.02835938 1.33933594 -0.05671875 2.02929688 -0.0859375 C16.03674176 -0.13844901 30.87560826 10.49560445 43 16.625 C46.93211551 18.60971721 50.86562803 20.59162492 54.80078125 22.5703125 C55.79006622 23.06774963 56.7793512 23.56518677 57.7986145 24.07769775 C64.38562028 27.37780784 71.01116809 30.58559205 77.66796875 33.7421875 C86.87704961 38.11318905 96.01205592 42.62055936 105.125 47.1875 C105.7972077 47.52432674 106.4694154 47.86115349 107.16199303 48.2081871 C112.70340475 50.98587237 118.24217947 53.76880127 123.78088379 56.55187988 C138.5920624 63.9933494 153.39969522 71.4257016 168.37203979 78.53935242 C178.51011724 83.3561614 188.59718441 88.27352974 198.65576172 93.25415039 C200.78972634 94.30759944 202.92653424 95.35530537 205.06591797 96.39770508 C208.220017 97.93533429 211.36462927 99.49098371 214.5078125 101.05078125 C215.45979523 101.51027664 216.41177795 101.96977203 217.39260864 102.44319153 C223.68209033 105.5975079 228.36158231 108.52224692 230.6875 115.5 C231.41877952 122.35724405 230.89333127 126.96601149 226.6875 132.5 C222.12702333 136.43859349 218.50490621 137.09879957 212.6875 137.5 C212.84734375 137.99113281 213.0071875 138.48226562 213.171875 138.98828125 C214.94238314 147.61280198 215.19537534 159.70216651 210.6875 167.5 C207.4082497 172.07475659 203.89124188 176.12114657 198.6875 178.5 C198.0275 178.5 197.3675 178.5 196.6875 178.5 C195.04265492 198.89901061 194.05656201 219.29339999 193.5625 239.75 C193.54325895 240.51821422 193.5240179 241.28642843 193.50419378 242.07792187 C192.09453647 300.48329102 204.67243466 342.80128425 235.10693359 392.36035156 C237.77431367 396.74929192 240.41605846 401.15239547 243.03515625 405.5703125 C243.66520317 406.62709198 244.29525009 407.68387146 244.94438934 408.77267456 C258.670926 432.32724766 261.21878133 459.7637806 255.6875 486.5 C252.45512558 496.41498577 247.10628995 504.2536592 237.89140701 509.52804136 C229.30256099 513.60810727 220.36773706 513.05698996 211.08886719 513.00793457 C209.18995053 513.01254705 207.29103745 513.01890229 205.39213181 513.02684355 C200.18920978 513.04351227 194.98658195 513.03530158 189.78365898 513.02289867 C184.16666566 513.0138405 178.54972257 513.02782174 172.93273926 513.03881836 C161.93505126 513.05659992 150.9374725 513.05276517 139.93978024 513.0411678 C131.00130759 513.03213234 122.06286555 513.03090997 113.12438965 513.03526306 C111.85196561 513.03587599 110.57954156 513.03648893 109.26855922 513.03712043 C106.68361186 513.03839934 104.09866451 513.03969619 101.51371717 513.0410108 C77.96846074 513.05209046 54.42327747 513.04060263 30.87803334 513.01964041 C9.39391742 513.00065863 -12.09010366 513.00235717 -33.57421875 513.02148438 C-57.72388391 513.04291295 -81.87348164 513.05131691 -106.02315903 513.03903532 C-108.59856923 513.03776113 -111.17397943 513.03650365 -113.74938965 513.03526306 C-115.01652337 513.03464596 -116.2836571 513.03402886 -117.58918881 513.03339306 C-126.51638135 513.02994012 -135.44354022 513.0357673 -144.37072754 513.04518127 C-155.25076863 513.05640244 -166.13069429 513.05335862 -177.01072216 513.0320583 C-182.56132548 513.02154959 -188.11173638 513.01742319 -193.66233826 513.03065491 C-198.74509212 513.04258806 -203.82747549 513.03600073 -208.91019583 513.0147447 C-210.74720567 513.01028259 -212.58424692 513.01253608 -214.42123652 513.02224785 C-227.08170173 513.08403806 -237.08748571 512.29624854 -246.6328125 503.2109375 C-259.42985803 490.1758074 -258.36057942 471.39812911 -258.47862244 454.26242065 C-258.17022352 435.40453457 -253.24355356 421.64457188 -243.66015625 405.5703125 C-243.0234626 404.49633209 -242.38676895 403.42235168 -241.73078156 402.31582642 C-239.06954277 397.85685411 -236.38026412 393.41608297 -233.66286469 388.99111176 C-203.54555723 339.89640465 -192.74538891 297.32742673 -194.1875 239.75 C-194.20613177 238.97855306 -194.22476354 238.20710611 -194.2439599 237.41228199 C-194.73023574 217.73757203 -195.73056453 198.1188194 -197.3125 178.5 C-198.09874756 178.19529785 -198.88499512 177.8905957 -199.69506836 177.57666016 C-205.99209639 174.98642663 -209.77739582 170.51079079 -212.5859375 164.4296875 C-214.39146486 159.63436215 -214.46338831 155.0827391 -214.4375 150 C-214.44136719 149.24074219 -214.44523437 148.48148438 -214.44921875 147.69921875 C-214.44296768 144.12985544 -214.27590936 140.93268398 -213.3125 137.5 C-214.4675 137.479375 -215.6225 137.45875 -216.8125 137.4375 C-222.36586202 136.75568153 -225.68197606 133.55611167 -229.3125 129.5 C-231.78656207 125.47964914 -231.96133151 121.11865588 -231.3125 116.5 C-229.99875788 111.49839607 -227.75834827 108.44583891 -223.3046875 105.82421875 C-216.24660631 101.76112467 -208.88653493 98.29074703 -201.55352783 94.75869751 C-185.53641423 87.03831964 -169.59543837 79.16879615 -153.6953125 71.2109375 C-152.88526009 70.80554056 -152.07520767 70.40014362 -151.24060822 69.98246193 C-143.06743324 65.89124993 -134.89702365 61.79454059 -126.72862053 57.69381046 C-122.87447448 55.75930673 -119.01956177 53.82633649 -115.1640625 51.89453125 C-114.41656612 51.51998495 -113.66906975 51.14543865 -112.89892197 50.75954247 C-103.23475766 45.92077697 -93.53387673 41.1758244 -83.76477051 36.55171204 C-76.01989026 32.87217864 -68.35310884 29.04378726 -60.6953125 25.1875 C-60.07055149 24.87315695 -59.44579048 24.5588139 -58.80209732 24.2349453 C-53.03466483 21.33297374 -47.26912476 18.42727758 -41.50830078 15.51220703 C-38.3072733 13.89276693 -35.10327501 12.27933845 -31.89736557 10.66958618 C-30.12442061 9.77723351 -28.35477175 8.87834144 -26.5852356 7.97924805 C-17.82466209 3.58503242 -9.90504114 -0.0374836 0 0 Z M-112.3125 137.5 C-111.9825 139.81 -111.6525 142.12 -111.3125 144.5 C-110.69698413 154.66316909 -111.76518719 162.66454327 -117.19140625 171.359375 C-119.3125 173.5 -119.3125 173.5 -128.3125 178.5 C-128.3125 221.07 -128.3125 263.64 -128.3125 307.5 C-115.7725 307.5 -103.2325 307.5 -90.3125 307.5 C-91.80850363 303.01198911 -93.42264154 298.78503221 -95.25 294.4375 C-105.76979364 268.71996871 -104.55950305 240.61579975 -94.3203125 215.08203125 C-89.06539162 202.71096381 -81.69955572 193.00258871 -72.3125 183.5 C-71.74273437 182.85804688 -71.17296875 182.21609375 -70.5859375 181.5546875 C-54.70089198 164.04040654 -28.86681174 155.43271536 -5.86328125 154.125 C21.06850681 153.21318492 46.58566078 161.04973938 66.9375 179 C68.5271483 180.49330598 70.11086461 181.99296142 71.6875 183.5 C72.71810547 184.41845703 72.71810547 184.41845703 73.76953125 185.35546875 C91.59558749 201.84544977 100.84716991 228.0062911 101.90625 251.77734375 C102.44709083 270.63507032 98.54119302 288.77635764 89.6875 305.5 C89.6875 306.16 89.6875 306.82 89.6875 307.5 C102.2275 307.5 114.7675 307.5 127.6875 307.5 C127.91332554 290.78404591 128.09749128 274.06939518 128.20562172 257.35233879 C128.25716539 249.59013094 128.3274196 241.82893869 128.44189453 234.06738281 C128.54163652 227.30150904 128.60609713 220.53637071 128.62838495 213.76978219 C128.64141282 210.18714664 128.6719689 206.60661473 128.74480057 203.02465439 C128.82550132 199.02314167 128.82739573 195.02527306 128.82275391 191.02294922 C128.85870667 189.8382756 128.89465942 188.65360199 128.93170166 187.43302917 C128.89056237 184.16001432 128.77062831 181.59135264 127.6875 178.5 C125.29311696 176.35560755 123.05167199 175.07136488 120.12805748 173.75065804 C114.95103543 171.09770506 113.23600426 166.04103578 111.375 160.8125 C109.76286068 153.13202494 110.41057685 145.16153892 111.6875 137.5 C37.7675 137.5 -36.1525 137.5 -112.3125 137.5 Z " fill="#000100" transform="translate(256.3125,-0.49999999999999994)"/>
<path d="M0 0 C13.77799652 -0.23208393 27.55552528 -0.40957736 41.3350811 -0.51812172 C47.73418272 -0.57022858 54.13194349 -0.6408601 60.53027344 -0.75439453 C66.70956647 -0.86335139 72.88757308 -0.92290507 79.06775284 -0.94877243 C81.42095307 -0.96719666 83.77408581 -1.00317725 86.12673569 -1.05730057 C105.56846021 -1.48662129 105.56846021 -1.48662129 110.56256104 2.16534424 C113.03920703 4.64630188 114.96605903 7.1577551 117 10 C120.16600172 12.62074609 123.51670347 14.82293967 127 17 C128.0725 17.6703125 129.145 18.340625 130.25 19.03125 C146.62347295 28.96038686 164.15196288 33.60226646 183.3125 33.4375 C184.5806958 33.42847656 185.8488916 33.41945313 187.15551758 33.41015625 C214.15589415 32.91331206 236.67163837 21.58209284 256 3 C256.44551114 2.47231868 256.89102228 1.94463736 257.35003376 1.40096569 C259.48922967 -0.41539879 260.64128792 -0.37054647 263.42289734 -0.36076355 C264.32733582 -0.36488754 265.23177429 -0.36901154 266.16362 -0.3732605 C267.15336319 -0.36247467 268.14310638 -0.35168884 269.1628418 -0.34057617 C270.20691193 -0.34101425 271.25098206 -0.34145233 272.32669067 -0.34190369 C275.78438898 -0.33981043 279.24160494 -0.31645355 282.69921875 -0.29296875 C285.09389481 -0.28737472 287.48857429 -0.28310371 289.883255 -0.28010559 C296.19130911 -0.26864169 302.49915655 -0.23916101 308.80712891 -0.20599365 C315.24183354 -0.17532618 321.6765715 -0.16160735 328.11132812 -0.14648438 C340.74097367 -0.11429297 353.37047585 -0.06365307 366 0 C372.5264781 12.98291691 379.04602801 25.96929207 385.55757141 38.95970631 C388.58102469 44.99113513 391.60672027 51.02141937 394.63769531 57.04907227 C397.56087935 62.86237852 400.47781512 68.67879368 403.39089966 74.49716759 C404.50521787 76.72024641 405.62165331 78.94226523 406.74020386 81.16321754 C408.30241595 84.26597286 409.85716468 87.37235815 411.41015625 90.47973633 C411.87769318 91.40402435 412.3452301 92.32831238 412.82693481 93.28060913 C413.24764252 94.12614853 413.66835022 94.97168793 414.10180664 95.84284973 C414.47052383 96.57751874 414.83924103 97.31218775 415.21913147 98.06911945 C416 100 416 100 416 103 C369.47 103 322.94 103 275 103 C273.02 90.79 271.04 78.58 269 66 C265.36364248 58.72728495 263.28750879 55.00837543 256 52 C253.17602395 51.69419548 253.17602395 51.69419548 250.03009033 51.73257446 C248.19648453 51.71977951 248.19648453 51.71977951 246.32583618 51.70672607 C244.97405993 51.70742508 243.62228378 51.70834814 242.27050781 51.70947266 C240.84448901 51.7034871 239.41847346 51.69668149 237.99246216 51.68911743 C234.1203672 51.67144979 230.24836065 51.66676165 226.37622929 51.66548586 C223.95528559 51.66406377 221.53436433 51.65979301 219.11342621 51.65449142 C210.66219152 51.63598639 202.21101991 51.62782113 193.75976562 51.62939453 C185.89127488 51.63059504 178.02305884 51.60951181 170.15463758 51.5779072 C163.39269133 51.55171827 156.63083462 51.54102838 149.86883807 51.54230535 C145.83318855 51.54281435 141.797783 51.53716592 137.76218414 51.51594925 C133.96340288 51.49652335 130.16509713 51.49647169 126.36629868 51.51098251 C124.976399 51.51306658 123.58646923 51.50839371 122.19662094 51.4962616 C114.37957119 51.4324766 108.62246253 51.64018014 102 56 C92.54916911 67.09245248 92.92393254 90.97542165 91 103 C44.47 103 -2.06 103 -50 103 C-49.23634567 99.18172834 -48.68170647 96.98989601 -47.01951599 93.67826843 C-46.39901367 92.4310778 -46.39901367 92.4310778 -45.76597595 91.15869141 C-45.31138504 90.26029541 -44.85679413 89.36189941 -44.38842773 88.4362793 C-43.91035675 87.47969925 -43.43228577 86.5231192 -42.93972778 85.53755188 C-41.36002256 82.38022941 -39.77186181 79.22724123 -38.18359375 76.07421875 C-37.08590784 73.88444281 -35.98875193 71.69440112 -34.8921051 69.50410461 C-32.00562913 63.74260194 -29.11196362 57.98473945 -26.21679688 52.2276001 C-23.26323571 46.35117648 -20.31647337 40.47134611 -17.36914062 34.59179688 C-11.58608431 23.05784993 -5.7956587 11.52761911 0 0 Z " fill="#9D9D9D" transform="translate(73,324)"/>
<path d="M0 0 C16.66363281 14.58381097 28.46802553 33.44819598 30.41015625 55.8359375 C31.91451646 80.2198736 27.06610842 102.671534 10.625 121.4453125 C9.52865234 122.62867188 9.52865234 122.62867188 8.41015625 123.8359375 C7.75144531 124.56296875 7.09273437 125.29 6.4140625 126.0390625 C-6.18283419 139.32029764 -25.53854979 149.76940634 -44.01489258 150.99707031 C-72.45003304 151.4686588 -95.17381718 145.87167871 -116.02734375 125.8359375 C-133.33686151 107.62134692 -140.48679714 85.83014632 -139.86328125 61.11328125 C-138.87127464 38.4795437 -129.74151131 19.55303104 -113.58984375 3.8359375 C-112.92339844 3.17207031 -112.25695312 2.50820312 -111.5703125 1.82421875 C-80.95738816 -26.85525773 -31.59243287 -26.39850349 0 0 Z " fill="#A2C200" transform="translate(310.58984375,190.1640625)"/>
<path d="M0 0 C1.0873494 0.51711044 2.17469879 1.03422089 3.29499817 1.56700134 C7.40543602 3.53172945 11.49035476 5.54714561 15.57421875 7.56640625 C16.42570244 7.98697548 17.27718613 8.40754471 18.15447235 8.84085846 C32.92498429 16.14248163 47.65266822 23.52927083 62.37506104 30.92730713 C71.30979142 35.41649106 80.24733523 39.90005948 89.18624306 44.3809185 C92.25474634 45.92015911 95.32181631 47.46222458 98.38871765 49.00465393 C109.06697295 54.36653727 119.79065789 59.61622956 130.58000946 64.75104523 C137.92500563 68.24754132 145.22319297 71.82419857 152.4921875 75.4765625 C153.64874344 76.05554794 154.80529938 76.63453339 155.99690247 77.23106384 C158.98307653 78.72600411 161.96804231 80.2233432 164.95269775 81.72131348 C168.01782765 83.2591009 171.08416682 84.79447337 174.15039062 86.33007812 C179.50049459 89.00983627 184.84960091 91.69157798 190.19792175 94.37489319 C192.32260223 95.44024173 194.44808354 96.50396453 196.57421875 97.56640625 C196.57421875 97.89640625 196.57421875 98.22640625 196.57421875 98.56640625 C57.31421875 98.56640625 -81.94578125 98.56640625 -225.42578125 98.56640625 C-222.52578707 95.66641207 -220.43873149 94.39207558 -216.81640625 92.59765625 C-215.6665625 92.0253125 -214.51671875 91.45296875 -213.33203125 90.86328125 C-212.11329004 90.26430503 -210.89454008 89.66534662 -209.67578125 89.06640625 C-208.5465625 88.504375 -207.41734375 87.94234375 -206.25390625 87.36328125 C-199.72297703 84.12646107 -193.16156461 80.95963991 -186.57830811 77.83068848 C-172.09333227 70.94222133 -157.75484765 63.77219582 -143.42578125 56.56640625 C-116.76897662 43.16125343 -116.76897662 43.16125343 -104.01953125 37.11328125 C-95.30045078 32.9766492 -86.6466654 28.71869763 -78.01953125 24.39453125 C-77.40291626 24.08550369 -76.78630127 23.77647614 -76.15100098 23.45808411 C-71.74114381 21.24707668 -67.33326927 19.03213173 -62.92578125 16.81640625 C-54.43186674 12.54654636 -45.93371904 8.28601646 -37.41845703 4.05883789 C-34.81317596 2.75959795 -32.21800999 1.44261517 -29.625 0.11914062 C-28.31957725 -0.52978736 -27.01365118 -1.17770469 -25.70703125 -1.82421875 C-24.67642578 -2.34532227 -23.64582031 -2.86642578 -22.58398438 -3.40332031 C-14.05187906 -6.18667563 -7.78573626 -3.81452016 0 0 Z " fill="#5F7C8A" transform="translate(270.42578125,21.43359375)"/>
<path d="M0 0 C19.38423961 -0.35088915 38.76783234 -0.61514561 58.15459251 -0.77718258 C67.15704065 -0.85443122 76.15751233 -0.9596746 85.15869141 -1.1315918 C93.0071985 -1.28142177 100.85427428 -1.37794456 108.70417178 -1.41132742 C112.85902157 -1.43083605 117.00977822 -1.47642697 121.163311 -1.58595085 C146.47149664 -2.22804696 146.47149664 -2.22804696 152.31739044 1.4632988 C155.7890391 4.90877155 157.55684886 8.68669177 159.22560501 13.22038078 C161.35030198 18.10309776 165.92116073 21.08291871 170.60235596 23.25083923 C175.58495154 24.80768631 180.72430187 24.5526961 185.8984375 24.51757812 C187.17422668 24.5245874 188.45001587 24.53159668 189.76446533 24.53881836 C193.24391326 24.55695948 196.72288355 24.5500229 200.20233917 24.53730202 C203.85544558 24.52712617 207.50851296 24.53658036 211.16162109 24.54284668 C217.29467051 24.55010983 223.42752682 24.5405706 229.56054688 24.52148438 C236.63618382 24.49971801 243.71135962 24.50677034 250.7869854 24.52879 C256.87813176 24.54698221 262.96913986 24.54948374 269.06030464 24.53903532 C272.69121985 24.53282128 276.32191879 24.53190671 279.95281982 24.54518127 C284.00267541 24.55895514 288.05174462 24.53982812 292.1015625 24.51757812 C293.89101288 24.52972351 293.89101288 24.52972351 295.71661377 24.54211426 C302.66200804 24.47154507 307.03478352 23.58149875 313 20 C313.99 19.67 314.98 19.34 316 19 C317.53206722 16.57143878 318.29161692 14.11645397 319.19491577 11.37962341 C321.16749947 6.53854848 323.49908072 2.81465491 328 0 C337.99731658 -2.71942045 349.02713593 -1.79187978 359.30330324 -1.52090907 C363.48027376 -1.42669915 367.65742765 -1.41829496 371.83529663 -1.40052795 C379.73423027 -1.35402931 387.63002451 -1.23112424 395.52757967 -1.08028561 C404.52356747 -0.91222305 413.51971078 -0.83005354 422.51687932 -0.75485408 C441.01302842 -0.59834881 459.50626127 -0.3347695 478 0 C478.07449853 5.1411629 478.12876593 10.28200729 478.16479492 15.42358398 C478.17982429 17.1703845 478.20025354 18.91714765 478.22631836 20.66381836 C478.2629608 23.18352515 478.27978492 25.70273039 478.29296875 28.22265625 C478.30845261 28.99585709 478.32393646 29.76905792 478.33988953 30.56568909 C478.34170604 36.49990725 477.30117259 41.31974794 473.31640625 45.9609375 C472.44822266 46.66089844 472.44822266 46.66089844 471.5625 47.375 C470.98628906 47.85710937 470.41007812 48.33921875 469.81640625 48.8359375 C465.70335872 51.47182602 461.20226842 51.14407821 456.46551704 51.13422108 C455.31657299 51.13774942 455.31657299 51.13774942 454.14441794 51.14134905 C451.56282739 51.14803687 448.98128721 51.14758089 446.39968872 51.14717102 C444.53610211 51.15046976 442.67251621 51.15419535 440.80893123 51.1583125 C435.67603987 51.16833908 430.54316021 51.17205034 425.41026044 51.17470181 C419.87914358 51.17860278 414.34803599 51.1881811 408.81692505 51.19691467 C395.45545486 51.2166825 382.09398391 51.22674462 368.73250276 51.23564246 C362.44428636 51.24002388 356.1560708 51.24539098 349.86785507 51.25063133 C328.97253924 51.26764212 308.07722357 51.28216284 287.18190193 51.28938007 C285.83067927 51.28985483 284.47945662 51.29033072 283.12823396 51.29080774 C282.45814668 51.29104411 281.7880594 51.29128049 281.09766644 51.29152403 C277.70264351 51.29272523 274.30762058 51.29394068 270.91259766 51.29516602 C269.90196846 51.29552624 269.90196846 51.29552624 268.87092251 51.29589374 C247.01674956 51.30379007 225.16263081 51.3272299 203.30848154 51.35972196 C180.20723731 51.39400553 157.10601847 51.41372859 134.00474536 51.41702431 C121.41002125 51.41919245 108.81537686 51.42798569 96.22067642 51.45348549 C85.49849433 51.47514376 74.77641133 51.48326689 64.05420984 51.47351871 C58.5810911 51.46896017 53.10817701 51.47095031 47.63508606 51.49028015 C42.62756994 51.50781348 37.62040925 51.50699448 32.61288987 51.49138286 C30.79864391 51.4889918 28.98437397 51.49340727 27.17016484 51.50521151 C24.70839613 51.52024064 22.24790156 51.5107212 19.78616524 51.49498463 C19.07790657 51.50520683 18.3696479 51.51542904 17.63992685 51.52596101 C11.89614809 51.44554541 8.40636432 49.33777436 4.35546875 45.40234375 C0.0680272 40.02511773 -0.1398313 36.06012356 -0.09765625 29.39453125 C-0.0962413 28.55532639 -0.09482635 27.71612152 -0.09336853 26.85148621 C-0.08777215 24.17178784 -0.07522035 21.4921731 -0.0625 18.8125 C-0.05748453 16.99544392 -0.05292171 15.17838652 -0.04882812 13.36132812 C-0.03780391 8.90751987 -0.02054178 4.45377411 0 0 Z " fill="#5F7C8A" transform="translate(17,444)"/>
<path d="M0 0 C1.01673766 0.00092179 2.03347532 0.00184359 3.08102322 0.00279331 C4.8248151 0.00073132 4.8248151 0.00073132 6.60383511 -0.00137234 C7.89064175 0.00222294 9.17744839 0.00581821 10.50324917 0.00952244 C11.86298527 0.00980431 13.22272153 0.00964658 14.58245754 0.00907993 C18.28477281 0.00879196 21.98705595 0.01468871 25.68936372 0.02165389 C29.55444283 0.0278874 33.41952261 0.02849123 37.28460598 0.0296793 C44.60860185 0.03279262 51.93258287 0.04100602 59.25657219 0.05102879 C67.5925895 0.06218989 75.92860751 0.06770037 84.26463044 0.07272422 C101.4170139 0.08318864 118.5693829 0.1007881 135.72175503 0.12304783 C137.32616559 3.98468681 138.27621667 7.54239614 138.97566128 11.67382908 C139.29760464 13.55811619 139.29760464 13.55811619 139.6260519 15.4804697 C139.73425259 16.13072117 139.84245327 16.78097263 139.95393276 17.45092869 C140.28167741 19.42006115 140.61789464 21.38777728 140.9541769 23.3554697 C141.37717581 25.85384694 141.78705663 28.3544895 142.18220425 30.85742283 C142.49612586 32.75742982 142.84500307 34.65349878 143.28083706 36.52929783 C144.14287309 40.5967494 143.60375487 42.88292067 141.51863003 46.33398533 C140.52544175 47.73814807 139.50904796 49.12614428 138.47175503 50.49804783 C137.96773159 51.20832127 137.46370815 51.9185947 136.94441128 52.65039158 C134.66365859 55.80513348 133.00492546 57.93426754 129.72175503 60.12304783 C127.40437603 60.39148998 127.40437603 60.39148998 124.62464809 60.41738987 C123.04336117 60.43885578 123.04336117 60.43885578 121.43012905 60.46075535 C119.69551418 60.46882206 119.69551418 60.46882206 117.92585659 60.47705173 C116.70771267 60.49019413 115.48956875 60.50333652 114.23451138 60.51687717 C110.19379098 60.55637504 106.15322937 60.57967864 102.11238003 60.59961033 C100.71983925 60.60770726 99.32729926 60.61594115 97.93476009 60.62431049 C91.39138539 60.66240595 84.84805567 60.69086868 78.30459142 60.70753443 C70.75843443 60.72707275 63.21345186 60.77969317 55.66770864 60.86053622 C49.83063443 60.92092038 43.99389625 60.9504778 38.15651584 60.95709646 C34.67209888 60.96179132 31.18893698 60.97962095 27.70485592 61.03001881 C23.81460195 61.08538333 19.92588409 61.0769011 16.03523159 61.06298923 C14.8869186 61.08860935 13.73860561 61.11422947 12.55549526 61.14062595 C4.88817767 61.04068804 4.88817767 61.04068804 1.47870541 58.35841084 C-0.28569207 56.35864155 -1.79662274 54.33675952 -3.27824497 52.12304783 C-3.94855747 51.3779697 -4.61886997 50.63289158 -5.30949497 49.86523533 C-9.7681081 44.19710481 -9.38780004 39.96055989 -8.74504185 33.00097752 C-7.98954563 26.72466899 -6.93321783 20.52430183 -5.77824497 14.31054783 C-5.55265903 13.04662205 -5.3270731 11.78269627 -5.09465122 10.4804697 C-3.21870063 0.17384176 -3.21870063 0.17384176 0 0 Z " fill="#7E8D93" transform="translate(189.278244972229,391.8769521713257)"/>
<path d="M0 0 C3.87236012 0.95110599 5.21447164 1.71419259 7.5625 4.875 C7.66949219 5.55175781 7.77648437 6.22851562 7.88671875 6.92578125 C8.10972656 7.56902344 8.33273437 8.21226562 8.5625 8.875 C10.54469504 9.80644143 10.54469504 9.80644143 13 10.25 C23.55618182 13.07000857 31.47473744 18.9497214 37.03125 28.36328125 C40.40881766 34.83367976 43.37178736 41.42955627 42.5625 48.875 C41.28394206 51.68782746 40.21066558 53.38328818 37.75 55.25 C34.64935996 56.13589715 32.64633471 55.77445179 29.5625 54.875 C26.87087051 53.15534783 25.77551937 51.79374765 25.05078125 48.66796875 C24.91027344 47.82878906 24.76976562 46.98960937 24.625 46.125 C23.47432327 39.34101021 20.89523911 34.73166991 15.5 30.4375 C12.49378161 28.68678376 12.49378161 28.68678376 8.5625 27.875 C8.5625 41.735 8.5625 55.595 8.5625 69.875 C10.5425 69.875 12.5225 69.875 14.5625 69.875 C25.85274186 73.49880344 34.18240373 81.98552167 39.50390625 92.296875 C42.93727817 100.65859258 42.82023515 111.09667369 40.0625 119.625 C35.46070845 130.58856653 27.42623855 137.70678686 16.875 142.75 C13.53615765 143.88394646 11.0591389 144.13085163 7.5625 143.875 C7.500625 144.968125 7.43875 146.06125 7.375 147.1875 C6.5625 150.875 6.5625 150.875 4.3125 152.8125 C1.30887363 153.97299201 -0.27279459 154.50794108 -3.4375 153.875 C-6.48698889 151.4492702 -8.16024901 149.83471495 -9.25 146.0625 C-9.311875 145.340625 -9.37375 144.61875 -9.4375 143.875 C-10.571875 143.813125 -11.70625 143.75125 -12.875 143.6875 C-21.3509729 142.59623717 -28.76690573 137.04699419 -34.4375 130.875 C-40.60743017 122.37937553 -44.00372689 113.47966124 -42.4375 102.875 C-40.375 99.625 -40.375 99.625 -37.4375 97.875 C-33.53961643 97.80661608 -31.38084156 98.11928439 -28.31640625 100.57421875 C-26.08147997 103.310958 -25.60466216 105.30006937 -24.9375 108.75 C-23.48128723 115.15110639 -21.74204386 119.09858077 -16.4375 123.1875 C-13.39511228 125.07276349 -13.39511228 125.07276349 -9.4375 125.875 C-9.7675 112.345 -10.0975 98.815 -10.4375 84.875 C-13.7375 83.885 -17.0375 82.895 -20.4375 81.875 C-29.98045771 76.82885771 -37.37716429 69.02215798 -41.5546875 59.0625 C-44.32578658 49.05711573 -43.36447215 38.03131993 -38.4375 28.875 C-32.61533265 19.58901156 -24.75477238 13.50478607 -14.4375 9.875 C-13.48875 9.771875 -12.54 9.66875 -11.5625 9.5625 C-10.510625 9.2221875 -10.510625 9.2221875 -9.4375 8.875 C-7.76868065 5.45331151 -7.76868065 5.45331151 -6.4375 1.875 C-3.4375 -0.125 -3.4375 -0.125 0 0 Z " fill="#030400" transform="translate(256.4375,179.125)"/>
<path d="M0 0 C1.10172043 -0.01606293 2.20344086 -0.03212585 3.33854675 -0.04867554 C8.39659135 -0.09299952 13.4545019 -0.13421074 18.51269531 -0.15722656 C21.18161178 -0.17053908 23.84871342 -0.2010355 26.51757812 -0.23925781 C30.35871454 -0.29401895 34.19880897 -0.31590327 38.0402832 -0.33056641 C39.23111008 -0.35323578 40.42193695 -0.37590515 41.64884949 -0.39926147 C50.89393879 -0.3756827 50.89393879 -0.3756827 54.59350586 2.48730469 C57.50914207 5.99708967 57.70218523 8.81601238 57.52856445 13.19287109 C57.54338867 13.89154297 57.55821289 14.59021484 57.57348633 15.31005859 C57.51129056 19.18814747 56.95269532 21.04956377 54.5559082 24.12646484 C52.0340087 26.04601138 50.77422637 26.82962698 47.71606445 27.25537109 C43.9221621 27.820249 43.9221621 27.820249 42.12379742 29.89159012 C40.52296339 32.76355879 40.45714926 34.6684784 40.44233704 37.9508667 C40.42979889 39.12593277 40.41726074 40.30099884 40.40434265 41.51167297 C40.40577774 42.79704453 40.40721283 44.08241608 40.40869141 45.40673828 C40.3996733 46.776778 40.38934596 48.14680963 40.37780762 49.51683044 C40.35021686 53.23343848 40.34095034 56.94989351 40.33495355 60.66659069 C40.32557523 64.551735 40.29937231 68.43676477 40.27494812 72.32183838 C40.23126442 79.67757888 40.20272899 87.03329718 40.17962474 94.38912797 C40.15258306 102.76397605 40.10867094 111.13870902 40.06333601 119.51347494 C39.9704629 136.7398941 39.90102156 153.96630114 39.84106445 171.19287109 C28.62106445 171.19287109 17.40106445 171.19287109 5.84106445 171.19287109 C5.83695557 166.97280273 5.83284668 162.75273437 5.82861328 158.40478516 C5.81143834 144.48273077 5.76722732 130.5608601 5.70897388 116.63891983 C5.67430812 108.19561112 5.6489663 99.75246595 5.64550781 91.30908203 C5.6424701 83.95053309 5.62200596 76.59227526 5.58053988 69.2338388 C5.55919024 65.33684769 5.5466191 61.44027066 5.55491066 57.54322052 C5.56243877 53.87565039 5.54668038 50.20892006 5.5130043 46.54150391 C5.5008204 44.55274617 5.51337722 42.5638852 5.52662659 40.57513428 C5.51133911 39.39165405 5.49605164 38.20817383 5.4803009 36.98883057 C5.47753552 35.9601096 5.47477015 34.93138863 5.47192097 33.87149429 C4.60620084 30.19563779 2.97639148 29.17542317 -0.15893555 27.19287109 C-1.33456055 26.88349609 -2.51018555 26.57412109 -3.72143555 26.25537109 C-7.88481962 24.96850693 -8.85052014 23.83382673 -11.15893555 20.19287109 C-12.01464565 15.09401914 -12.63110266 8.8690606 -10.06518555 4.20458984 C-8.72143555 2.88037109 -8.72143555 2.88037109 -6.15893555 1.19287109 C-4.46614215 -0.4999223 -2.31962993 0.0306115 0 0 Z " fill="#FEDFB1" transform="translate(395.158935546875,135.80712890625)"/>
<path d="M0 0 C1.19806274 -0.00241196 2.39612549 -0.00482391 3.63049316 -0.00730896 C6.15880652 -0.00633121 8.68714147 0.00704482 11.21533203 0.03198242 C15.08049406 0.06628859 18.94336909 0.05263502 22.80859375 0.03320312 C25.26823888 0.04010178 27.72787812 0.04977432 30.1875 0.0625 C31.91740173 0.0550602 31.91740173 0.0550602 33.68225098 0.04747009 C39.9070396 0.13863427 43.90852713 0.34828898 48.59375 4.62890625 C50.0644277 7.57026165 49.76423999 10.2311803 49.78125 13.50390625 C49.79542969 14.73882812 49.80960937 15.97375 49.82421875 17.24609375 C49.4845277 22.23206746 49.4845277 22.23206746 47.59375 24.62890625 C45.09765625 25.7890625 45.09765625 25.7890625 42.15625 26.69140625 C37.22182011 28.18258079 37.22182011 28.18258079 33.59375 31.62890625 C33.13349585 34.26798766 33.13349585 34.26798766 33.19502258 37.30461121 C33.18248444 38.48671677 33.16994629 39.66882233 33.1570282 40.88674927 C33.15846329 42.18506683 33.15989838 43.4833844 33.16137695 44.82104492 C33.15236174 46.20078919 33.14203511 47.58052541 33.13049316 48.96025085 C33.10286845 52.7079086 33.0936313 56.45541461 33.08763909 60.203161 C33.07826958 64.11900732 33.05206741 68.03473967 33.02763367 71.95051575 C32.98392567 79.36649684 32.95540518 86.78245587 32.93231028 94.19852668 C32.9052816 102.6410645 32.86136871 111.08348791 32.81602156 119.52594411 C32.72311365 136.89355283 32.6536902 154.2611503 32.59375 171.62890625 C21.37375 171.62890625 10.15375 171.62890625 -1.40625 171.62890625 C-1.41035889 167.44436768 -1.41446777 163.2598291 -1.41870117 158.94848633 C-1.43588196 145.138192 -1.48010315 131.32809605 -1.53834057 117.51791859 C-1.57299477 109.14301961 -1.59834664 100.7682853 -1.60180664 92.39331055 C-1.60484596 85.09371469 -1.62533176 77.79441207 -1.66677457 70.49492949 C-1.68810959 66.62976376 -1.70070284 62.76501496 -1.69240379 58.89978981 C-1.68486646 55.2609417 -1.70067174 51.62293855 -1.73431015 47.9842453 C-1.7464727 46.01357193 -1.73394935 44.04279457 -1.72068787 42.0721283 C-1.55844435 35.13167871 -1.55844435 35.13167871 -4.81416321 29.34501648 C-7.22050617 27.75187933 -8.71188927 26.95890549 -11.53125 26.56640625 C-15.40625 25.62890625 -15.40625 25.62890625 -17.11328125 24.06640625 C-18.91958185 20.66117491 -18.95845212 17.45699723 -18.96875 13.69140625 C-19.00548828 12.98822266 -19.04222656 12.28503906 -19.08007812 11.56054688 C-19.11247485 7.71973475 -18.61692151 5.87983418 -16.13842773 2.92773438 C-11.39493322 -0.7360419 -5.73027567 -0.06587645 0 0 Z " fill="#FEDFB1" transform="translate(78.40625,135.37109375)"/>
<path d="M0 0 C0.64195312 0.4125 1.28390625 0.825 1.9453125 1.25 C2.97011719 1.86875 2.97011719 1.86875 4.015625 2.5 C11.36294611 7.41683846 16.67439106 14.69939439 18.9453125 23.25 C20.1549025 34.48008826 18.51894856 44.4237904 11.6953125 53.625 C3.76619948 61.19369879 -4.50613066 65.28824119 -15.4921875 65.6875 C-25.02993947 65.431826 -33.18417528 61.8988828 -40.0546875 55.25 C-47.3329978 46.50282436 -49.68151623 37.905466 -49.40234375 26.6171875 C-48.90834539 21.83261914 -47.57440789 18.31304913 -45.0546875 14.25 C-44.6421875 13.56421875 -44.2296875 12.8784375 -43.8046875 12.171875 C-34.5829326 -1.55596468 -15.10843833 -8.27230083 0 0 Z " fill="#020202" transform="translate(271.0546875,45.75)"/>
<path d="M0 0 C7.86522173 -0.1268844 15.73017905 -0.21438779 23.59619141 -0.2746582 C26.27180927 -0.29696178 28.94608993 -0.333886 31.62158203 -0.37719727 C35.46924766 -0.4379198 39.31600477 -0.4662284 43.1640625 -0.48828125 C44.35802643 -0.51408768 45.55199036 -0.5398941 46.78213501 -0.56648254 C56.05670524 -0.56960788 56.05670524 -0.56960788 59.75463867 2.29223633 C62.66659904 5.80387626 62.86110298 8.62358995 62.6875 13 C62.70232422 13.69867188 62.71714844 14.39734375 62.73242188 15.1171875 C62.67022611 18.99527638 62.11163087 20.85669268 59.71484375 23.93359375 C57.19294424 25.85314028 55.93316192 26.63675589 52.875 27.0625 C49.08109764 27.6273779 49.08109764 27.6273779 47.28273296 29.69871902 C45.68189894 32.57068769 45.6160848 34.4756073 45.60127258 37.75799561 C45.58873444 38.93306168 45.57619629 40.10812775 45.5632782 41.31880188 C45.56471329 42.60417343 45.56614838 43.88954498 45.56762695 45.21386719 C45.55860885 46.58390691 45.5482815 47.95393854 45.53674316 49.32395935 C45.5091524 53.04056738 45.49988589 56.75702241 45.49388909 60.4737196 C45.48451078 64.3588639 45.45830786 68.24389368 45.43388367 72.12896729 C45.39019997 79.48470779 45.36166454 86.84042609 45.33856028 94.19625688 C45.3115186 102.57110496 45.26760649 110.94583792 45.22227156 119.32060385 C45.12939851 136.54701213 45.05832841 153.77344135 45 171 C39.39 171 33.78 171 28 171 C28 126.12 28 81.24 28 35 C31.3 33.68 34.6 32.36 38 31 C42.16511652 26.83488348 44.1236879 23.71021785 44.1328125 17.83984375 C44.13410156 17.04642578 44.13539063 16.25300781 44.13671875 15.43554688 C44.13091797 14.19901367 44.13091797 14.19901367 44.125 12.9375 C44.12886719 12.10927734 44.13273437 11.28105469 44.13671875 10.42773438 C44.13542969 9.63560547 44.13414062 8.84347656 44.1328125 8.02734375 C44.13112061 6.94054321 44.13112061 6.94054321 44.12939453 5.83178711 C44.11061361 3.90199545 44.11061361 3.90199545 43 2 C28.81 1.67 14.62 1.34 0 1 C0 0.67 0 0.34 0 0 Z " fill="#DCC29A" transform="translate(390,136)"/>
<path d="M0 0 C7.72286742 -0.10151824 15.44556239 -0.17151568 23.16894531 -0.21972656 C25.79563833 -0.23982715 28.42228669 -0.26711204 31.04882812 -0.30175781 C34.82693512 -0.35034164 38.60444984 -0.37298509 42.3828125 -0.390625 C43.55490265 -0.41127014 44.7269928 -0.43191528 45.93460083 -0.45318604 C52.22911711 -0.45491379 56.27634577 -0.36357322 61 4 C62.4706777 6.9413554 62.17048999 9.60227405 62.1875 12.875 C62.20167969 14.10992187 62.21585938 15.34484375 62.23046875 16.6171875 C61.8907777 21.60316121 61.8907777 21.60316121 60 24 C57.50390625 25.16015625 57.50390625 25.16015625 54.5625 26.0625 C49.62807011 27.55367454 49.62807011 27.55367454 46 31 C45.53974585 33.63908141 45.53974585 33.63908141 45.60127258 36.67570496 C45.58873444 37.85781052 45.57619629 39.03991608 45.5632782 40.25784302 C45.56471329 41.55616058 45.56614838 42.85447815 45.56762695 44.19213867 C45.55861174 45.57188294 45.54828511 46.95161916 45.53674316 48.3313446 C45.50911845 52.07900235 45.4998813 55.82650836 45.49388909 59.57425475 C45.48451958 63.49010107 45.45831741 67.40583342 45.43388367 71.3216095 C45.39017567 78.73759059 45.36165518 86.15354962 45.33856028 93.56962043 C45.3115316 102.01215825 45.26761871 110.45458166 45.22227156 118.89703786 C45.12936372 136.26463518 45.05831009 153.6322533 45 171 C39.39 171 33.78 171 28 171 C28 126.12 28 81.24 28 35 C31.3 33.68 34.6 32.36 38 31 C42.80483439 26.19516561 44.12421387 22.97801847 44.13671875 16.24414062 C44.13091797 15.16422852 44.13091797 15.16422852 44.125 14.0625 C44.12886719 13.34642578 44.13273437 12.63035156 44.13671875 11.89257812 C44.13016038 8.35433489 43.86457748 5.45830991 43 2 C28.81 1.67 14.62 1.34 0 1 C0 0.67 0 0.34 0 0 Z " fill="#DBC199" transform="translate(66,136)"/>
<path d="M0 0 C14.51580589 2.9523673 27.18510116 9.98031431 38 20 C38.72703125 20.65871094 39.4540625 21.31742188 40.203125 21.99609375 C55.77613991 36.76668232 64.36957938 57.07233129 65.2734375 78.27734375 C65.87824732 102.16523161 59.46855504 123.22441678 43 141 C42.34128906 141.72703125 41.68257813 142.4540625 41.00390625 143.203125 C30.07187241 154.72905203 15.499924 162.67858771 0 166 C2.9681646 162.86302983 6.11565698 160.38431915 9.625 157.875 C29.92490103 142.86263051 42.16921185 121.53866978 46.58984375 96.68359375 C49.5538845 70.06368491 42.85429936 45.17622547 26.41796875 23.921875 C20.4500127 16.71019306 14.08871602 10.66662699 6.2265625 5.5703125 C3.87967495 3.91513917 1.97261284 2.08070122 0 0 Z " fill="#8EAA00" transform="translate(276,173)"/>
<path d="M0 0 C35.31 0 70.62 0 107 0 C119.47829624 24.83626605 119.47829624 24.83626605 124.7734375 35.40039062 C128.39140044 42.61835953 132.01050487 49.83573509 135.63769531 57.04907227 C138.56087935 62.86237852 141.47781512 68.67879368 144.39089966 74.49716759 C145.50521787 76.72024641 146.62165331 78.94226523 147.74020386 81.16321754 C149.30241595 84.26597286 150.85716468 87.37235815 152.41015625 90.47973633 C152.87769318 91.40402435 153.3452301 92.32831238 153.82693481 93.28060913 C154.24764252 94.12614853 154.66835022 94.97168793 155.10180664 95.84284973 C155.47052383 96.57751874 155.83924103 97.31218775 156.21913147 98.06911945 C157 100 157 100 157 103 C110.47 103 63.94 103 16 103 C16 102.67 16 102.34 16 102 C57.25 102 98.5 102 141 102 C124.5 69 108 36 91 2 C60.97 1.67 30.94 1.34 0 1 C0 0.67 0 0.34 0 0 Z " fill="#6D6D6D" transform="translate(332,324)"/>
<path d="M0 0 C45.54 0 91.08 0 138 0 C139.63847249 4.09618122 140.52950238 7.27192058 141.25390625 11.55078125 C141.57584961 13.43506836 141.57584961 13.43506836 141.90429688 15.35742188 C142.01249756 16.00767334 142.12069824 16.6579248 142.23217773 17.32788086 C142.55992238 19.29701332 142.89613961 21.26472946 143.23242188 23.23242188 C143.65542078 25.73079911 144.06530161 28.23144167 144.46044922 30.734375 C144.77437083 32.63438199 145.12324804 34.53045095 145.55908203 36.40625 C146.42111806 40.47370158 145.88199985 42.75987284 143.796875 46.2109375 C142.80368672 47.61510024 141.78729293 49.00309645 140.75 50.375 C140.24597656 51.08527344 139.74195313 51.79554688 139.22265625 52.52734375 C136.94190357 55.68208565 135.28317043 57.81121971 132 60 C128.64453125 60.1953125 128.64453125 60.1953125 124.8125 60.125 C123.54019531 60.10695313 122.26789063 60.08890625 120.95703125 60.0703125 C119.98121094 60.04710937 119.00539063 60.02390625 118 60 C118.74656768 58.62313338 119.49746028 57.24861165 120.25 55.875 C120.70246094 55.04742187 121.15492188 54.21984375 121.62109375 53.3671875 C123 51 123 51 125.3125 48 C129.65327975 40.28305822 126.02890247 29.52311948 124.5 21.3125 C124.02655782 18.7469552 123.55763814 16.18057075 123.09375 13.61328125 C122.77954102 11.92392456 122.77954102 11.92392456 122.45898438 10.20043945 C122 7 122 7 122 1 C81.74 1 41.48 1 0 1 C0 0.67 0 0.34 0 0 Z " fill="#4F575B" transform="translate(187,392)"/>
<path d="M0 0 C7.6878589 -0.55355705 12.5693225 1.07436101 19.42578125 4.43359375 C20.51313065 4.95070419 21.60048004 5.46781464 22.72077942 6.00059509 C26.83121727 7.9653232 30.91613601 9.98073936 35 12 C35.85148369 12.42056923 36.70296738 12.84113846 37.5802536 13.27445221 C52.35076554 20.57607538 67.07844947 27.96286458 81.80084229 35.36090088 C90.73557267 39.85008481 99.67311648 44.33365323 108.61202431 48.81451225 C111.68052759 50.35375286 114.74759756 51.89581833 117.8144989 53.43824768 C128.4927542 58.80013102 139.21643914 64.04982331 150.00579071 69.18463898 C157.35078688 72.68113507 164.64897422 76.25779232 171.91796875 79.91015625 C173.07452469 80.48914169 174.23108063 81.06812714 175.42268372 81.66465759 C178.40885778 83.15959786 181.39382356 84.65693695 184.378479 86.15490723 C187.4436089 87.69269465 190.50994807 89.22806712 193.57617188 90.76367188 C198.92627584 93.44343002 204.27538216 96.12517173 209.623703 98.80848694 C211.74838348 99.87383548 213.87386479 100.93755828 216 102 C216 102.33 216 102.66 216 103 C76.74 103 -62.52 103 -206 103 C-204 101 -204 101 -201.14831913 100.75801504 C-199.91574693 100.76181224 -198.68317474 100.76560944 -197.41325188 100.76952171 C-196.72546447 100.7689024 -196.03767707 100.76828308 -195.32904762 100.767645 C-193.00129973 100.76802936 -190.67385986 100.78283365 -188.34616089 100.79745483 C-186.66976728 100.8007104 -184.99337176 100.8030855 -183.31697571 100.8046509 C-178.6923985 100.81153872 -174.06794458 100.83099557 -169.44341493 100.85241175 C-164.46318953 100.87330559 -159.48294131 100.88267538 -154.50268555 100.89341736 C-145.86809331 100.91363158 -137.2335495 100.94120988 -128.59899521 100.97373581 C-116.11475531 101.02075274 -103.63050296 101.05674761 -91.14621975 101.09001906 C-70.89318789 101.14429559 -50.64019426 101.20753381 -30.38720703 101.27636719 C-10.70883398 101.34322854 8.96954502 101.40589448 28.64794922 101.46289062 C30.46624136 101.46815929 30.46624136 101.46815929 32.32126667 101.47353439 C38.40225813 101.49112863 44.48324983 101.5086401 50.56424165 101.52611041 C101.04287054 101.67123951 151.52144612 101.83089543 202 102 C199.09715695 98.2205525 196.87706068 96.06679585 192.58666992 93.94482422 C191.50000534 93.40010468 190.41334076 92.85538513 189.29374695 92.29415894 C188.11786514 91.72013336 186.94198334 91.14610779 185.73046875 90.5546875 C184.49041244 89.93900127 183.25086391 89.32229141 182.01179504 88.70462036 C178.73958591 87.0771222 175.46028117 85.4644452 172.17938232 83.85455322 C168.92933306 82.25626793 165.68682753 80.64283544 162.44335938 79.03125 C151.27066015 73.48790886 140.06946032 68.01014538 128.80078125 62.6640625 C112.29737786 54.82684756 96.01338362 46.53813684 79.68798828 38.33880615 C74.37651305 35.67141564 69.06404146 33.00602465 63.75 30.34375 C62.65224652 29.79368601 62.65224652 29.79368601 61.53231621 29.23250961 C51.49672923 24.20743342 41.43000627 19.26117622 31.27990723 14.47033691 C24.66490782 11.34672197 18.14109142 8.06419856 11.65298462 4.6852417 C7.76693031 2.66906305 4.42085514 1.45518945 0 1 C0 0.67 0 0.34 0 0 Z " fill="#324048" transform="translate(251,17)"/>
<path d="M0 0 C3.72263108 3.9119174 5.3110462 7.73902189 5.5625 13.125 C5.21431399 19.27001257 2.48076412 22.80938079 -2 26.8125 C-6.6996519 30.23932951 -10.19122116 30.40060544 -16 30 C-21.88372504 27.95870764 -26.22532871 23.54934258 -29 18 C-29.8398952 11.54480544 -29.17290939 6.94774805 -25.36328125 1.625 C-18.78861166 -6.21185544 -7.84977756 -5.92499202 0 0 Z " fill="#F1F1F1" transform="translate(268,64)"/>
<path d="M0 0 C5.61 0 11.22 0 17 0 C17.06910207 5.14170605 17.12876436 10.28178252 17.16479492 15.42358398 C17.17982429 17.1703845 17.20025354 18.91714765 17.22631836 20.66381836 C17.2629608 23.18352515 17.27978492 25.70273039 17.29296875 28.22265625 C17.30845261 28.99585709 17.32393646 29.76905792 17.33988953 30.56568909 C17.34170604 36.49990725 16.30117259 41.31974794 12.31640625 45.9609375 C11.73761719 46.42757812 11.15882813 46.89421875 10.5625 47.375 C9.98628906 47.85710937 9.41007812 48.33921875 8.81640625 48.8359375 C4.26997643 51.74956349 -0.80867504 51.07634301 -6 51 C-5.64848877 50.36868164 -5.29697754 49.73736328 -4.93481445 49.08691406 C-0.05208845 39.13369803 -0.22019686 29.63508257 -0.1875 18.75 C-0.16431178 16.92575193 -0.13893761 15.10153027 -0.11132812 13.27734375 C-0.04499273 8.85096375 -0.02346049 4.42763408 0 0 Z " fill="#36464E" transform="translate(478,444)"/>
<path d="M0 0 C2.10058559 -0.00968123 4.20018223 -0.04069247 6.30053711 -0.07226562 C7.64232819 -0.07879848 8.98412625 -0.08404785 10.32592773 -0.08789062 C11.5438501 -0.09723633 12.76177246 -0.10658203 14.01660156 -0.11621094 C17.61743453 0.27393497 19.44427001 1.06035713 22.30639648 3.24023438 C24.30639648 6.24023438 24.30639648 6.24023438 24.18139648 9.67773438 C23.19842147 13.67984693 22.55858232 14.8020825 19.30639648 17.24023438 C16.67255811 17.62662343 14.46549094 17.77919681 11.83764648 17.73632812 C10.76166199 17.73851097 10.76166199 17.73851097 9.66394043 17.74073792 C8.15100025 17.73908179 6.63804272 17.72755227 5.12524414 17.70678711 C2.81380414 17.67782719 0.50465873 17.68618281 -1.80688477 17.69921875 C-3.27955212 17.69298084 -4.75221226 17.68458948 -6.22485352 17.67382812 C-6.91349487 17.67676376 -7.60213623 17.6796994 -8.31164551 17.682724 C-12.36814731 17.60325588 -14.79328326 17.15803184 -17.69360352 14.24023438 C-18.75739254 11.59184294 -18.94238387 9.07633038 -18.69360352 6.24023438 C-14.04317297 -1.29667031 -7.97440706 0.02227229 0 0 Z " fill="#040404" transform="translate(402.693603515625,340.759765625)"/>
<path d="M0 0 C6.93380528 2.97163083 11.68645243 5.06765034 15.26953125 11.8828125 C17.23038472 17.5661418 16.86051172 23.81166465 14.5 29.3125 C12.03044778 33.59011724 8.37715496 36.74302948 4 39 C2.68 39 1.36 39 0 39 C0 26.13 0 13.26 0 0 Z " fill="#A1C100" transform="translate(265,266)"/>
<path d="M0 0 C0 12.54 0 25.08 0 38 C-6.47597678 36.92067054 -9.50967532 35.38960859 -13.265625 30.27734375 C-16.45975172 24.80009125 -17.16521109 19.21445913 -16 13 C-12.87807582 5.98636213 -8.07225532 0 0 0 Z " fill="#A1C100" transform="translate(247,207)"/>
<path d="M0 0 C4.45850936 0.79616239 5.90783917 1.93313458 8.5 5.625 C9.12601538 9.58976406 9.15946039 11.62262021 6.9375 15 C3.67160572 17.17726285 1.42016134 17.625 -2.5 17.625 C-5.30189446 15.85858828 -7.01524911 14.59450178 -8.5 11.625 C-9.03507099 7.6119676 -8.83051628 6.08571967 -6.4375 2.75 C-3.5 0.625 -3.5 0.625 0 0 Z " fill="#F9E73C" transform="translate(42.5,460.375)"/>
<path d="M0 0 C4.43024874 0.87022743 5.91370196 2.00398461 8.5 5.6875 C9.12601538 9.65226406 9.15946039 11.68512021 6.9375 15.0625 C3.67160572 17.23976285 1.42016134 17.6875 -2.5 17.6875 C-6.28644566 15.71196313 -7.27321363 14.3678591 -8.625 10.3125 C-8.5 6.6875 -8.5 6.6875 -6.5 3.25 C-3.5 0.6875 -3.5 0.6875 0 0 Z " fill="#EA334E" transform="translate(76.5,460.3125)"/>
<path d="M0 0 C2.9375 1.5 2.9375 1.5 5 4 C5.80967808 7.76307528 5.45360213 10.8943448 4 14.4375 C0.90909579 16.85226892 -2.11445435 17.42332793 -6 17 C-9.04546351 15.03313815 -10.63385671 13.63954428 -11.44140625 10.0234375 C-11.63786303 6.63931095 -11.2321994 4.37151903 -9.4375 1.5 C-6.03618625 -0.59311615 -3.92927257 -0.55147685 0 0 Z " fill="#60A71A" transform="translate(114,461)"/>
</svg>
