<?xml version="1.0" encoding="UTF-8"?>
<svg version="1.1" xmlns="http://www.w3.org/2000/svg" width="512" height="512">
<path d="M0 0 C1.59383271 -0.00461573 3.18766115 -0.01097315 4.78148079 -0.01890898 C9.13651593 -0.03553317 13.49119829 -0.02738759 17.84623432 -0.0149641 C22.55252222 -0.0058875 27.25875085 -0.01989626 31.96502686 -0.03088379 C41.17487085 -0.04864578 50.38458425 -0.04483936 59.59443331 -0.03323323 C67.08121593 -0.02419005 74.56796202 -0.02297873 82.05474854 -0.02732849 C83.12137163 -0.02794142 84.18799473 -0.02855436 85.28693974 -0.02918586 C87.45394183 -0.0304648 89.62094391 -0.03176165 91.78794599 -0.03307623 C112.09541384 -0.04447523 132.4028094 -0.03137897 152.7102654 -0.00987476 C170.12507641 0.00799559 187.53978076 0.00489129 204.95458984 -0.0135498 C225.19069359 -0.03496851 245.42673402 -0.04337666 265.66284752 -0.03110075 C267.8217608 -0.02982659 269.9806741 -0.02856911 272.1395874 -0.02732849 C273.20174127 -0.02671139 274.26389513 -0.02609429 275.35823548 -0.02545848 C282.83374882 -0.02200859 290.3092219 -0.02782616 297.784729 -0.0372467 C306.89814963 -0.04847916 316.0114325 -0.04540039 325.1248374 -0.02412373 C329.7723152 -0.01363013 334.41956352 -0.00946262 339.06703949 -0.02272034 C343.32577639 -0.03468514 347.58407221 -0.02801472 351.84276938 -0.00681013 C353.37896089 -0.00236132 354.91519007 -0.00457142 356.45135713 -0.01431328 C369.75379499 -0.09216719 380.24072983 2.09866943 390.09716797 11.50793457 C399.07667991 20.91419559 401.54822531 30.34043815 401.30200195 43.02160645 C401.24748138 44.85084432 401.17433469 46.67951203 401.09716797 48.50793457 C402.19673828 48.46152832 403.29630859 48.41512207 404.42919922 48.36730957 C416.75946225 47.99980513 426.26729075 49.30881173 436.03076172 57.53527832 C444.2272423 65.35989589 449.05803776 73.9867938 449.55596256 85.48183048 C449.64429798 89.42483372 449.63506435 93.36476445 449.61474609 97.30847168 C449.62017502 99.08683849 449.62730199 100.8652008 449.63598633 102.64355469 C449.65412169 107.44271918 449.64719533 112.2415373 449.63446999 117.04070735 C449.62430243 122.07166739 449.63374503 127.10259891 449.64001465 132.13356018 C449.64727545 140.57228903 449.63773966 149.01087746 449.61865234 157.44958496 C449.59683721 167.20702432 449.60397488 176.96412994 449.62595797 186.72156137 C449.6440978 195.10906647 449.64667872 203.49647103 449.63620329 211.88398939 C449.62996691 216.88963872 449.62913773 221.89513095 449.64234924 226.90077019 C449.65388823 231.60002965 449.64591795 236.29885706 449.62277222 240.99806976 C449.61747678 242.72344049 449.61901315 244.44884751 449.62782288 246.17420387 C449.63872823 248.52645501 449.62507779 250.87731485 449.60510254 253.22947693 C449.60284039 255.20465003 449.60284039 255.20465003 449.60053253 257.21972561 C449.09716797 260.50793457 449.09716797 260.50793457 447.31542206 262.96283817 C445.09716797 264.50793457 445.09716797 264.50793457 441.09716797 264.50793457 C441.04033186 270.53256238 441.12060719 276.54557743 441.44091797 282.56262207 C441.49183594 283.56792969 441.54275391 284.5732373 441.59521484 285.60900879 C442.33697517 289.89289117 444.17670403 292.91597668 447.06201172 296.12121582 C461.2939286 312.81162122 465.7380218 339.135826 465.53466797 360.25793457 C465.53096191 360.95414917 465.52725586 361.65036377 465.5234375 362.36767578 C465.28917406 393.41290562 453.99301524 420.6569203 433.09716797 443.50793457 C432.38044922 444.30715332 431.66373047 445.10637207 430.92529297 445.92980957 C420.23580009 457.26227946 407.22357898 465.21384192 393.09716797 471.50793457 C391.51548828 472.23109863 391.51548828 472.23109863 389.90185547 472.96887207 C366.90647382 482.6728055 338.08170542 484.25954103 314.09716797 477.50793457 C312.86869141 477.16762207 311.64021484 476.82730957 310.37451172 476.47668457 C278.95898264 466.86034889 254.08574683 445.53569314 238.15185547 417.02746582 C229.32521789 400.11929643 224.84756726 382.99001288 225.02294922 364.00402832 C225.02830688 362.89571655 225.03366455 361.78740479 225.03918457 360.64550781 C225.05307288 357.93290248 225.07253566 355.22046002 225.09716797 352.50793457 C224.11263736 352.51162174 223.12810675 352.51530891 222.11374187 352.51910782 C198.1341562 352.60799091 174.15459195 352.67367785 150.17487621 352.71518326 C138.57835719 352.73578957 126.98194713 352.76387333 115.38549805 352.80969238 C105.27549852 352.84961917 95.16557794 352.87538141 85.05550176 352.88428855 C79.70457231 352.88949337 74.35386864 352.9016865 69.0030117 352.9308548 C63.96086785 352.95811613 58.91904161 352.96635793 53.87683105 352.9603653 C52.03183068 352.96146075 50.18681908 352.96935048 48.34188271 352.98475647 C34.12294951 353.09761129 22.8577411 351.78031535 12.09716797 341.50793457 C3.11765603 332.10167355 0.64611063 322.67543099 0.89233398 309.9942627 C0.94685456 308.16502482 1.02000125 306.33635711 1.09716797 304.50793457 C-0.00240234 304.55434082 -1.10197266 304.60074707 -2.23486328 304.64855957 C-14.56512631 305.01606401 -24.07295481 303.70705741 -33.83642578 295.48059082 C-42.22032512 287.47705743 -46.93031743 278.56671708 -47.4107666 266.85914612 C-47.43428461 264.36596375 -47.43627315 261.87251529 -47.42041016 259.37927246 C-47.42584326 257.99498767 -47.43297254 256.61070868 -47.44165039 255.22644043 C-47.45973399 251.50158843 -47.45288226 247.77718433 -47.44013405 244.05232549 C-47.42994226 240.14245176 -47.43941544 236.23261403 -47.44567871 232.32273865 C-47.45293123 225.76713223 -47.44342438 219.21170681 -47.42431641 212.65612793 C-47.40248845 205.07991884 -47.40965125 197.50413938 -47.43162203 189.92794043 C-47.44976879 183.40877673 -47.45233986 176.88974233 -47.44186735 170.37056154 C-47.43563655 166.4827233 -47.43478656 162.59508724 -47.44801331 158.70726204 C-47.45956306 155.05854992 -47.45156307 151.41039367 -47.42843628 147.76174164 C-47.42062418 145.78499109 -47.43250806 143.80819352 -47.44494629 141.83146667 C-47.43366699 140.65546906 -47.4223877 139.47947144 -47.4107666 138.26783752 C-47.4092585 137.24602921 -47.4077504 136.22422091 -47.40619659 135.17144871 C-46.76178188 131.76157875 -45.67054383 130.5541673 -42.90283203 128.50793457 C-41.58283203 128.50793457 -40.26283203 128.50793457 -38.90283203 128.50793457 C-38.90283203 123.22793457 -38.90283203 117.94793457 -38.90283203 112.50793457 C-40.88283203 112.17793457 -42.86283203 111.84793457 -44.90283203 111.50793457 C-48.00990796 106.84732068 -47.27141668 102.05234945 -47.27783203 96.57043457 C-47.30232422 95.47279785 -47.32681641 94.37516113 -47.35205078 93.2442627 C-47.35591797 92.18787598 -47.35978516 91.13148926 -47.36376953 90.04309082 C-47.3719873 89.07766357 -47.38020508 88.11223633 -47.38867188 87.11755371 C-46.75919492 83.7364084 -45.63685712 82.54387873 -42.90283203 80.50793457 C-41.58283203 80.50793457 -40.26283203 80.50793457 -38.90283203 80.50793457 C-38.90283203 75.22793457 -38.90283203 69.94793457 -38.90283203 64.50793457 C-40.88283203 64.17793457 -42.86283203 63.84793457 -44.90283203 63.50793457 C-48.28571237 58.43361407 -47.27196104 52.46698661 -47.27783203 46.50793457 C-47.31457031 44.59174316 -47.31457031 44.59174316 -47.35205078 42.63684082 C-47.39027256 30.18928032 -44.59420273 20.61236051 -35.90283203 11.50793457 C-25.3491282 1.43303772 -14.06782279 -0.08921347 0 0 Z " fill="#000000" transform="translate(46.90283203125,15.4920654296875)"/>
<path d="M0 0 C90.42 0 180.84 0 274 0 C275.65 3.96 277.3 7.92 279 12 C285.86361267 22.67673082 292.87720127 25.94883386 305 31 C305 68.95 305 106.9 305 146 C299.51069942 144.35320983 294.06863173 142.70203679 288.625 140.9375 C260.34279322 132.3939167 228.09201007 136.16441184 202 149.8125 C194.45782442 153.91059174 187.57085417 158.45293331 181 164 C180.00742187 164.83015625 179.01484375 165.6603125 177.9921875 166.515625 C169.39125349 173.93902568 162.29885233 182.5517215 156 192 C153.31759453 192.36914349 153.31759453 192.36914349 149.83712769 192.36076355 C148.52177032 192.36488754 147.20641296 192.36901154 145.85119629 192.3732605 C144.38500774 192.36264228 142.91882123 192.35173784 141.45263672 192.34057617 C139.91541561 192.33973035 138.3781933 192.34020416 136.8409729 192.34190369 C132.65930108 192.34276683 128.47788575 192.32508963 124.29627371 192.30418181 C119.92939131 192.28546807 115.56250347 192.28366877 111.19558716 192.28010559 C102.92242689 192.27076949 94.64938511 192.24613462 86.37627709 192.21605712 C76.95925608 192.18256171 67.54222951 192.16603935 58.12516379 192.15097082 C38.75004194 192.11958637 19.37503049 192.06679556 0 192 C-0.49246216 190.77676025 -0.49246216 190.77676025 -0.99487305 189.52880859 C-1.43355713 188.45453613 -1.87224121 187.38026367 -2.32421875 186.2734375 C-2.75565186 185.21044434 -3.18708496 184.14745117 -3.6315918 183.05224609 C-9.26085065 170.49613651 -18.41459528 166.24391863 -31 161 C-31 118.1 -31 75.2 -31 31 C-27.04 29.35 -23.08 27.7 -19 26 C-8.32326918 19.13638733 -5.05116614 12.12279873 0 0 Z " fill="#70C57A" transform="translate(135,120)"/>
<path d="M0 0 C2.74911267 2.17951235 5.3350625 4.44908707 7.90234375 6.83984375 C8.39041504 7.2869873 8.87848633 7.73413086 9.38134766 8.19482422 C24.12125358 21.80412563 34.4969936 38.44564761 39.90234375 57.83984375 C40.20140625 58.86980469 40.50046875 59.89976562 40.80859375 60.9609375 C47.63914837 87.80881193 41.13287663 116.09206062 27.90234375 139.83984375 C25.01417522 144.5347827 21.59031181 148.75365027 17.90234375 152.83984375 C17.3801123 153.4210498 16.85788086 154.00225586 16.31982422 154.60107422 C-1.72583525 174.34428039 -26.60849058 187.46697345 -53.62353516 188.98144531 C-81.61131655 190.1535537 -107.42861242 182.94145051 -128.66015625 164.08984375 C-130.15018863 162.68460996 -131.63122272 161.26968681 -133.09765625 159.83984375 C-133.96390625 159.01484375 -134.83015625 158.18984375 -135.72265625 157.33984375 C-136.50640625 156.51484375 -137.29015625 155.68984375 -138.09765625 154.83984375 C-138.98517578 153.94458984 -138.98517578 153.94458984 -139.890625 153.03125 C-158.82501495 133.07139986 -165.93634061 105.16601044 -165.4765625 78.359375 C-164.44894614 53.3908757 -153.3765082 30.56087105 -136.09765625 12.83984375 C-135.27265625 11.97359375 -134.44765625 11.10734375 -133.59765625 10.21484375 C-132.77265625 9.43109375 -131.94765625 8.64734375 -131.09765625 7.83984375 C-130.51242187 7.25976562 -129.9271875 6.6796875 -129.32421875 6.08203125 C-94.36800946 -27.05489577 -38.44349259 -26.80863985 0 0 Z " fill="#FACF62" transform="translate(453.09765625,291.16015625)"/>
<path d="M0 0 C0.64127811 -0.00320648 1.28255621 -0.00641296 1.94326699 -0.0097166 C4.09479795 -0.01802623 6.24605124 -0.01208904 8.39758682 -0.00622082 C9.95466427 -0.00924108 11.51174023 -0.01312993 13.06881356 -0.01781338 C17.34996169 -0.02811858 21.63102632 -0.02590514 25.91218138 -0.02163279 C30.5285416 -0.01917009 35.14488147 -0.02817414 39.76123428 -0.03567028 C48.80676141 -0.04843272 57.85225888 -0.05020899 66.8977935 -0.04787002 C74.25028992 -0.04608816 81.60277733 -0.04783366 88.95527267 -0.05209446 C90.00108327 -0.05268965 91.04689386 -0.05328484 92.12439568 -0.05389806 C94.24888243 -0.0551098 96.37336918 -0.05632393 98.49785593 -0.05754044 C118.43132983 -0.06842226 138.36478682 -0.06625065 158.29826167 -0.06015559 C176.53395618 -0.05498778 194.76959724 -0.06623716 213.00528118 -0.08525381 C231.72640343 -0.10462708 250.4475004 -0.11288899 269.16863275 -0.10913056 C279.68035022 -0.10721749 290.19202223 -0.1097162 300.70373154 -0.1238451 C309.65410159 -0.13575347 318.6043982 -0.13717 327.55476925 -0.12505493 C332.12091754 -0.11916199 336.68693145 -0.11807825 341.25307083 -0.13005733 C345.43538419 -0.14090184 349.61745076 -0.13782984 353.7997525 -0.12379565 C355.31052022 -0.12114474 356.82130718 -0.12352766 358.33205602 -0.13153151 C375.40234388 -0.21567127 375.40234388 -0.21567127 382.77606583 4.79744434 C383.28524551 5.34013966 383.7944252 5.88283497 384.31903458 6.44197559 C384.84110489 6.97178028 385.3631752 7.50158497 385.90106583 8.04744434 C392.30753417 16.85438987 392.07596589 24.79534349 392.02069473 35.25545216 C392.02616 36.98411654 392.03340402 38.71277607 392.04228592 40.44142628 C392.05758497 44.15188061 392.06044102 47.86205859 392.0535202 51.57253742 C392.04271421 57.43844848 392.06013714 63.30407164 392.08133316 69.1699419 C392.11155543 78.44390715 392.1232848 87.71778679 392.12690961 96.99179721 C392.13356695 113.61247016 392.1625292 130.23308421 392.21200597 146.85368419 C392.22851543 152.68656267 392.23391864 158.51931665 392.23041558 164.35221624 C392.22997911 167.9754105 392.23753408 171.59855755 392.24709129 175.22173786 C392.24977777 176.90357237 392.24901612 178.58541639 392.24458122 180.2672472 C392.23895206 182.56016919 392.24547303 184.85274811 392.25497818 187.14564991 C392.25531366 188.42945671 392.25564915 189.71326351 392.2559948 191.03597355 C392.55997194 194.97139928 392.55997194 194.97139928 394.50653458 198.25447559 C396.15653458 198.91447559 397.80653458 199.57447559 399.50653458 200.25447559 C399.50653458 208.17447559 399.50653458 216.09447559 399.50653458 224.25447559 C396.57275082 221.32069183 393.92801007 218.64329443 391.31903458 215.50447559 C386.64578407 210.13327209 381.39664752 204.34177747 375.0760994 200.950387 C368.07095272 196.95067003 368.07095272 196.95067003 366.58525467 192.48583698 C366.24820159 189.02447058 366.22666738 185.68363012 366.31122208 182.20662403 C366.30322083 180.90344227 366.29521957 179.60026051 366.28697586 178.25758839 C366.2659904 174.69893087 366.30591711 171.14327456 366.35652924 167.58501434 C366.39849311 163.85746563 366.38211154 160.13018968 366.37152481 156.40248585 C366.35993717 149.3474079 366.39738365 142.2935268 366.4540453 135.23870015 C366.53522802 124.87580963 366.54622881 114.5127908 366.55273819 104.14962101 C366.55377143 102.62095356 366.55480899 101.09228611 366.55585098 99.56361866 C366.55624374 98.81743786 366.55663651 98.07125706 366.55704117 97.30246472 C366.56108537 92.86493307 366.58066295 88.42780607 366.61388683 83.99039888 C366.62872067 81.89778327 366.63938478 79.80519228 366.64845657 77.71254444 C366.66030837 75.15957796 366.67965671 72.60663139 366.70775223 70.053792 C366.71104034 68.93228748 366.71432846 67.81078297 366.71771622 66.65529346 C366.72890236 65.19083601 366.72890236 65.19083601 366.74031448 63.69679356 C366.67609985 60.9965212 366.67609985 60.9965212 364.50653458 58.25447559 C361.43742779 57.44747338 361.43742779 57.44747338 357.88153458 56.94197559 C351.36413109 55.66117573 347.20372504 53.92891937 342.50653458 49.25447559 C342.00508926 48.75560841 341.50364395 48.25674122 340.98700333 47.74275684 C337.3774103 43.77948612 335.95068105 39.94425985 335.08856583 34.72322559 C334.93774551 33.82603809 334.7869252 32.92885059 334.63153458 32.00447559 C334.5103627 31.15369434 334.38919083 30.30291309 334.26434708 29.42635059 C333.71525228 27.13821796 333.71525228 27.13821796 331.77522802 26.13481271 C329.17392118 25.12540927 327.2372444 25.00163746 324.44962692 24.99720669 C323.42349462 24.9907578 322.39736232 24.9843089 321.3401351 24.97766459 C319.65163309 24.9823104 319.65163309 24.9823104 317.92901993 24.98705006 C316.73194365 24.98251894 315.53486737 24.97798783 314.30151606 24.97331941 C310.97754318 24.9628366 307.6537864 24.96135168 304.32981229 24.96370816 C300.74557137 24.96411592 297.16136285 24.95308123 293.57713699 24.94359303 C286.55515259 24.92697443 279.53320177 24.92148313 272.51119936 24.92036827 C266.8052786 24.91941839 261.09936894 24.9153111 255.39345169 24.90896702 C239.22344549 24.89135378 223.05346584 24.8821285 206.88344997 24.88362797 C205.57563418 24.88374783 205.57563418 24.88374783 204.24139786 24.88387012 C203.36845898 24.88395189 202.4955201 24.88403365 201.59612852 24.88411789 C187.44057973 24.88493125 173.28513722 24.86578122 159.12961918 24.83759339 C144.60202621 24.80889234 130.07448513 24.7950515 115.54686308 24.79678094 C107.38772945 24.79744572 99.22870729 24.7919152 91.06959915 24.77042484 C84.12459606 24.75224973 77.179755 24.74783547 70.23473847 24.76144369 C66.68988522 24.7679915 63.14534317 24.76802583 59.60051918 24.75073719 C55.76155021 24.73220604 51.92304007 24.74451335 48.08404922 24.75999928 C46.95838122 24.74971215 45.83271321 24.73942502 44.67293406 24.72882617 C43.64680175 24.73802376 42.62066945 24.74722135 41.56344223 24.75669765 C40.67706495 24.75626292 39.79068767 24.75582818 38.87745047 24.75538027 C35.71755876 25.42056084 34.51346768 26.78045985 32.50653458 29.25447559 C31.78410243 31.78282896 31.78410243 31.78282896 31.56903458 34.50447559 C30.47442498 41.64323385 27.75616886 46.00484131 22.69403458 51.06697559 C16.99569635 54.97759987 11.15241911 56.49836947 4.38934708 57.62947559 C2.11961642 58.16868609 2.11961642 58.16868609 0.50653458 61.25447559 C0.20374655 64.0384924 0.20374655 64.0384924 0.25256729 67.24493885 C0.24692764 68.49699116 0.24128799 69.74904346 0.23547745 71.03903675 C0.2393662 72.42912827 0.24346254 73.81921922 0.24774551 75.20930958 C0.24503586 76.67122542 0.24147507 78.13313989 0.2371254 79.59505177 C0.22799526 83.56819043 0.23154841 87.5412254 0.23788357 91.51436591 C0.24294129 95.66984989 0.23825266 99.82532489 0.23511124 103.98080921 C0.23147052 110.96080083 0.23627302 117.94075016 0.24579239 124.92073536 C0.25667289 132.9919939 0.25315474 141.06315138 0.24213958 149.13440746 C0.23306462 156.06102121 0.23178258 162.98760453 0.23701692 169.9142223 C0.24013602 174.05251793 0.24054769 178.19076606 0.23394394 182.32905865 C0.22816822 186.2204572 0.23217149 190.11172546 0.24373245 194.00310993 C0.24637801 195.43176844 0.2456157 196.86043791 0.24120712 198.28909206 C0.23574634 200.2384003 0.24380676 202.18773249 0.25256729 204.13702869 C0.25369837 205.77381911 0.25369837 205.77381911 0.25485229 207.44367599 C0.50931662 210.28554563 0.85625957 211.93615081 2.50653458 214.25447559 C5.0693745 215.00110641 7.45695348 215.538921 10.06903458 216.00447559 C18.50116772 217.81431765 23.78235102 221.00627456 28.86200333 228.16463184 C31.51063123 232.8212448 32.26320038 237.662184 32.91669083 242.93416309 C33.3225828 245.61554176 33.3225828 245.61554176 36.50653458 247.25447559 C39.43626247 247.56781338 39.43626247 247.56781338 42.82762527 247.53294849 C43.47130627 247.5387409 44.11498726 247.5445333 44.77817374 247.55050123 C46.93857305 247.56752877 49.09875909 247.57038002 51.25922012 247.57332325 C52.80644634 247.58261955 54.35366752 247.59278777 55.90088272 247.60376453 C60.10510576 247.63111234 64.3092952 247.64622806 68.5135839 247.65919256 C72.90587079 247.67480223 77.29808886 247.70159931 81.69032669 247.7272234 C90.00941166 247.77404959 98.32850953 247.81077508 106.64765912 247.84389627 C116.11796582 247.88209056 125.58820347 247.93150775 135.05845201 247.98188043 C154.54109569 248.08525739 174.02378149 248.17449901 193.50653458 248.25447559 C193.1688002 249.23287403 192.83106583 250.21127247 192.48309708 251.21931934 C190.10519639 258.18247344 187.90366956 265.01477613 186.50653458 272.25447559 C161.48066289 272.34793763 136.45481739 272.41846405 111.4288063 272.46172428 C99.80866027 272.4823451 88.18862271 272.51045665 76.5685463 272.55623341 C66.43989775 272.59611571 56.31132777 272.6219119 46.18260288 272.63082957 C40.82003236 272.63604192 35.45768659 272.64828309 30.09518814 272.67739582 C25.04566675 272.70458678 19.99646227 272.71291307 14.94687462 272.70690632 C13.09577651 272.7080049 11.24466759 272.71593678 9.39363289 272.73129749 C6.86056836 272.7512833 4.32869071 272.74638395 1.79559708 272.73549366 C1.06794679 272.74714503 0.3402965 272.75879639 -0.4094038 272.77080083 C-6.95014668 272.6951107 -12.04144653 270.39512701 -16.95440292 266.10603809 C-17.58604355 265.37127247 -18.21768417 264.63650684 -18.86846542 263.87947559 C-19.5155748 263.14986622 -20.16268417 262.42025684 -20.82940292 261.66853809 C-24.7511974 255.97917428 -24.78400457 250.31784299 -24.76089096 243.66527271 C-24.76542207 242.70615589 -24.76995319 241.74703906 -24.77462161 240.75885808 C-24.78727083 237.54852651 -24.78564489 234.33836447 -24.78399277 231.12801075 C-24.78997764 228.82486217 -24.79678309 226.5217156 -24.80434799 224.21857166 C-24.82201826 217.96444631 -24.82670378 211.71037568 -24.82797956 205.45622778 C-24.82987894 200.23500025 -24.83723684 195.01378546 -24.84432375 189.79256284 C-24.85967879 178.17800737 -24.86566132 166.56347858 -24.86431305 154.94891377 C-24.86423314 154.25246401 -24.86415323 153.55601426 -24.86407089 152.83845997 C-24.86398913 152.14115699 -24.86390737 151.44385401 -24.86382313 150.72542064 C-24.86301021 139.42442783 -24.88215119 128.12356829 -24.91034763 116.82261403 C-24.93909148 105.21036642 -24.95252103 93.5981899 -24.95116007 81.985906 C-24.95065007 75.46986542 -24.9563546 68.95397572 -24.97751617 62.43796635 C-24.9968748 56.30985462 -24.99703901 50.18203809 -24.98248291 44.05391598 C-24.98039086 41.80613684 -24.98511918 39.55833933 -24.99720383 37.3105917 C-25.01264558 34.23926269 -25.0033546 31.16895291 -24.98794174 28.09764576 C-24.99822887 27.21066836 -25.00851599 26.32369096 -25.01911485 25.40983546 C-24.94073807 18.32999537 -23.02964415 13.11278078 -18.30987167 7.79353809 C-17.19418808 6.84607716 -17.19418808 6.84607716 -16.05596542 5.87947559 C-15.31475449 5.23236622 -14.57354355 4.58525684 -13.80987167 3.91853809 C-9.30065609 0.67920278 -5.50354086 0.00417902 0 0 Z " fill="#89DA96" transform="translate(88.49346542358398,79.7455244064331)"/>
<path d="M0 0 C0.64127811 -0.00320648 1.28255621 -0.00641296 1.94326699 -0.0097166 C4.09479795 -0.01802623 6.24605124 -0.01208904 8.39758682 -0.00622082 C9.95466427 -0.00924108 11.51174023 -0.01312993 13.06881356 -0.01781338 C17.34996169 -0.02811858 21.63102632 -0.02590514 25.91218138 -0.02163279 C30.5285416 -0.01917009 35.14488147 -0.02817414 39.76123428 -0.03567028 C48.80676141 -0.04843272 57.85225888 -0.05020899 66.8977935 -0.04787002 C74.25028992 -0.04608816 81.60277733 -0.04783366 88.95527267 -0.05209446 C90.00108327 -0.05268965 91.04689386 -0.05328484 92.12439568 -0.05389806 C94.24888243 -0.0551098 96.37336918 -0.05632393 98.49785593 -0.05754044 C118.43132983 -0.06842226 138.36478682 -0.06625065 158.29826167 -0.06015559 C176.53395618 -0.05498778 194.76959724 -0.06623716 213.00528118 -0.08525381 C231.72640343 -0.10462708 250.4475004 -0.11288899 269.16863275 -0.10913056 C279.68035022 -0.10721749 290.19202223 -0.1097162 300.70373154 -0.1238451 C309.65410159 -0.13575347 318.6043982 -0.13717 327.55476925 -0.12505493 C332.12091754 -0.11916199 336.68693145 -0.11807825 341.25307083 -0.13005733 C345.43538419 -0.14090184 349.61745076 -0.13782984 353.7997525 -0.12379565 C355.31052022 -0.12114474 356.82130718 -0.12352766 358.33205602 -0.13153151 C375.40234388 -0.21567127 375.40234388 -0.21567127 382.77606583 4.79744434 C389.02917669 11.46215238 391.73989715 16.18979637 391.60419083 25.53181934 C391.59009171 26.79115284 391.57599258 28.05048634 391.56146622 29.34798145 C391.54333878 30.30712452 391.52521133 31.26626759 391.50653458 32.25447559 C390.7662699 32.25469296 390.02600523 32.25491033 389.26330829 32.25513428 C345.37254332 32.26865515 301.48186751 32.30816087 257.59115939 32.38133122 C252.31913631 32.39009779 247.04711291 32.39864763 241.77508926 32.40706348 C240.72554059 32.40874255 239.67599191 32.41042161 238.59463874 32.41215155 C221.608709 32.43880892 204.62281302 32.44791573 187.63686451 32.45051702 C170.2029281 32.45357832 152.76908914 32.47554546 135.33519673 32.51500016 C124.58071948 32.53874468 113.82643684 32.54780754 103.07193699 32.5379887 C95.6934783 32.53266596 88.31519372 32.54573567 80.9367846 32.5731385 C76.68211196 32.58840092 72.42782912 32.59567849 68.17314529 32.58107281 C64.27154669 32.56785891 60.37070121 32.57793698 56.46918693 32.60591332 C55.06387907 32.61199111 53.65850352 32.60979542 52.25323114 32.59810486 C39.77135638 32.50245928 28.75285312 35.5068349 19.50653458 44.25447559 C8.35322247 56.04360597 7.77409272 69.39804562 7.84711075 84.71053028 C7.83864627 86.7615452 7.82799702 88.81255208 7.81534195 90.86354542 C7.78731325 96.3999615 7.78964644 101.93598856 7.79763579 107.47245407 C7.80077058 113.27007102 7.77569803 119.06756618 7.75368118 124.86513233 C7.71629599 135.82953836 7.70409645 146.79382037 7.70105678 157.75828385 C7.69635997 170.24689679 7.66341661 182.73538596 7.62815893 195.22394419 C7.55629792 220.90077301 7.51971938 246.5775543 7.50653458 272.25447559 C5.26448547 272.29343011 3.02224074 272.32123421 0.77997208 272.34431934 C-0.46864609 272.36099659 -1.71726425 272.37767384 -3.00371933 272.39485645 C-10.25104558 272.10332066 -14.01087725 269.0233145 -18.86846542 263.87947559 C-23.29833527 258.88484146 -24.738911 254.0183305 -24.75848007 247.39004993 C-24.76675323 246.24181248 -24.7750264 245.09357502 -24.78355026 243.91054249 C-24.78256836 242.66512684 -24.78158646 241.41971119 -24.7805748 240.13655567 C-24.78660441 238.80064955 -24.79353002 237.46474722 -24.80128098 236.12884998 C-24.81612844 233.26093723 -24.82490859 230.3930936 -24.82899094 227.52514553 C-24.83571979 222.99130426 -24.85748974 218.45761089 -24.88152695 213.92383289 C-24.93458292 203.48613264 -24.96805568 193.04838695 -25.00128555 182.6106081 C-25.03196359 173.03409011 -25.06676056 163.45763594 -25.11759615 153.88120097 C-25.14095935 149.37274536 -25.15468895 144.86439344 -25.16109085 140.35588324 C-25.16559357 138.2292174 -25.17459835 136.10262856 -25.18564987 133.97598743 C-25.19910909 131.38129413 -25.20541638 128.78655041 -25.20338058 126.19182301 C-25.21165375 125.05204502 -25.21992691 123.91226704 -25.22845078 122.73795033 C-25.23285046 121.24942161 -25.23285046 121.24942161 -25.23733902 119.73082161 C-25.32512926 117.00197838 -25.32512926 117.00197838 -27.49346542 114.25447559 C-29.14346542 113.59447559 -30.79346542 112.93447559 -32.49346542 112.25447559 C-32.49346542 106.97447559 -32.49346542 101.69447559 -32.49346542 96.25447559 C-34.47346542 95.92447559 -36.45346542 95.59447559 -38.49346542 95.25447559 C-41.60054135 90.5938617 -40.86205008 85.79889047 -40.86846542 80.31697559 C-40.89295761 79.21933887 -40.9174498 78.12170216 -40.94268417 76.99080372 C-40.94655136 75.934417 -40.95041855 74.87803028 -40.95440292 73.78963184 C-40.9626207 72.8242046 -40.97083847 71.85877735 -40.97930527 70.86409473 C-40.34982831 67.48294942 -39.22749051 66.29041975 -36.49346542 64.25447559 C-35.17346542 64.25447559 -33.85346542 64.25447559 -32.49346542 64.25447559 C-32.49346542 58.97447559 -32.49346542 53.69447559 -32.49346542 48.25447559 C-30.51346542 47.26447559 -28.53346542 46.27447559 -26.49346542 45.25447559 C-25.48841712 42.23933069 -25.35530461 40.1466487 -25.31768417 36.99275684 C-25.29383652 35.95570606 -25.26998886 34.91865528 -25.24541855 33.85017872 C-25.20283701 31.68110073 -25.17137848 29.5117726 -25.15166855 27.34236622 C-24.93891781 19.33205336 -23.67849653 13.84404553 -18.30987167 7.79353809 C-17.56608261 7.16189747 -16.82229355 6.53025684 -16.05596542 5.87947559 C-15.31475449 5.23236622 -14.57354355 4.58525684 -13.80987167 3.91853809 C-9.30065609 0.67920278 -5.50354086 0.00417902 0 0 Z " fill="#70C57A" transform="translate(40.493465423583984,31.745524406433105)"/>
<path d="M0 0 C2.74911267 2.17951235 5.3350625 4.44908707 7.90234375 6.83984375 C8.39041504 7.2869873 8.87848633 7.73413086 9.38134766 8.19482422 C24.12125358 21.80412563 34.4969936 38.44564761 39.90234375 57.83984375 C40.20140625 58.86980469 40.50046875 59.89976562 40.80859375 60.9609375 C47.63914837 87.80881193 41.13287663 116.09206062 27.90234375 139.83984375 C25.01417522 144.5347827 21.59031181 148.75365027 17.90234375 152.83984375 C17.3801123 153.4210498 16.85788086 154.00225586 16.31982422 154.60107422 C-1.72583525 174.34428039 -26.60849058 187.46697345 -53.62353516 188.98144531 C-81.61131655 190.1535537 -107.42861242 182.94145051 -128.66015625 164.08984375 C-130.15018863 162.68460996 -131.63122272 161.26968681 -133.09765625 159.83984375 C-133.96390625 159.01484375 -134.83015625 158.18984375 -135.72265625 157.33984375 C-136.50640625 156.51484375 -137.29015625 155.68984375 -138.09765625 154.83984375 C-138.98517578 153.94458984 -138.98517578 153.94458984 -139.890625 153.03125 C-158.82501495 133.07139986 -165.93634061 105.16601044 -165.4765625 78.359375 C-164.44894614 53.3908757 -153.3765082 30.56087105 -136.09765625 12.83984375 C-135.27265625 11.97359375 -134.44765625 11.10734375 -133.59765625 10.21484375 C-132.77265625 9.43109375 -131.94765625 8.64734375 -131.09765625 7.83984375 C-130.51242187 7.25976562 -129.9271875 6.6796875 -129.32421875 6.08203125 C-94.36800946 -27.05489577 -38.44349259 -26.80863985 0 0 Z M-121.09765625 19.83984375 C-121.77183594 20.4121875 -122.44601562 20.98453125 -123.140625 21.57421875 C-138.28109564 35.57135865 -148.32488647 57.70733037 -149.5078125 78.1953125 C-150.2728762 104.07177896 -142.14306572 127.72215848 -124.38476562 146.64453125 C-108.68493795 162.66828935 -87.25520276 172.60098711 -64.78979492 173.37841797 C-39.3107371 173.59481 -16.29002457 164.53977871 2.08203125 146.75 C19.58591386 129.0977794 27.21657866 105.71271959 27.28515625 81.30981445 C26.93007423 59.78851516 17.66776697 40.95268186 3.90234375 24.83984375 C3.33 24.16566406 2.75765625 23.49148438 2.16796875 22.796875 C-12.10546399 7.35754305 -34.94831739 -2.44482806 -55.828125 -3.43359375 C-81.07277472 -4.10244923 -101.93941798 3.47269253 -121.09765625 19.83984375 Z " fill="#DE9340" transform="translate(453.09765625,291.16015625)"/>
<path d="M0 0 C19.52737578 15.14421482 33.2451069 35.4982863 36.90625 60.25390625 C39.29190283 85.53157536 32.45636088 109.86552923 16.3046875 129.4765625 C1.71448492 146.46308246 -18.82418859 157.48061093 -41.09375 160.25390625 C-68.0187547 162.13101786 -90.62135818 154.74375726 -111.09375 137.25390625 C-111.76792969 136.6815625 -112.44210937 136.10921875 -113.13671875 135.51953125 C-128.96817105 120.88358908 -138.31235069 97.94703647 -139.3671875 76.64453125 C-140.06355501 51.81467713 -132.15640365 31.05572104 -116.09375 12.25390625 C-115.52140625 11.57972656 -114.9490625 10.90554688 -114.359375 10.2109375 C-85.24646502 -21.2800072 -34.25755926 -24.26577115 0 0 Z M-104.09375 23.25390625 C-104.68414062 23.8365625 -105.27453125 24.41921875 -105.8828125 25.01953125 C-118.85910546 38.75913556 -123.558585 56.97925481 -123.3046875 75.32421875 C-122.69179971 95.03499287 -113.77584839 112.50078549 -99.7109375 126.0546875 C-92.192417 132.37248905 -83.39448798 138.03442003 -74.09375 141.25390625 C-72.83304688 141.69863281 -72.83304688 141.69863281 -71.546875 142.15234375 C-52.77912277 147.80340727 -32.19297636 144.13583655 -15.09375 135.25390625 C2.27925636 124.63833732 13.14421194 109.66287656 18.90625 90.25390625 C19.27556641 89.04734375 19.27556641 89.04734375 19.65234375 87.81640625 C24.4652978 68.6973612 19.56930107 49.92420154 9.90625 33.25390625 C7.78095934 30.03406637 5.47729308 27.12742499 2.90625 24.25390625 C1.92398438 23.13242187 1.92398438 23.13242187 0.921875 21.98828125 C-8.4872994 11.8923058 -19.98764679 6.14478064 -33.09375 2.25390625 C-33.898125 2.00769531 -34.7025 1.76148438 -35.53125 1.5078125 C-60.91134402 -4.88127367 -86.48756114 4.92569703 -104.09375 23.25390625 Z " fill="#030201" transform="translate(443.09375,303.74609375)"/>
<path d="M0 0 C10.1218722 7.31122931 18.05200324 19.45281189 20.09765625 31.93359375 C21.53790731 47.88110097 19.19433239 63.29417779 9.3125 76.3125 C2.10277064 84.37043282 -6.43665928 89.44268245 -17.28125 90.5859375 C-27.81009634 90.95388105 -35.89317159 87.99546993 -44 81.25 C-54.67530059 70.83172912 -59.65242606 56.9554357 -60.125 42.1875 C-59.50644213 27.48178546 -54.99015589 15.10801147 -44.8984375 4.3203125 C-31.95549873 -7.43352236 -14.92425966 -9.25203259 0 0 Z " fill="#70C47A" transform="translate(291.6875,173.6875)"/>
<path d="M0 0 C13.37189604 8.3192464 23.42711254 21.11727931 27.265625 36.49609375 C27.52279297 37.61564453 27.52279297 37.61564453 27.78515625 38.7578125 C27.98753906 39.41136719 28.18992187 40.06492188 28.3984375 40.73828125 C33.32608202 58.06884056 29.02972586 77.05206637 20.76953125 92.56640625 C17.66489087 97.55949915 13.99699891 101.67758992 9.78515625 105.7578125 C9.12515625 106.41523438 8.46515625 107.07265625 7.78515625 107.75 C2.97850386 112.26592744 -2.14899116 115.21406786 -8.21484375 117.7578125 C-8.96121094 118.07878906 -9.70757812 118.39976562 -10.4765625 118.73046875 C-22.01392167 122.94189867 -34.87675755 121.87663806 -46.0703125 117.296875 C-59.68143285 110.63503473 -69.37471107 100.15067734 -76.21484375 86.7578125 C-76.79234375 85.6440625 -77.36984375 84.5303125 -77.96484375 83.3828125 C-84.8370008 63.45355706 -83.88105794 43.44918306 -75.02734375 24.3828125 C-71.59448449 17.93519863 -67.4402231 12.82843323 -62.21484375 7.7578125 C-61.57804687 7.11199219 -60.94125 6.46617187 -60.28515625 5.80078125 C-43.42486985 -10.25496867 -19.61548242 -11.00127585 0 0 Z M-55.21484375 22.7578125 C-57.52686631 25.95945051 -59.43837651 29.23438744 -61.21484375 32.7578125 C-62.08109375 34.459375 -62.08109375 34.459375 -62.96484375 36.1953125 C-68.32581394 51.47407755 -67.17982933 67.39234153 -60.7421875 82.12890625 C-55.17077881 92.46828171 -47.36934864 99.86315469 -36.28515625 103.9453125 C-26.8410598 106.4445136 -17.97531334 104.85897416 -9.21484375 100.7578125 C2.45624017 93.74061874 8.69287315 83.04931719 12.53515625 70.26171875 C15.95650897 55.79224788 14.01285138 41.15666488 6.5078125 28.359375 C0.64119942 19.49959198 -6.70818044 12.50592698 -17.08984375 9.3828125 C-32.44435168 6.4537397 -44.85596709 11.10638439 -55.21484375 22.7578125 Z " fill="#010302" transform="translate(298.21484375,159.2421875)"/>
<path d="M0 0 C2.875 2.3125 2.875 2.3125 5 5 C5 5.99 5 6.98 5 8 C6.175625 8.0825 7.35125 8.165 8.5625 8.25 C16.26657327 9.2672632 20.77222482 13.23599905 25.5546875 19.05859375 C29.03529326 23.73389392 29.77306857 28.28852324 29 34 C26.86111111 38.56944444 26.86111111 38.56944444 24 40 C20.79960528 40.27829519 18.72375281 40.41299649 15.8984375 38.80078125 C13.01357541 36.06431742 12.74981187 33.05672292 11.90625 29.27734375 C11.21589317 26.89767757 11.21589317 26.89767757 9.24609375 25.87866211 C5.13939633 24.27213993 0.85824541 24.63091349 -3.5 24.625 C-4.92505859 24.58826172 -4.92505859 24.58826172 -6.37890625 24.55078125 C-11.78173267 24.50249149 -11.78173267 24.50249149 -16.6328125 26.6171875 C-18.42743403 29.74495646 -18.46562239 31.90805819 -18.375 35.5 C-18.36210937 36.6240625 -18.34921875 37.748125 -18.3359375 38.90625 C-18.01785249 41.83559106 -17.61768376 43.56773789 -16 46 C-13.53276104 47.23361948 -11.81262057 47.15724672 -9.0546875 47.2109375 C-7.56195313 47.25347656 -7.56195313 47.25347656 -6.0390625 47.296875 C-3.95329097 47.34837553 -1.86733135 47.39281232 0.21875 47.4296875 C8.22592073 47.67669534 15.01991095 48.67727418 21.25 54.1875 C21.87390625 54.71730469 22.4978125 55.24710937 23.140625 55.79296875 C28.21304847 61.81380753 29.70572893 67.60854823 29.5625 75.375 C29.55226807 76.20990967 29.54203613 77.04481934 29.53149414 77.9050293 C29.2383987 86.42472413 26.93398893 92.50620088 20.6875 98.4375 C15.93172599 102.10297648 11.05817795 104 5 104 C4.731875 104.94875 4.46375 105.8975 4.1875 106.875 C3 110 3 110 0 112 C-3.31309774 112.35245721 -5.33010093 112.34400223 -8.3125 110.8125 C-10.37860258 108.59335278 -10.67842796 106.97454134 -11 104 C-11.556875 103.99742187 -12.11375 103.99484375 -12.6875 103.9921875 C-20.19138312 103.61192315 -24.30097819 100.65207991 -29.5390625 95.48046875 C-33.49302061 91.09874324 -35.02455098 86.72965337 -35.4375 80.9375 C-35 77 -35 77 -32.875 74 C-30 72 -30 72 -27 71.375 C-22.84405427 72.24082203 -21.55421809 73.61738685 -19 77 C-18.07522262 79.34781844 -17.33312409 81.67357699 -16.67578125 84.109375 C-16.17386375 86.20128328 -16.17386375 86.20128328 -14 87 C-10.5470921 87.23984126 -7.08531801 87.18519312 -3.625 87.1875 C-2.6659375 87.19974609 -1.706875 87.21199219 -0.71875 87.22460938 C0.20679688 87.22654297 1.13234375 87.22847656 2.0859375 87.23046875 C2.9320459 87.23457764 3.7781543 87.23868652 4.64990234 87.24291992 C7.24645688 86.97452477 8.83211836 86.44877208 11 85 C12.11630207 81.65109379 12.16765424 79.02460739 12.1875 75.5 C12.20167969 74.3553125 12.21585937 73.210625 12.23046875 72.03125 C12.23549057 68.82237615 12.23549057 68.82237615 10 66 C6.9848551 64.9949517 4.89217311 64.86183919 1.73828125 64.82421875 C0.70123047 64.80037109 -0.33582031 64.77652344 -1.40429688 64.75195312 C-3.57337486 64.70937158 -5.742703 64.67791306 -7.91210938 64.65820312 C-15.92060574 64.44550063 -21.37659756 63.16328785 -27.4609375 57.8515625 C-28.40839844 56.74941406 -28.40839844 56.74941406 -29.375 55.625 C-30.02210938 54.89539063 -30.66921875 54.16578125 -31.3359375 53.4140625 C-35.20234797 47.8050445 -35.36465241 42.2060668 -35.375 35.625 C-35.39949219 34.81289063 -35.42398437 34.00078125 -35.44921875 33.1640625 C-35.4836792 25.99628797 -33.58308468 20.91116879 -28.81640625 15.5390625 C-27.70072266 14.59160156 -27.70072266 14.59160156 -26.5625 13.625 C-25.82128906 12.97789062 -25.08007812 12.33078125 -24.31640625 11.6640625 C-19.90783404 8.49702749 -16.38650391 7.74946493 -11 8 C-10.9175 7.236875 -10.835 6.47375 -10.75 5.6875 C-10 3 -10 3 -8.3125 1.1875 C-5.21737291 -0.40188959 -3.43979993 -0.56159999 0 0 Z " fill="#030201" transform="translate(395,320)"/>
<path d="M0 0 C0.80232056 -0.00004028 1.60464111 -0.00008057 2.43127441 -0.00012207 C4.12239443 0.00522359 5.8135146 0.02276578 7.50439453 0.05175781 C10.08573724 0.09362006 12.66446867 0.09282315 15.24609375 0.0859375 C16.89324721 0.09643096 18.54038728 0.10936992 20.1875 0.125 C21.3392572 0.12530212 21.3392572 0.12530212 22.51428223 0.12561035 C27.02599744 0.22473308 30.01087988 0.78722566 33.59375 3.59375 C34.99832737 6.40290474 34.84270157 8.48185534 34.59375 11.59375 C32.81390595 14.7296657 32.07066793 15.43477736 28.59375 16.59375 C23.34255951 16.87064497 18.09179115 16.90714221 12.83398438 16.94384766 C11.09393955 16.96041642 9.35396305 16.98771889 7.61425781 17.02587891 C5.09925214 17.08071881 2.58583593 17.1025286 0.0703125 17.1171875 C-0.70379974 17.13985687 -1.47791199 17.16252625 -2.27548218 17.18588257 C-6.32165937 17.17010093 -8.17461313 16.77539113 -11.39697266 14.24853516 C-13.40625 11.59375 -13.40625 11.59375 -14.03125 8.59375 C-12.4447375 0.97849 -6.89259428 -0.14717412 0 0 Z " fill="#010201" transform="translate(373.40625,207.40625)"/>
<path d="M0 0 C0.80232056 -0.00004028 1.60464111 -0.00008057 2.43127441 -0.00012207 C4.12239443 0.00522359 5.8135146 0.02276578 7.50439453 0.05175781 C10.08573724 0.09362006 12.66446867 0.09282315 15.24609375 0.0859375 C16.89324721 0.09643096 18.54038728 0.10936992 20.1875 0.125 C21.3392572 0.12530212 21.3392572 0.12530212 22.51428223 0.12561035 C27.02599744 0.22473308 30.01087988 0.78722566 33.59375 3.59375 C34.99832737 6.40290474 34.84270157 8.48185534 34.59375 11.59375 C32.81390595 14.7296657 32.07066793 15.43477736 28.59375 16.59375 C23.34255951 16.87064497 18.09179115 16.90714221 12.83398438 16.94384766 C11.09393955 16.96041642 9.35396305 16.98771889 7.61425781 17.02587891 C5.09925214 17.08071881 2.58583593 17.1025286 0.0703125 17.1171875 C-0.70379974 17.13985687 -1.47791199 17.16252625 -2.27548218 17.18588257 C-6.32165937 17.17010093 -8.17461313 16.77539113 -11.39697266 14.24853516 C-13.40625 11.59375 -13.40625 11.59375 -14.03125 8.59375 C-12.4447375 0.97849 -6.89259428 -0.14717412 0 0 Z " fill="#010201" transform="translate(149.40625,207.40625)"/>
<path d="M0 0 C0.76183594 0.103125 1.52367187 0.20625 2.30859375 0.3125 C3.07300781 0.395 3.83742188 0.4775 4.625 0.5625 C7.44170492 1.55846196 8.18771709 2.7900776 9.74609375 5.3125 C10.13427734 7.61499023 10.13427734 7.61499023 10.14453125 10.12109375 C10.15033203 11.48911133 10.15033203 11.48911133 10.15625 12.88476562 C10.14464844 13.83029297 10.13304688 14.77582031 10.12109375 15.75 C10.13269531 16.69166016 10.14429687 17.63332031 10.15625 18.60351562 C10.11795397 27.64776105 10.11795397 27.64776105 6.74609375 31.3125 C4.625 32.16015625 4.625 32.16015625 2.30859375 32.375 C1.54675781 32.46910156 0.78492188 32.56320313 0 32.66015625 C-3.21011347 32.16500876 -4.2264114 30.80037299 -6.25390625 28.3125 C-6.77148438 25.71875 -6.77148438 25.71875 -6.78515625 22.8125 C-6.7903125 21.760625 -6.79546875 20.70875 -6.80078125 19.625 C-6.7853125 18.531875 -6.76984375 17.43875 -6.75390625 16.3125 C-6.769375 15.219375 -6.78484375 14.12625 -6.80078125 13 C-6.79304687 11.4221875 -6.79304687 11.4221875 -6.78515625 9.8125 C-6.78064453 8.8534375 -6.77613281 7.894375 -6.77148438 6.90625 C-6.0013933 3.0470766 -3.98921682 0.55309765 0 0 Z " fill="#000100" transform="translate(6.25390625,95.6875)"/>
</svg>
