<?xml version="1.0" encoding="UTF-8"?>
<svg version="1.1" xmlns="http://www.w3.org/2000/svg" width="512" height="512">
<path d="M0 0 C0.87398437 -0.01933594 1.74796875 -0.03867187 2.6484375 -0.05859375 C12.86750705 1.64458451 19.26967354 9.54648202 26.18359375 16.5703125 C27.37965196 17.77130047 28.57652945 18.97147303 29.77418518 20.17086792 C32.27052847 22.67481942 34.76029503 25.18505814 37.24487305 27.70068359 C40.43299322 30.92856966 43.63196397 34.14541818 46.83518887 37.35830879 C49.89237623 40.42544964 52.94457696 43.49753144 55.99609375 46.5703125 C56.57924284 47.15685734 57.16239193 47.74340218 57.7632122 48.3477211 C59.40536136 50.00141372 61.04396658 51.65853055 62.68139648 53.31689453 C63.17017273 53.80835968 63.65894897 54.29982483 64.16253662 54.80618286 C67.51007203 58.20764406 67.51007203 58.20764406 68.625 60.4375 C68.41875 61.736875 68.2125 63.03625 68 64.375 C67.91800816 70.66787375 72.16829024 74.11707063 76.2421875 78.34765625 C79.89681989 80.60542568 80.35932156 80.56053339 84.33815002 80.14476013 C88.44692843 80.07296293 90.50363511 80.5773674 93.65464783 83.23768616 C94.99429854 84.53649245 96.30731207 85.86314465 97.59741211 87.21118164 C98.68965088 88.29159225 98.68965088 88.29159225 99.80395508 89.39382935 C102.19506171 91.77155377 104.54844397 94.18313727 106.90234375 96.59765625 C108.56048147 98.2642994 110.2205516 99.92902203 111.88246155 101.59190369 C115.35659799 105.078359 118.81357931 108.58067923 122.25805664 112.09643555 C126.66825993 116.5971828 131.10839686 121.06682868 135.56037045 125.52622318 C138.98753071 128.96225222 142.40368942 132.40903905 145.81610298 135.85970879 C147.4498377 137.51117101 149.08571017 139.16052133 150.72376823 140.80769539 C153.01240974 143.11447633 155.28718656 145.43408105 157.55834961 147.75805664 C158.57056328 148.77226433 158.57056328 148.77226433 159.60322571 149.80696106 C164.56817064 154.93147826 168.05013275 159.94228268 168.0625 167.375 C168.09150391 168.53322266 168.09150391 168.53322266 168.12109375 169.71484375 C166.36379877 179.35921071 159.19791241 185.38909936 152.515625 191.9375 C151.42187472 193.02377777 150.32901323 194.11095111 149.23699951 195.19897461 C146.37871851 198.04207883 143.50862771 200.87295716 140.63580322 203.70135498 C137.69911115 206.59692176 134.77389444 209.50403198 131.84765625 212.41015625 C126.11786297 218.09721929 120.3755262 223.77140241 114.625 229.4375 C115.40316574 229.43892502 116.18133148 229.44035004 116.983078 229.44181824 C124.3252151 229.45966553 131.66665147 229.50132893 139.00847912 229.56959057 C142.7828328 229.60384725 146.55678233 229.62896835 150.33129883 229.63305664 C153.97564704 229.63734267 157.61908376 229.66582826 161.26314735 229.71093178 C162.65171304 229.72389746 164.04038786 229.72821767 165.42900658 229.72365379 C167.37747262 229.71874244 169.32593408 229.74772604 171.27416992 229.77807617 C172.3822551 229.78473801 173.49034027 229.79139984 174.63200378 229.79826355 C178.59448411 230.64455993 180.13632955 232.30601887 182.625 235.4375 C182.625 236.4275 182.625 237.4175 182.625 238.4375 C188.895 238.4375 195.165 238.4375 201.625 238.4375 C201.955 236.7875 202.285 235.1375 202.625 233.4375 C205.34744225 230.70111052 207.3709456 230.05965601 211.17480469 230.03344727 C212.51705109 230.01442101 212.51705109 230.01442101 213.88641357 229.99501038 C214.84686584 229.99794601 215.80731812 230.00088165 216.796875 230.00390625 C218.29145233 229.99604347 218.29145233 229.99604347 219.81622314 229.98802185 C221.92434763 229.9816013 224.03250794 229.98293906 226.140625 229.99145508 C229.34961727 229.99993294 232.55681001 229.9712553 235.765625 229.93945312 C237.8177078 229.93784007 239.86979374 229.93842063 241.921875 229.94140625 C242.87423035 229.93017227 243.82658569 229.91893829 244.80780029 229.90736389 C251.9014733 229.98069704 257.29945573 231.50319623 262.68359375 236.25390625 C263.13863281 236.83011719 263.59367187 237.40632812 264.0625 238 C264.53558594 238.57878906 265.00867188 239.15757812 265.49609375 239.75390625 C268.26242704 243.87947597 267.7789846 248.36883659 267.78562927 253.12771606 C267.79071709 254.02639432 267.79580491 254.92507257 267.80104691 255.8509835 C267.81679468 258.8747752 267.82530263 261.89854296 267.83374023 264.92236328 C267.84327685 267.08551689 267.85316793 269.24866897 267.86338806 271.41181946 C267.89479644 278.52713201 267.91504299 285.64245633 267.93359375 292.7578125 C267.93689107 293.96803998 267.94018839 295.17826747 267.94358563 296.42516851 C267.97436823 307.83745171 268.00107799 319.24973752 268.01800442 330.66205025 C268.039913 345.26278044 268.08188575 359.86314297 268.15144199 374.46372616 C268.19868064 384.72795923 268.22293788 394.99209309 268.2302013 405.25643146 C268.23515786 411.38757391 268.25023998 417.51830214 268.2899456 423.64932632 C268.32682211 429.41963316 268.33521785 435.18928936 268.32193947 440.959692 C268.3219934 443.07484096 268.33228266 445.19001882 268.3536911 447.30505943 C268.53763975 466.50852453 268.53763975 466.50852453 263.69424534 472.82559013 C256.1911541 478.67038126 249.5330555 479.01023211 240.17526245 478.93870544 C238.81144415 478.94260224 237.44762993 478.94824571 236.08382523 478.95547634 C232.35081865 478.97019454 228.61823547 478.96007175 224.8852427 478.94573963 C220.85385355 478.93461311 216.82252297 478.94657789 212.7911377 478.95558167 C204.90002111 478.96950396 197.00906472 478.9619658 189.11795579 478.94690608 C179.92798542 478.93003576 170.73805485 478.93325747 161.54807378 478.93700016 C145.15197126 478.94287672 128.75594556 478.92871429 112.35986328 478.90405273 C96.44967775 478.88012472 80.53959483 478.87305179 64.62939453 478.88354492 C47.30126151 478.89495275 29.97317594 478.89688647 12.64504349 478.88244683 C10.79763484 478.88092099 8.95022619 478.87940063 7.10281754 478.87788582 C5.73938921 478.8767491 5.73938921 478.8767491 4.34841689 478.87558941 C-2.05789165 478.87084615 -8.464179 478.87269826 -14.87048721 478.87695122 C-22.6757407 478.88187643 -30.48089716 478.87589976 -38.28612842 478.85605692 C-42.26864798 478.84618191 -46.25101975 478.84108208 -50.23354721 478.84894943 C-53.87898765 478.85600361 -57.52412977 478.84920804 -61.16953085 478.8313458 C-63.11324258 478.8253825 -65.05698224 478.83412904 -67.00068104 478.84339231 C-74.52451045 478.78848626 -79.21206706 478.15909346 -85.0625 473.125 C-87.61548893 470.15801287 -89.06486333 468.1446085 -90.375 464.4375 C-90.13068594 461.94388648 -89.57463712 459.63106178 -88.97143364 457.19941139 C-84.99057482 440.80788894 -83.92987143 421.3143115 -92.67186069 406.19449902 C-101.30404262 392.97129956 -112.77420007 381.70040395 -123.92578125 370.62109375 C-125.14628559 369.40849845 -125.14628559 369.40849845 -126.39144659 368.17140627 C-136.60854183 358.06731252 -147.05314539 348.21454115 -157.58279788 338.43786108 C-167.54478356 329.17788376 -177.32434838 319.73136315 -187.10742188 310.28320312 C-197.10045901 300.6412215 -207.10729466 291.01750845 -217.23005676 281.51158142 C-218.77280123 280.05961653 -220.31553129 278.60763632 -221.85824585 277.15563965 C-224.70756848 274.47481352 -227.56692568 271.80533095 -230.43269348 269.1421051 C-231.70352871 267.94815068 -232.97401708 266.75382691 -234.24409485 265.55906677 C-234.81151266 265.03790407 -235.37893047 264.51674137 -235.96354276 263.97978586 C-240.43169695 259.74884705 -243.93491433 255.37949003 -244.87109375 249.12109375 C-244.85175781 248.04988281 -244.83242187 246.97867188 -244.8125 245.875 C-244.81121094 244.80121094 -244.80992187 243.72742188 -244.80859375 242.62109375 C-243.79889488 235.207539 -239.257079 230.89852142 -234.15234375 225.88671875 C-233.4510585 225.18730667 -232.74977325 224.48789459 -232.02723694 223.76728821 C-230.55055303 222.29730263 -229.07028758 220.83090715 -227.58666992 219.36791992 C-225.30967187 217.12221073 -223.04364295 214.8658808 -220.77929688 212.60742188 C-219.34176942 211.17905963 -217.90363924 209.75130368 -216.46484375 208.32421875 C-215.78461655 207.64824142 -215.10438934 206.9722641 -214.40354919 206.27580261 C-213.77271927 205.65458023 -213.14188934 205.03335785 -212.49194336 204.39331055 C-211.93695663 203.84515182 -211.38196991 203.2969931 -210.81016541 202.73222351 C-209.375 201.4375 -209.375 201.4375 -207.375 200.4375 C-206.075625 200.64375 -204.77625 200.85 -203.4375 201.0625 C-199.1717107 201.13904761 -196.90533011 199.69019794 -193.76342773 196.84716797 C-193.01428101 196.11844482 -193.01428101 196.11844482 -192.25 195.375 C-191.75250244 194.90980957 -191.25500488 194.44461914 -190.74243164 193.96533203 C-189.12339034 192.36323745 -189.12339034 192.36323745 -187.375 189.4375 C-187.62710009 187.09399811 -187.95892589 184.75750817 -188.375 182.4375 C-186.14368965 177.52185901 -182.22257129 174.00290233 -178.44889832 170.2507019 C-177.74003033 169.53800837 -177.03116233 168.82531483 -176.3008135 168.09102452 C-173.92428216 165.70417445 -171.54066243 163.32453356 -169.15698242 160.94482422 C-167.45160279 159.23509753 -165.74664168 157.5249533 -164.04206848 155.81442261 C-159.89147999 151.65182487 -155.73616793 147.49398065 -151.57840129 143.33855568 C-148.19877979 139.96071799 -144.82093092 136.58111748 -141.44433022 133.20026016 C-140.72316914 132.47820631 -140.72316914 132.47820631 -139.98743916 131.7415655 C-139.01071897 130.76363355 -138.03399996 129.78570041 -137.05728213 128.80776609 C-127.90001654 119.63962727 -118.7362439 110.4780139 -109.57049177 101.31836058 C-101.18733801 92.94037673 -92.81242752 84.55420771 -84.44136926 76.16413985 C-75.84303652 67.54643144 -67.23915932 58.93429498 -58.62925416 50.32814801 C-53.79667617 45.49748235 -48.96632461 40.66463972 -44.14177513 35.82595444 C-39.60568791 31.27671112 -35.06181694 26.73533884 -30.51261711 22.19920731 C-28.84351531 20.53247612 -27.17697313 18.86317717 -25.51317978 17.19114685 C-23.24300161 14.91054123 -20.96379191 12.639361 -18.68205261 10.37033081 C-17.69580022 9.37301699 -17.69580022 9.37301699 -16.68962353 8.35555542 C-11.75679881 3.4804201 -7.21590801 0.01058051 0 0 Z " fill="#010202" transform="translate(244.375,16.5625)"/>
<path d="M0 0 C0.87398437 -0.01933594 1.74796875 -0.03867187 2.6484375 -0.05859375 C12.86750705 1.64458451 19.26967354 9.54648202 26.18359375 16.5703125 C27.37965196 17.77130047 28.57652945 18.97147303 29.77418518 20.17086792 C32.27052847 22.67481942 34.76029503 25.18505814 37.24487305 27.70068359 C40.43299322 30.92856966 43.63196397 34.14541818 46.83518887 37.35830879 C49.89237623 40.42544964 52.94457696 43.49753144 55.99609375 46.5703125 C56.57924284 47.15685734 57.16239193 47.74340218 57.7632122 48.3477211 C59.40536136 50.00141372 61.04396658 51.65853055 62.68139648 53.31689453 C63.17017273 53.80835968 63.65894897 54.29982483 64.16253662 54.80618286 C67.51007203 58.20764406 67.51007203 58.20764406 68.625 60.4375 C68.2846875 62.355625 68.2846875 62.355625 67.9375 64.3125 C67.81984703 68.1083563 68.83481157 69.95838554 71.29296875 72.69921875 C74.27867076 75.75278784 77.41887767 78.61782992 80.625 81.4375 C80.274375 81.953125 79.92375 82.46875 79.5625 83 C78.17565004 86.6058099 78.66204919 88.69454948 79.625 92.4375 C81.56292763 95.18895307 83.91792871 97.42884765 86.34790039 99.74633789 C87.0503035 100.4399794 87.7527066 101.13362091 88.47639465 101.84828186 C89.99926711 103.34836789 91.52903055 104.84148342 93.0648365 106.32832527 C95.49455363 108.68136256 97.90493864 111.05273238 100.31114197 113.42979431 C105.4200537 118.47018619 110.55203415 123.48668454 115.6875 128.5 C121.64207336 134.31304558 127.58682307 140.13544356 133.50683403 145.98370171 C135.88367216 148.32160598 138.27783892 150.64073926 140.67311096 152.95973206 C142.12678532 154.3916141 143.57962558 155.82434361 145.03149414 157.25805664 C145.70317627 157.89874084 146.3748584 158.53942505 147.06689453 159.19952393 C151.45980817 163.58936317 151.45980817 163.58936317 152.22044373 167.49465942 C149.70232536 179.93986722 139.47029225 191.65608883 131.625 201.25 C131.04341503 201.96590679 130.46183006 202.68181358 129.86262131 203.41941452 C114.07520583 222.37297914 95.66940835 232.0499283 71.34423828 234.33398438 C30.30711792 237.83032209 -11.58455902 235.75272524 -52.64073181 233.38897705 C-55.07229822 233.25612659 -57.5039211 233.12434803 -59.93554878 232.99262464 C-62.17344102 232.86346016 -64.40870142 232.70987964 -66.64489746 232.5544405 C-67.99188009 232.47825615 -69.3389184 232.40304759 -70.6860199 232.32899475 C-71.84015098 232.25345399 -72.99428205 232.17791323 -74.1833868 232.10008335 C-79.26555167 232.63736871 -82.28128313 235.22225903 -85.625 238.9375 C-89.10025623 243.90215176 -89.59714511 247.24272661 -89.28125 253.28173828 C-89.21547547 254.91557588 -89.15083239 256.54945932 -89.0871582 258.18338013 C-89.03260971 259.48225851 -89.03260971 259.48225851 -88.97695923 260.80737686 C-88.7648591 266.42494339 -88.68568801 272.04633726 -88.58329773 277.66678047 C-88.48644831 282.57626083 -88.34425456 287.47554723 -88.09619141 292.37988281 C-86.39113989 327.26215674 -86.39113989 327.26215674 -96.265625 338.90917969 C-101.56987951 344.75568344 -107.57126657 349.82832497 -113.90649414 354.51998901 C-116.43633469 356.20016035 -116.43633469 356.20016035 -117.375 358.4375 C-120.90853506 356.92729298 -123.19657558 354.87397665 -125.91142273 352.17523193 C-126.81579071 351.28083908 -127.72015869 350.38644623 -128.65193176 349.46495056 C-129.64656599 348.47121208 -130.64108421 347.47735746 -131.63549805 346.48339844 C-132.68824851 345.43827094 -133.74139996 344.39354723 -134.79492188 343.34919739 C-137.65296595 340.51308807 -140.50441953 337.67044196 -143.35405707 334.82588863 C-145.13471142 333.04887823 -146.91665685 331.27317297 -148.69904518 329.49790192 C-154.91714846 323.3042869 -161.1295154 317.10497732 -167.3371582 310.90087891 C-173.12391879 305.11775594 -178.92368479 299.34790329 -184.72951287 293.58392882 C-189.71423482 288.63388615 -194.68930525 283.67427987 -199.65706664 278.7072165 C-202.62401938 275.7410572 -205.59482539 272.77902121 -208.57556725 269.82671356 C-211.37817189 267.05024971 -214.1685923 264.26209638 -216.95011139 261.46451378 C-217.97252069 260.44028699 -218.99921316 259.42031516 -220.03045845 258.40498543 C-221.43835352 257.01750284 -222.82939748 255.61298305 -224.2195282 254.20770264 C-225.39393479 253.03631304 -225.39393479 253.03631304 -226.59206676 251.841259 C-228.70967382 248.98629118 -229.15371294 246.95897257 -229.375 243.4375 C-228.36306763 241.59051514 -228.36306763 241.59051514 -226.75048828 240.03417969 C-226.15301788 239.4404657 -225.55554749 238.84675171 -224.93997192 238.23504639 C-223.95261551 237.30658905 -223.95261551 237.30658905 -222.9453125 236.359375 C-222.28038788 235.70672668 -221.61546326 235.05407837 -220.9303894 234.38165283 C-218.80280075 232.29986001 -216.65252452 230.24347075 -214.5 228.1875 C-212.35997563 226.11226668 -210.22478438 224.03218234 -208.09103394 221.95050049 C-206.76142276 220.65681281 -205.42716013 219.36788575 -204.08792114 218.08416748 C-203.48414642 217.50306213 -202.8803717 216.92195679 -202.25830078 216.32324219 C-201.72455841 215.81283386 -201.19081604 215.30242554 -200.64089966 214.77655029 C-198.63142134 212.65095329 -198.37888366 211.52682416 -198.25 208.5625 C-198.22569795 205.57778405 -198.22569795 205.57778405 -199.04296875 203.4152832 C-199.15253906 202.76261475 -199.26210937 202.10994629 -199.375 201.4375 C-196.91532745 198.7791039 -194.35975961 196.45900896 -191.6015625 194.12304688 C-189.95997193 192.62596252 -188.58290899 191.30513914 -187.375 189.4375 C-187.62056381 185.86943292 -187.62056381 185.86943292 -188.375 182.4375 C-186.15203965 177.52136035 -182.22016157 174.00050632 -178.44889832 170.2507019 C-177.74003033 169.53800837 -177.03116233 168.82531483 -176.3008135 168.09102452 C-173.92428216 165.70417445 -171.54066243 163.32453356 -169.15698242 160.94482422 C-167.45160279 159.23509753 -165.74664168 157.5249533 -164.04206848 155.81442261 C-159.89147999 151.65182487 -155.73616793 147.49398065 -151.57840129 143.33855568 C-148.19877979 139.96071799 -144.82093092 136.58111748 -141.44433022 133.20026016 C-140.72316914 132.47820631 -140.72316914 132.47820631 -139.98743916 131.7415655 C-139.01071897 130.76363355 -138.03399996 129.78570041 -137.05728213 128.80776609 C-127.90001654 119.63962727 -118.7362439 110.4780139 -109.57049177 101.31836058 C-101.18733801 92.94037673 -92.81242752 84.55420771 -84.44136926 76.16413985 C-75.84303652 67.54643144 -67.23915932 58.93429498 -58.62925416 50.32814801 C-53.79667617 45.49748235 -48.96632461 40.66463972 -44.14177513 35.82595444 C-39.60568791 31.27671112 -35.06181694 26.73533884 -30.51261711 22.19920731 C-28.84351531 20.53247612 -27.17697313 18.86317717 -25.51317978 17.19114685 C-23.24300161 14.91054123 -20.96379191 12.639361 -18.68205261 10.37033081 C-17.69580022 9.37301699 -17.69580022 9.37301699 -16.68962353 8.35555542 C-11.75679881 3.4804201 -7.21590801 0.01058051 0 0 Z " fill="#88C7FB" transform="translate(244.375,16.5625)"/>
<path d="M0 0 C68.31 0 136.62 0 207 0 C207 9.9 207 19.8 207 30 C202.35115723 30.02187378 202.35115723 30.02187378 197.60839844 30.04418945 C187.37838177 30.09448471 177.14851813 30.16107077 166.91865158 30.23571491 C160.71514937 30.28047773 154.51171374 30.31972091 148.30810547 30.34643555 C142.32335116 30.37240938 136.33885226 30.41276998 130.35425568 30.46318626 C128.06890281 30.47989505 125.78350573 30.49138426 123.49810028 30.49761391 C120.30151984 30.50721125 117.10559876 30.53521875 113.90917969 30.56762695 C112.96043472 30.56619186 112.01168976 30.56475677 111.03419495 30.5632782 C106.02993072 30.61998604 106.02993072 30.61998604 101.40802002 32.34342957 C99.73281173 34.01875653 99.73281173 34.01875653 99.5625 36.9375 C100.07086003 40.49602024 100.30466088 41.62427883 103 44 C106.28394712 44.63249777 109.55197412 44.56334548 112.88745117 44.54589844 C114.4096653 44.56140495 114.4096653 44.56140495 115.96263123 44.57722473 C119.32290357 44.60676451 122.6825765 44.6081543 126.04296875 44.609375 C128.37039853 44.62434905 130.69781765 44.64107455 133.02522278 44.65948486 C139.15563431 44.7032573 145.28590248 44.72317949 151.41644287 44.73822021 C157.67029329 44.75775559 163.92398808 44.79972958 170.17773438 44.83984375 C182.45177503 44.91525311 194.72578103 44.96547967 207 45 C207.07005151 59.02960196 207.12276981 73.05917684 207.15543652 87.08891773 C207.1711125 93.60304123 207.19238621 100.1170475 207.22631836 106.63110352 C207.25884261 112.91398463 207.27683844 119.19675276 207.28463173 125.47971153 C207.2901877 127.88037584 207.3010367 130.28103377 207.31719017 132.68165016 C207.33887195 136.03635798 207.34197077 139.39059506 207.34057617 142.74536133 C207.35675491 144.24400223 207.35675491 144.24400223 207.3732605 145.7729187 C207.36913651 146.68577133 207.36501251 147.59862396 207.36076355 148.53913879 C207.36352893 149.33280255 207.36629431 150.12646631 207.36914349 150.94418049 C206.88886025 153.61895519 206.14485185 154.35023894 204 156 C201.56618309 156.37604749 201.56618309 156.37604749 198.61044312 156.37752342 C197.48466669 156.38534666 196.35889027 156.39316991 195.1989994 156.40123022 C193.95689894 156.39453805 192.71479847 156.38784589 191.43505859 156.38095093 C190.11970816 156.3856309 188.80435772 156.39031087 187.44914818 156.39513266 C183.79033375 156.40769583 180.13175303 156.40144832 176.47293758 156.39217401 C172.53013943 156.3854055 168.58738236 156.39585378 164.64459229 156.40411377 C156.91759034 156.41747688 149.19067566 156.41456192 141.46367025 156.40587585 C135.18563208 156.39910982 128.90761841 156.39817789 122.62957764 156.4014473 C121.29098712 156.40213684 121.29098712 156.40213684 119.92535436 156.40284032 C118.11266215 156.40379947 116.29996994 156.40477211 114.48727775 156.4057581 C97.47638134 156.41431954 80.46553338 156.40446604 63.45464492 156.388357 C48.84799422 156.37495313 34.24141503 156.37728101 19.63476562 156.39111328 C2.68612044 156.40715579 -14.26248224 156.4134955 -31.21113396 156.40427649 C-33.01728184 156.40332081 -34.82342974 156.4023777 -36.62957764 156.4014473 C-37.51831404 156.40098447 -38.40705045 156.40052164 -39.32271826 156.40004479 C-45.59562867 156.39745091 -51.86851221 156.40183446 -58.14141846 156.40888596 C-65.78254943 156.41728641 -73.42358791 156.41505156 -81.06470823 156.39904372 C-84.96581585 156.39114132 -88.86676908 156.38810271 -92.76787567 156.39799118 C-96.99040531 156.40853277 -101.21254269 156.3959745 -105.43505859 156.38095093 C-107.2982093 156.39098918 -107.2982093 156.39098918 -109.1989994 156.40123022 C-110.32477583 156.39340697 -111.45055225 156.38558373 -112.61044312 156.37752342 C-113.58583731 156.37703637 -114.5612315 156.37654931 -115.56618309 156.37604749 C-118.41231604 155.93629331 -119.30727093 155.2901657 -121 153 C-121.36914349 150.94418049 -121.36914349 150.94418049 -121.36076355 148.53913879 C-121.36694954 147.16985985 -121.36694954 147.16985985 -121.3732605 145.7729187 C-121.36247467 144.77382477 -121.35168884 143.77473083 -121.34057617 142.74536133 C-121.34101425 141.69153763 -121.34145233 140.63771393 -121.34190369 139.55195618 C-121.33981035 136.06179403 -121.31645309 132.57210969 -121.29296875 129.08203125 C-121.28737475 126.66493492 -121.28310373 124.2478352 -121.28010559 121.83073425 C-121.26864147 115.46349729 -121.23916059 109.09646506 -121.20599365 102.72930908 C-121.17532665 96.2342811 -121.16160745 89.73922011 -121.14648438 83.24414062 C-121.11429258 70.49600632 -121.06365238 57.74801404 -121 45 C-117.08389516 44.82573244 -113.16878503 44.71915845 -109.25 44.625 C-108.13882813 44.57472656 -107.02765625 44.52445312 -105.8828125 44.47265625 C-102.81305422 44.41717869 -100.01796154 44.42877066 -97 45 C-94.42578125 47.87890625 -94.42578125 47.87890625 -93 51 C-87.71440881 54.99116069 -84.09063683 56.12135521 -77.54418945 56.19287109 C-76.56794365 56.20513733 -76.56794365 56.20513733 -75.57197571 56.21765137 C-73.41908676 56.24245146 -71.26626368 56.25901033 -69.11328125 56.2734375 C-68.37580343 56.27876118 -67.63832561 56.28408485 -66.87849998 56.28956985 C-62.97247737 56.31628225 -59.06648646 56.33566036 -55.16040039 56.35009766 C-51.93712867 56.3634173 -48.71449299 56.39123468 -45.49145508 56.43212891 C-41.59107141 56.48161093 -37.69126295 56.50623772 -33.79057884 56.51332474 C-32.3094778 56.52001196 -30.82838832 56.53516792 -29.34746742 56.55921555 C-18.96813453 56.82003573 -18.96813453 56.82003573 -9.6915741 52.6612854 C-7.77181226 50.87217829 -7.77181226 50.87217829 -5.76449585 47.86669922 C-3 45 -3 45 0.49757385 44.26742554 C1.85571676 44.24465353 3.21465617 44.25441186 4.57250977 44.29052734 C5.31783966 44.28632278 6.06316956 44.28211823 6.83108521 44.27778625 C9.28535943 44.27009963 11.73736272 44.30361835 14.19140625 44.3359375 C15.90104154 44.33484339 17.61067754 44.33053395 19.32029724 44.32315063 C23.8153106 44.30975207 28.30952376 44.32856365 32.80444336 44.35760498 C40.00212514 44.40300065 47.19937847 44.41859635 54.39716911 44.39805984 C56.91027428 44.39843288 59.42226166 44.42420321 61.93519592 44.45175171 C63.47575876 44.45243655 65.01632246 44.45213371 66.55688477 44.45068359 C67.2546553 44.46514023 67.95242584 44.47959686 68.67134094 44.49449158 C71.9964597 44.46751729 73.75080525 44.18211566 76.4651947 42.19839478 C78.34585088 39.95147517 78.34585088 39.95147517 78 36.375 C77.37716992 33.02745987 77.37716992 33.02745987 75.38470459 31.80899048 C72.14316825 30.70932721 69.26826541 30.71656826 65.84472656 30.68115234 C64.77583443 30.66608391 64.77583443 30.66608391 63.68534851 30.65071106 C61.33711531 30.61989535 58.98899605 30.60284865 56.640625 30.5859375 C55.00965394 30.56722453 53.37869255 30.54765102 51.7477417 30.5272522 C47.46032411 30.47593853 43.17287513 30.43630876 38.88531494 30.39910889 C34.50809978 30.35906442 30.13101509 30.3079741 25.75390625 30.2578125 C17.1693534 30.1610622 8.58474666 30.07767573 0 30 C0 20.1 0 10.2 0 0 Z " fill="#ECF3F4" transform="translate(290,324)"/>
<path d="M0 0 C6.93 0 13.86 0 21 0 C21.66 1.65 22.32 3.3 23 5 C26.08421003 7.05614002 26.76475352 7.25322163 30.25610352 7.28710938 C31.53741905 7.30723083 31.53741905 7.30723083 32.84461975 7.32775879 C34.22284157 7.33567444 34.22284157 7.33567444 35.62890625 7.34375 C36.57434799 7.3583728 37.51978973 7.37299561 38.49388123 7.38806152 C42.54322906 7.45040772 46.5927297 7.49000633 50.64233398 7.53173828 C53.59635665 7.5653902 56.55005001 7.6105175 59.50390625 7.65625 C60.42474503 7.6615271 61.3455838 7.6668042 62.29432678 7.67224121 C63.14538498 7.68565552 63.99644318 7.69906982 64.87329102 7.71289062 C65.62369156 7.72018188 66.3740921 7.72747314 67.14723206 7.73498535 C69 8 69 8 71 10 C71.24050903 11.91091919 71.24050903 11.91091919 71.22705078 14.26611328 C71.22689972 15.14687531 71.22674866 16.02763733 71.22659302 16.93508911 C71.21627045 17.88721283 71.20594788 18.83933655 71.1953125 19.8203125 C71.19106766 21.28100662 71.19106766 21.28100662 71.18673706 22.77120972 C71.17551913 25.88926349 71.1504117 29.00703268 71.125 32.125 C71.11497228 34.23567294 71.10584607 36.34635038 71.09765625 38.45703125 C71.07557458 43.63811835 71.04208129 48.81903885 71 54 C43.72313026 54.16345939 16.44633382 54.28693082 -10.8309269 54.3626852 C-23.49601225 54.3987929 -36.16079345 54.44802796 -48.82568359 54.52807617 C-59.86330725 54.59780607 -70.90071065 54.64299809 -81.93854845 54.65861946 C-87.7841349 54.66775222 -93.62909121 54.68924269 -99.47447586 54.7401104 C-104.97556907 54.78759454 -110.4757721 54.8022866 -115.97705078 54.79175377 C-117.9967266 54.79368085 -120.01643192 54.80762302 -122.03593063 54.83443832 C-124.79373547 54.86926331 -127.54817846 54.86090222 -130.30606079 54.84178162 C-131.50549393 54.87236645 -131.50549393 54.87236645 -132.72915804 54.90356916 C-136.08341415 54.84068825 -138.16532301 54.73070021 -140.74779963 52.469926 C-142.32742882 50.59779453 -142.32742882 50.59779453 -143.65573633 48.73666531 C-146.14609898 45.51934529 -149.1258998 44.05940478 -153 43 C-157.90690976 42.45525643 -162.78872166 42.45999827 -167.71875 42.50390625 C-169.14546787 42.50375098 -170.57218616 42.50225732 -171.99890137 42.49949646 C-174.97781195 42.4981179 -177.95623789 42.51057822 -180.93505859 42.53344727 C-184.7344884 42.56183083 -188.53311414 42.55908755 -192.33260345 42.54635715 C-195.27535755 42.53936924 -198.21792903 42.5472245 -201.16065979 42.55961418 C-202.56074826 42.56409854 -203.96085655 42.56449214 -205.36094666 42.56054878 C-218.06740949 42.46979234 -218.06740949 42.46979234 -228.875 48.5 C-231.08585035 51.00286168 -231.08585035 51.00286168 -233 54 C-235.43017578 54.34057617 -235.43017578 54.34057617 -238.4453125 54.29296875 C-239.52167969 54.28330078 -240.59804687 54.27363281 -241.70703125 54.26367188 C-242.83496094 54.23853516 -243.96289062 54.21339844 -245.125 54.1875 C-246.26066406 54.17396484 -247.39632812 54.16042969 -248.56640625 54.14648438 C-251.37807387 54.11104319 -254.18880417 54.06163517 -257 54 C-257.05059881 47.77038023 -257.08569062 41.5408132 -257.10986328 35.31103516 C-257.11993751 33.1905723 -257.13359733 31.07012339 -257.15087891 28.94970703 C-257.17506489 25.90654057 -257.18646869 22.86355734 -257.1953125 19.8203125 C-257.20563507 18.86818878 -257.21595764 17.91606506 -257.22659302 16.93508911 C-257.22674408 16.05432709 -257.22689514 15.17356506 -257.22705078 14.26611328 C-257.231492 13.48889923 -257.23593323 12.71168518 -257.24050903 11.91091919 C-257 10 -257 10 -255 8 C-253.15319836 7.74864298 -253.15319836 7.74864298 -250.86073494 7.74666691 C-249.98837074 7.74105151 -249.11600655 7.73543612 -248.21720707 7.72965056 C-247.25302416 7.73363165 -246.28884125 7.73761274 -245.29544067 7.74171448 C-244.275666 7.73803877 -243.25589132 7.73436307 -242.20521438 7.73057598 C-238.76582867 7.72054392 -235.32660298 7.7247571 -231.88720703 7.72875977 C-229.43037747 7.72437571 -226.9735494 7.71907474 -224.51672363 7.71292114 C-219.21507802 7.70139507 -213.91347469 7.69576741 -208.61182022 7.69503975 C-200.94210057 7.69371589 -193.27245414 7.67861981 -185.6027603 7.65954458 C-173.15429065 7.62868179 -160.70581916 7.60452624 -148.25732422 7.58666992 C-147.51185077 7.58559724 -146.76637732 7.58452456 -145.99831377 7.58341938 C-137.6817388 7.57160003 -129.36516309 7.56139508 -121.04858398 7.55297852 C-118.03352863 7.54990469 -115.01847328 7.54681589 -112.00341797 7.54370117 C-111.25945613 7.54293583 -110.5154943 7.54217049 -109.74898817 7.54138196 C-97.35037879 7.52830686 -84.95182231 7.5036756 -72.5532521 7.46995777 C-64.90183897 7.44964884 -57.25053895 7.43938097 -49.59909867 7.44194698 C-43.73808987 7.44310301 -37.87718235 7.42897358 -32.01620483 7.40913773 C-29.60872921 7.40352105 -27.20123536 7.40306866 -24.79375839 7.40807533 C-21.51514357 7.41418035 -18.23709224 7.40205053 -14.95852661 7.38526917 C-13.99880514 7.39148098 -13.03908367 7.3976928 -12.05027974 7.40409285 C-7.06808551 7.37007764 -7.06808551 7.37007764 -2.44009209 5.72592068 C-0.65060869 3.83581486 -0.65060869 3.83581486 0 0 Z " fill="#EDF4F5" transform="translate(426,255)"/>
<path d="M0 0 C0.87398437 -0.01933594 1.74796875 -0.03867187 2.6484375 -0.05859375 C12.86750705 1.64458451 19.26967354 9.54648202 26.18359375 16.5703125 C27.37965196 17.77130047 28.57652945 18.97147303 29.77418518 20.17086792 C32.27052847 22.67481942 34.76029503 25.18505814 37.24487305 27.70068359 C40.43299322 30.92856966 43.63196397 34.14541818 46.83518887 37.35830879 C49.89237623 40.42544964 52.94457696 43.49753144 55.99609375 46.5703125 C56.57924284 47.15685734 57.16239193 47.74340218 57.7632122 48.3477211 C59.40536136 50.00141372 61.04396658 51.65853055 62.68139648 53.31689453 C63.17017273 53.80835968 63.65894897 54.29982483 64.16253662 54.80618286 C68.52280337 59.23668959 68.52280337 59.23668959 68.875 63.375 C68.625 66.4375 68.625 66.4375 67.25 68.25 C63.9288161 70.67701901 61.7248392 71.04488359 57.625 70.4375 C54.64983505 68.42127251 52.16814167 65.96646058 49.625 63.4375 C48.86960937 62.69628906 48.11421875 61.95507812 47.3359375 61.19140625 C45.41611828 59.28854657 43.51358639 57.37129192 41.625 55.4375 C37.73934756 57.01855194 35.13415136 59.66524372 32.24560547 62.60571289 C31.45950897 63.39378075 31.45950897 63.39378075 30.65753174 64.19776917 C28.93110198 65.93067584 27.21175688 67.67044419 25.4921875 69.41015625 C24.29251237 70.61610307 23.09231978 71.82153533 21.89163208 73.026474 C18.73500814 76.19639069 15.58400239 79.37182873 12.43457031 82.54888916 C7.38757386 87.6390373 2.33381359 92.72244846 -2.72317123 97.80267143 C-4.49046101 99.58020419 -6.25431037 101.36109954 -8.01785278 103.14234924 C-9.09658523 104.22790747 -10.17542652 105.31335755 -11.25439453 106.39868164 C-11.74585968 106.89688416 -12.23732483 107.39508667 -12.74368286 107.90838623 C-15.85945252 111.0346192 -17.27331156 112.33549181 -21.75 112.75 C-25.375 112.4375 -25.375 112.4375 -27.8125 110.8125 C-29.83933934 107.7317042 -29.76173986 106.07974991 -29.375 102.4375 C-27.8139801 100.07522583 -27.8139801 100.07522583 -25.59985352 97.79345703 C-24.77373566 96.93012756 -23.9476178 96.0667981 -23.09646606 95.17730713 C-22.19838226 94.27317078 -21.30029846 93.36903442 -20.375 92.4375 C-19.03524612 91.06510162 -19.03524612 91.06510162 -17.66842651 89.66497803 C-14.72885728 86.66635794 -11.75418308 83.70373275 -8.77734375 80.7421875 C-7.69139418 79.65810871 -6.60566941 78.57380471 -5.52015686 77.48928833 C-2.69648922 74.66939399 0.13017058 71.85251855 2.95751953 69.03631592 C5.85569687 66.14846584 8.75095795 63.2576951 11.64648438 60.3671875 C17.30318038 54.72113701 22.96304888 49.07828055 28.625 43.4375 C23.49302183 37.37310057 18.12147771 31.61440775 12.5625 25.9375 C11.23508789 24.54144531 11.23508789 24.54144531 9.88085938 23.1171875 C8.59211914 21.80621094 8.59211914 21.80621094 7.27734375 20.46875 C6.50382568 19.67017578 5.73030762 18.87160156 4.93334961 18.04882812 C2.79361348 16.23160063 2.79361348 16.23160063 0.42584801 16.41921234 C-3.83121844 17.96692868 -6.36979292 20.91634509 -9.49691772 24.11877441 C-10.20270545 24.82537783 -10.90849317 25.53198125 -11.6356684 26.25999689 C-14.00418534 28.63598976 -16.35808427 31.02595883 -18.71240234 33.41601562 C-20.40528996 35.11985119 -22.09910449 36.82276623 -23.79377747 38.52482605 C-27.44435479 42.19484486 -31.08893587 45.87071006 -34.7285881 49.55155945 C-39.99551266 54.87754977 -45.27631559 60.18960886 -50.56118818 65.49778372 C-59.14117616 74.11579958 -67.71439054 82.74051592 -76.28125 91.37158203 C-77.05031901 92.14640485 -77.05031901 92.14640485 -77.83492477 92.93688065 C-83.55482852 98.69987626 -89.27309813 104.46448926 -94.98956299 110.230896 C-97.06235904 112.32175538 -99.1351703 114.41259969 -101.20800781 116.50341797 C-101.71948661 117.01934008 -102.2309654 117.53526219 -102.75794356 118.0668183 C-111.28681208 126.66913049 -119.82731854 135.25978518 -128.37703097 143.8413806 C-133.64978686 149.13480425 -138.91224013 154.4380808 -144.16186346 159.75444829 C-148.18481312 163.82690209 -152.22310701 167.88385157 -156.26726341 171.93523598 C-157.92412843 173.60015145 -159.57580696 175.2702466 -161.22190666 176.9458065 C-163.46736347 179.22999433 -165.73054314 181.49502767 -167.99911499 183.75622559 C-168.64844856 184.42576468 -169.29778212 185.09530377 -169.96679246 185.78513193 C-173.93313949 189.69019108 -176.56606296 191.34413052 -182.375 191.4375 C-184.6875 190.9375 -184.6875 190.9375 -186.375 189.4375 C-187.8125 186.125 -187.8125 186.125 -188.375 182.4375 C-186.15113466 177.52134183 -182.22082759 174.00116855 -178.44889832 170.2507019 C-177.74003033 169.53800837 -177.03116233 168.82531483 -176.3008135 168.09102452 C-173.92428216 165.70417445 -171.54066243 163.32453356 -169.15698242 160.94482422 C-167.45160279 159.23509753 -165.74664168 157.5249533 -164.04206848 155.81442261 C-159.89147999 151.65182487 -155.73616793 147.49398065 -151.57840129 143.33855568 C-148.19877979 139.96071799 -144.82093092 136.58111748 -141.44433022 133.20026016 C-140.96355617 132.71889092 -140.48278212 132.23752169 -139.98743916 131.7415655 C-139.01071897 130.76363355 -138.03399996 129.78570041 -137.05728213 128.80776609 C-127.90001654 119.63962727 -118.7362439 110.4780139 -109.57049177 101.31836058 C-101.18733801 92.94037673 -92.81242752 84.55420771 -84.44136926 76.16413985 C-75.84303652 67.54643144 -67.23915932 58.93429498 -58.62925416 50.32814801 C-53.79667617 45.49748235 -48.96632461 40.66463972 -44.14177513 35.82595444 C-39.60568791 31.27671112 -35.06181694 26.73533884 -30.51261711 22.19920731 C-28.84351531 20.53247612 -27.17697313 18.86317717 -25.51317978 17.19114685 C-23.24300161 14.91054123 -20.96379191 12.639361 -18.68205261 10.37033081 C-17.69580022 9.37301699 -17.69580022 9.37301699 -16.68962353 8.35555542 C-11.75679881 3.4804201 -7.21590801 0.01058051 0 0 Z " fill="#010203" transform="translate(244.375,16.5625)"/>
<path d="M0 0 C68.31 0 136.62 0 207 0 C207 9.9 207 19.8 207 30 C203.90077148 30.01458252 200.80154297 30.02916504 197.60839844 30.04418945 C187.37838177 30.09448471 177.14851813 30.16107077 166.91865158 30.23571491 C160.71514937 30.28047773 154.51171374 30.31972091 148.30810547 30.34643555 C142.32335116 30.37240938 136.33885226 30.41276998 130.35425568 30.46318626 C128.06890281 30.47989505 125.78350573 30.49138426 123.49810028 30.49761391 C120.30151984 30.50721125 117.10559876 30.53521875 113.90917969 30.56762695 C112.96043472 30.56619186 112.01168976 30.56475677 111.03419495 30.5632782 C106.06099648 30.62422437 106.06099648 30.62422437 101.44317627 32.27702332 C99.64959941 34.16339622 99.64959941 34.16339622 99 38 C92.4 38 85.8 38 79 38 C78.01 36.02 77.02 34.04 76 32 C72.48835795 30.82945265 69.66503216 30.83933774 65.95825195 30.79467773 C65.24580322 30.78477814 64.53335449 30.77487854 63.79931641 30.76467896 C61.44567176 30.733105 59.09200694 30.70832281 56.73828125 30.68359375 C55.10588559 30.66302067 53.47349521 30.64202411 51.84111023 30.62062073 C47.54544354 30.56543656 43.24972906 30.51601117 38.95397949 30.46777344 C34.57018788 30.41753173 30.18646562 30.3618596 25.80273438 30.30664062 C17.20187998 30.19910373 8.60096664 30.09815069 0 30 C0 20.1 0 10.2 0 0 Z " fill="#9B9B9B" transform="translate(290,324)"/>
<path d="M0 0 C2.79934525 1.27321659 4.81197577 2.57523633 6.9453125 4.78515625 C7.72455078 5.58083008 7.72455078 5.58083008 8.51953125 6.39257812 C9.04933594 6.94365234 9.57914062 7.49472656 10.125 8.0625 C14.62626626 13.23238894 14.62626626 13.23238894 20.875 15.125 C23.85731272 15.15415651 23.85731272 15.15415651 25.99316406 14.32055664 C28 14 28 14 29.64746094 15.07983398 C30.17114258 15.62969971 30.69482422 16.17956543 31.234375 16.74609375 C32.09482422 17.63071289 32.09482422 17.63071289 32.97265625 18.53320312 C33.85244141 19.47583008 33.85244141 19.47583008 34.75 20.4375 C35.35199219 21.06205078 35.95398438 21.68660156 36.57421875 22.33007812 C38.0609301 23.87578596 39.5319865 25.4365232 41 27 C40.4740625 27.7734375 40.4740625 27.7734375 39.9375 28.5625 C38.55065004 32.1683099 39.03704919 34.25704948 40 38 C41.93792763 40.75145307 44.29292871 42.99134765 46.72290039 45.30883789 C47.4253035 46.0024794 48.1277066 46.69612091 48.85139465 47.41078186 C50.37426711 48.91086789 51.90403055 50.40398342 53.4398365 51.89082527 C55.86955363 54.24386256 58.27993864 56.61523238 60.68614197 58.99229431 C65.7950537 64.03268619 70.92703415 69.04918454 76.0625 74.0625 C82.01707336 79.87554558 87.96182307 85.69794356 93.88183403 91.54620171 C96.25867216 93.88410598 98.65283892 96.20323926 101.04811096 98.52223206 C102.50178532 99.9541141 103.95462558 101.38684361 105.40649414 102.82055664 C106.07817627 103.46124084 106.7498584 104.10192505 107.44189453 104.76202393 C111.86788136 109.18491321 111.86788136 109.18491321 112.53257751 113.28565979 C111.79556553 117.04192287 110.14602958 118.53775719 107.40625 121.1796875 C106.94013306 121.63731476 106.47401611 122.09494202 105.99377441 122.56643677 C104.50938773 124.01737537 103.00549452 125.44600712 101.5 126.875 C100.48691764 127.85797157 99.47518211 128.84233325 98.46484375 129.828125 C95.99195644 132.23504588 93.5011325 134.62240368 91 137 C90.41879395 136.2565332 89.83758789 135.51306641 89.23876953 134.74707031 C87.30750135 132.3773179 85.33675461 130.2077638 83.1796875 128.046875 C82.47972656 127.345625 81.77976562 126.644375 81.05859375 125.921875 C80.33800781 125.20515625 79.61742187 124.4884375 78.875 123.75 C78.14667969 123.0178125 77.41835938 122.285625 76.66796875 121.53125 C75.97058594 120.83515625 75.27320313 120.1390625 74.5546875 119.421875 C73.92030762 118.78862305 73.28592773 118.15537109 72.63232422 117.50292969 C71.05660055 115.91295063 71.05660055 115.91295063 69 115 C69 116.65 69 118.3 69 120 C68.67 120 68.34 120 68 120 C67.79375 118.989375 67.5875 117.97875 67.375 116.9375 C66.50014383 113.73182264 65.30270277 112.11531133 62.9375 109.8125 C59.21208439 105.86266177 59.35800142 102.01948179 59.3984375 96.76953125 C59.20217193 93.91327367 59.20217193 93.91327367 57.36328125 91.6875 C54.4064899 89.57620436 52.41653064 89.44154756 48.8125 89.1875 C42.11568567 88.34945446 37.46773055 86.14005893 33 81 C32.90638687 80.41341614 32.81277374 79.82683228 32.71632385 79.22247314 C31.65634493 75.93377253 29.34265058 73.95015715 26.92944336 71.58886719 C26.40260452 71.06159027 25.87576569 70.53431335 25.33296204 69.99105835 C23.59227327 68.25245724 21.84120486 66.52471944 20.08984375 64.796875 C18.87992682 63.59255409 17.67067116 62.3875685 16.46205139 61.1819458 C13.28094315 58.01228577 10.09092847 54.85173838 6.89898682 51.69299316 C3.64273447 48.46744202 0.39496988 45.23336976 -2.85351562 42 C-9.22739016 35.65828921 -15.61070451 29.32617119 -22 23 C-18.7498913 19.1511826 -15.49349707 15.36650119 -11.9140625 11.81640625 C-11.21152344 11.11708984 -10.50898438 10.41777344 -9.78515625 9.69726562 C-9.07230469 8.99279297 -8.35945313 8.28832031 -7.625 7.5625 C-6.88894531 6.83095703 -6.15289062 6.09941406 -5.39453125 5.34570312 C-3.59863926 3.56147277 -1.80044015 1.77963876 0 0 Z " fill="#5FB6FD" transform="translate(284,71)"/>
<path d="M0 0 C33.33 0 66.66 0 101 0 C101.12032643 26.83279345 101.12032643 26.83279345 101.14648438 38.24414062 C101.16443875 46.03985699 101.18571037 53.83546796 101.22631836 61.63110352 C101.25884261 67.91398463 101.27683844 74.19675276 101.28463173 80.47971153 C101.2901877 82.88037584 101.3010367 85.28103377 101.31719017 87.68165016 C101.33887195 91.03635798 101.34197077 94.39059506 101.34057617 97.74536133 C101.35675491 99.24400223 101.35675491 99.24400223 101.3732605 100.7729187 C101.36913651 101.68577133 101.36501251 102.59862396 101.36076355 103.53913879 C101.36352893 104.33280255 101.36629431 105.12646631 101.36914349 105.94418049 C100.88881381 108.61921379 100.14565806 109.35071465 98 111 C95.56273109 111.37259549 95.56273109 111.37259549 92.60206318 111.36914349 C90.9106234 111.3781032 90.9106234 111.3781032 89.18501312 111.38724393 C87.94086629 111.3785054 86.69671946 111.36976688 85.41487122 111.36076355 C84.09740408 111.36332682 82.77993695 111.3658901 81.42254657 111.36853105 C77.75791949 111.37525701 74.09355415 111.36321459 70.42896044 111.34819686 C66.48010096 111.33527102 62.53125688 111.33962351 58.5823822 111.34190369 C51.73812663 111.34347861 44.8939567 111.33404655 38.04972267 111.31719017 C28.1540588 111.29283439 18.25843644 111.28499841 8.36274584 111.2812262 C-7.69137978 111.27465633 -23.74545973 111.25468067 -39.79956055 111.22631836 C-55.39688895 111.19879163 -70.99420496 111.17755127 -86.59155273 111.16479492 C-87.55257714 111.16400675 -88.51360155 111.16321858 -89.5037479 111.16240653 C-94.32480687 111.15849148 -99.14586592 111.15470034 -103.96692502 111.15097082 C-143.977982 111.11985825 -183.98898799 111.06700791 -224 111 C-224 110.67 -224 110.34 -224 110 C-125.99 110 -27.98 110 73 110 C73 100.76 73 91.52 73 82 C68.05 84.97 68.05 84.97 63 88 C59.60498047 88.76049805 59.60498047 88.76049805 56.6171875 88.76171875 C55.51246094 88.76494141 54.40773438 88.76816406 53.26953125 88.77148438 C52.14933594 88.74376953 51.02914063 88.71605469 49.875 88.6875 C48.18310547 88.70973633 48.18310547 88.70973633 46.45703125 88.73242188 C38.45492637 88.65286879 33.15653771 87.14999507 27.44897461 81.45141602 C22.5114336 75.83745189 22.59677575 70.7311624 22.65625 63.52734375 C23.13437358 58.62114386 24.59144075 55.52395318 28 52 C35.11717101 46.44860661 41.12475065 46.78771134 49.8125 46.75 C50.98876953 46.729375 52.16503906 46.70875 53.37695312 46.6875 C64.06479483 46.63916606 64.06479483 46.63916606 69 50 C69.99 50.66 70.98 51.32 72 52 C72.33 35.17 72.66 18.34 73 1 C48.91 1 24.82 1 0 1 C0 0.67 0 0.34 0 0 Z " fill="#D8E5E9" transform="translate(396,369)"/>
<path d="M0 0 C3.25642882 0.94979174 4.52781106 2.06032317 7.0625 4.25 C10.92996747 7.53307935 13.72104577 8.43175658 18.75 9 C22.67598902 9.45864358 24.78506378 9.75099833 28.25 11.75 C30.54011868 15.83949764 30.32424366 19.25757147 30.48828125 23.87890625 C31.22278164 28.17937801 33.45747423 30.01997423 36.453125 33.015625 C38.62522047 35.62652763 38.93437746 37.50997246 38.63671875 40.84375 C37.40342709 44.77817738 34.93381149 48.01719399 32 50.875 C31.34 50.875 30.68 50.875 30 50.875 C30.04640625 51.68324219 30.0928125 52.49148437 30.140625 53.32421875 C30.17671875 54.39285156 30.2128125 55.46148437 30.25 56.5625 C30.29640625 57.61824219 30.3428125 58.67398438 30.390625 59.76171875 C29.89843419 63.68447954 28.91232847 65.22175841 26 67.875 C23.08203125 68.5546875 23.08203125 68.5546875 19.8125 68.75 C14.77061679 69.31396904 12.02144991 70.16032238 8.1875 73.5 C5.4487607 75.87890494 3.61188501 77.43668035 -0.0625 77.75 C-3.64038281 77.44131991 -5.189511 75.98753716 -7.6875 73.5 C-12.0253857 69.19661041 -16.10153067 68.87264181 -22.046875 68.45703125 C-25.6784478 67.74128476 -26.86487672 66.87924405 -29 63.875 C-29.58203125 60.95703125 -29.58203125 60.95703125 -29.8125 57.6875 C-30.55912434 51.46330459 -32.46025953 48.44332353 -36.484375 43.78515625 C-38 41.875 -38 41.875 -38.875 38.875 C-37.92520826 35.61857118 -36.81467683 34.34718894 -34.625 31.8125 C-30.58951762 27.05726225 -30.01320746 22.90982445 -29.58203125 16.79296875 C-28.86257492 13.18602999 -27.98326405 12.00020148 -25 9.875 C-22.08203125 9.29296875 -22.08203125 9.29296875 -18.8125 9.0625 C-12.58830459 8.31587566 -9.56832353 6.41474047 -4.91015625 2.390625 C-3 0.875 -3 0.875 0 0 Z " fill="#030303" transform="translate(314,150.125)"/>
<path d="M0 0 C1.20482529 -0.01583633 2.40965057 -0.03167267 3.65098572 -0.04798889 C5.5979409 -0.04054909 5.5979409 -0.04054909 7.58422852 -0.03295898 C8.93417286 -0.0381962 10.28411353 -0.04447304 11.63404846 -0.05174255 C14.46112302 -0.06214236 17.28769412 -0.05759278 20.11474609 -0.04296875 C23.73108309 -0.02578973 27.34582989 -0.0492639 30.9619894 -0.08445835 C33.74939934 -0.10646103 36.53643052 -0.10498411 39.32390022 -0.09669304 C41.3030881 -0.0954781 43.28225259 -0.1153883 45.26133728 -0.13563538 C55.24676272 -0.03203373 55.24676272 -0.03203373 58.35083008 2.8371582 C60.54429301 6.36844167 60.58802358 9.32850403 60.33813477 13.34594727 C60.31557617 14.03881836 60.29301758 14.73168945 60.26977539 15.44555664 C60.21126138 17.142463 60.12158956 18.83824588 60.02563477 20.53344727 C59.36966309 20.5532666 58.71369141 20.57308594 58.0378418 20.59350586 C55.07502408 20.68857234 52.11292945 20.79832479 49.15063477 20.90844727 C47.60182617 20.95485352 47.60182617 20.95485352 46.02172852 21.00219727 C45.0355957 21.04086914 44.04946289 21.07954102 43.03344727 21.11938477 C42.12224121 21.15080566 41.21103516 21.18222656 40.2722168 21.21459961 C37.82632291 21.33227238 37.82632291 21.33227238 36.02563477 23.53344727 C35.55349803 27.59440684 35.55349803 27.59440684 36.02563477 31.53344727 C37.82819363 33.71444391 39.3517209 34.42949827 42.13549805 34.85888672 C44.68439325 35.05371812 47.22021947 35.15489148 49.77563477 35.22094727 C50.66379883 35.25510742 51.55196289 35.28926758 52.46704102 35.32446289 C54.6531128 35.40673441 56.83879428 35.47594899 59.02563477 35.53344727 C59.10656606 38.13823609 59.16608911 40.7405138 59.21313477 43.34594727 C59.23827148 44.08393555 59.2634082 44.82192383 59.28930664 45.58227539 C59.36324188 51.02883805 59.36324188 51.02883805 57.88035583 53.24525452 C55.23607504 55.08183437 53.26106687 54.92151138 50.05712891 54.9375 C48.82897964 54.95018417 47.60083038 54.96286835 46.33546448 54.97593689 C44.99390495 54.97388536 43.65234657 54.97089725 42.31079102 54.96704102 C40.93460329 54.97160212 39.55841784 54.97690748 38.18223572 54.98292542 C35.29799141 54.99186074 32.41402392 54.98942919 29.52978516 54.97949219 C25.83620015 54.96800596 22.14357167 54.9882049 18.45011234 55.01740932 C15.60788416 55.03576991 12.76588521 55.03547921 9.92361259 55.0297718 C8.56206356 55.02961855 7.20049903 55.03566682 5.83900642 55.04806328 C3.93390275 55.06296428 2.02864181 55.04967074 0.12353516 55.03515625 C-0.95995712 55.03499008 -2.0434494 55.03482391 -3.15977478 55.03465271 C-6.67172928 54.40926484 -7.85781137 53.36463162 -9.97436523 50.53344727 C-10.26551733 47.79661756 -10.35758941 45.49404687 -10.22436523 42.78344727 C-10.20631836 42.08606445 -10.18827148 41.38868164 -10.16967773 40.67016602 C-10.12275077 38.95733187 -10.05101128 37.24520903 -9.97436523 35.53344727 C-9.38945312 35.52410156 -8.80454102 35.51475586 -8.2019043 35.50512695 C-5.54187944 35.45131447 -2.88359301 35.36769277 -0.22436523 35.28344727 C0.69602539 35.26926758 1.61641602 35.25508789 2.56469727 35.24047852 C7.95112989 35.09501559 7.95112989 35.09501559 12.63891602 32.67797852 C14.5254046 29.76056378 14.53297708 27.9398885 14.02563477 24.53344727 C12.39165098 22.32487577 11.47844777 21.61976002 8.75732422 21.10107422 C7.89324951 21.07489014 7.0291748 21.04870605 6.13891602 21.02172852 C5.20112305 20.9862793 4.26333008 20.95083008 3.29711914 20.91430664 C2.3206543 20.89174805 1.34418945 20.86918945 0.33813477 20.84594727 C-0.64993164 20.81178711 -1.63799805 20.77762695 -2.65600586 20.74243164 C-5.09534576 20.65994189 -7.53432587 20.59079659 -9.97436523 20.53344727 C-10.08255184 17.94898953 -10.1617376 15.36907374 -10.22436523 12.78344727 C-10.25788086 12.05383789 -10.29139648 11.32422852 -10.32592773 10.57250977 C-10.38711546 7.20718507 -10.37193543 5.06558014 -8.323349 2.32362366 C-5.35176961 0.05896293 -3.71203688 0.02171318 0 0 Z " fill="#FDDF76" transform="translate(214.974365234375,311.466552734375)"/>
<path d="M0 0 C4.31839722 1.98195096 7.09102444 4.23078279 9.71875 8.2734375 C9.96625 8.9953125 10.21375 9.7171875 10.46875 10.4609375 C12.29865063 13.11429341 14.62091919 13.15415035 17.63671875 13.80078125 C24.57581621 15.37607354 28.64561429 19.70794078 32.71875 25.2734375 C33.75044938 28.36853563 33.9521872 30.71104041 34.03125 33.9609375 C34.08732422 35.45173828 34.08732422 35.45173828 34.14453125 36.97265625 C33.0872167 45.16926908 28.09721936 50.57637022 22.40625 56.2109375 C21.76751953 56.88189453 21.12878906 57.55285156 20.47070312 58.24414062 C17.4920591 61.2288204 15.19346995 63.08536102 11.23828125 64.65234375 C7.36289773 64.2351271 6.74373606 63.74528572 3.98291016 61.22558594 C3.28126236 60.58694107 2.57961456 59.9482962 1.85670471 59.29029846 C-1.49141486 56.13181637 -4.77773948 52.91979502 -8.02734375 49.66015625 C-8.72392593 48.96453079 -9.42050812 48.26890533 -10.13819885 47.55220032 C-11.59392999 46.09714404 -13.0484218 44.64084687 -14.50170898 43.18334961 C-16.73372268 40.94592855 -18.97109135 38.71396073 -21.20898438 36.48242188 C-22.62792534 35.06282096 -24.04655654 33.64291033 -25.46484375 32.22265625 C-26.13454697 31.55497726 -26.80425018 30.88729828 -27.49424744 30.1993866 C-28.10901443 29.58146744 -28.72378143 28.96354828 -29.35717773 28.3269043 C-29.89930405 27.78398239 -30.44143036 27.24106049 -30.99998474 26.6816864 C-32.8099663 24.69232118 -33.27872705 23.28657627 -33.7890625 20.62890625 C-33.01101908 15.48783474 -29.83202704 13.06553543 -26.15625 9.5859375 C-25.15851562 8.59110352 -25.15851562 8.59110352 -24.140625 7.57617188 C-17.0484743 0.67175458 -9.96025044 -3.17227154 0 0 Z " fill="#010202" transform="translate(73.28125,240.7265625)"/>
<path d="M0 0 C2.16601562 1.46337891 2.16601562 1.46337891 4.40625 3.6015625 C5.27507812 4.42430664 6.14390625 5.24705078 7.0390625 6.09472656 C8.02765604 7.06150299 9.01453182 8.03003799 10 9 C10.54688477 9.53379272 11.09376953 10.06758545 11.65722656 10.61755371 C15.3339389 14.21100904 18.97827654 17.83560647 22.60742188 21.47705078 C24.52098579 23.39604535 26.43993077 25.30954521 28.359375 27.22265625 C29.58365467 28.44759559 30.8076247 29.67284449 32.03125 30.8984375 C32.60202271 31.46718597 33.17279541 32.03593445 33.76086426 32.62191772 C39.86218347 38.75965127 39.86218347 38.75965127 40.4375 43.9375 C40.33618214 47.17371169 40.12046898 47.84941377 38 50.5 C30.46101616 54.26949192 21.10113028 51.05676217 13.25 49.5 C10.83916821 49.02803822 8.42773191 48.559151 6.015625 48.09375 C4.42669434 47.77954102 4.42669434 47.77954102 2.80566406 47.45898438 C-0.18409449 46.89236934 -0.18409449 46.89236934 -4 47 C-3.42443359 47.54414551 -2.84886719 48.08829102 -2.25585938 48.64892578 C0.34508438 51.12508742 2.92247947 53.62447511 5.5 56.125 C6.40621094 56.9809375 7.31242187 57.836875 8.24609375 58.71875 C9.10332031 59.55664062 9.96054688 60.39453125 10.84375 61.2578125 C11.63974609 62.0223877 12.43574219 62.78696289 13.25585938 63.57470703 C15.45545158 66.63332251 15.49707268 68.30754929 15 72 C12.9375 74.9375 12.9375 74.9375 10 77 C6.07471062 77.18868633 4.07927128 76.80787974 0.9175415 74.44119263 C-1.45929201 72.25298246 -3.71623295 69.98374531 -5.9609375 67.66015625 C-6.7921109 66.82286484 -7.6232843 65.98557343 -8.47964478 65.12290955 C-11.12579427 62.44985317 -13.75008316 59.75639241 -16.375 57.0625 C-18.16403457 55.25194004 -19.95438501 53.4426793 -21.74609375 51.63476562 C-25.00821117 48.33051654 -28.26864028 45.02479345 -31.50927734 41.69946289 C-32.16100922 41.0318544 -32.81274109 40.36424591 -33.48422241 39.67640686 C-35.55358467 37.38775112 -35.97474116 36.23238129 -36.3125 33.125 C-36 30 -36 30 -34.5 27.625 C-29.31951455 24.25768446 -22.28575772 26.14622378 -16.54296875 27.3125 C-15.87332596 27.44567627 -15.20368317 27.57885254 -14.51374817 27.71606445 C-12.40348078 28.13686994 -10.29546447 28.56782015 -8.1875 29 C-6.06138682 29.43047111 -3.9348669 29.85873439 -1.80769348 30.28393555 C0.10932267 30.66792824 2.02503756 31.05840039 3.94067383 31.44921875 C6.97400373 32.08859247 6.97400373 32.08859247 10 32 C9.42967041 31.43490723 8.85934082 30.86981445 8.27172852 30.28759766 C5.69939325 27.73599645 3.13090663 25.18055542 0.5625 22.625 C-0.33533203 21.73554688 -1.23316406 20.84609375 -2.15820312 19.9296875 C-3.01220703 19.07890625 -3.86621094 18.228125 -4.74609375 17.3515625 C-5.53685303 16.56604004 -6.3276123 15.78051758 -7.14233398 14.97119141 C-9.64266458 12.31806101 -9.9643946 11.32044857 -10.375 7.625 C-10 4 -10 4 -7.8125 1.5625 C-4.70944764 -0.16141798 -3.47261379 -0.43114157 0 0 Z " fill="#020405" transform="translate(157,147)"/>
<path d="M0 0 C2.16685312 0.90424821 4.28325067 1.87801414 6.40023804 2.89346313 C7.57032661 3.4359948 7.57032661 3.4359948 8.76405334 3.98948669 C11.2358933 5.13938257 13.6987716 6.30719381 16.16195679 7.47549438 C17.80139039 8.24032559 19.44136105 9.0040067 21.08187866 9.76651001 C45.89949872 21.33803632 45.89949872 21.33803632 48.84945679 24.28799438 C49.28695679 27.10049438 49.28695679 27.10049438 48.84945679 30.28799438 C46.41052318 33.5877281 45.00027659 35.09211016 40.91195679 35.78799438 C37.84945679 35.28799438 37.84945679 35.28799438 34.72445679 33.66299438 C32.07046416 31.99417477 32.07046416 31.99417477 30.02914429 32.85049438 C27.01518613 34.83819439 24.59604508 37.33122067 22.09945679 39.91299438 C21.59285522 40.42861938 21.08625366 40.94424438 20.56430054 41.47549438 C19.32141777 42.74182777 18.08480403 44.01430878 16.84945679 45.28799438 C18.15100685 49.36763719 18.15100685 49.36763719 19.84945679 53.28799438 C20.38704519 57.31990744 20.15705639 58.84989798 17.78695679 62.22549438 C14.84945679 64.28799438 14.84945679 64.28799438 11.22445679 64.35049438 C7.34501775 63.1291895 6.93667993 62.6288313 4.84945679 59.28799438 C3.59965792 56.69779023 2.41318703 54.11457348 1.26742554 51.47940063 C0.9307637 50.71683456 0.59410187 49.95426849 0.24723816 49.16859436 C-0.82770807 46.73132988 -1.89563839 44.29106979 -2.96304321 41.85049438 C-4.01785433 39.45011517 -5.07413779 37.0503929 -6.13146973 34.65112305 C-6.82152267 33.0836467 -7.50962718 31.51531108 -8.19573975 29.94610596 C-9.74395189 26.416261 -11.31513445 22.90698577 -12.99966431 19.43984985 C-13.54832153 18.30563599 -14.09697876 17.17142212 -14.66226196 16.00283813 C-15.14525757 15.03338257 -15.62825317 14.063927 -16.12588501 13.06509399 C-17.28946068 9.91149066 -17.4733729 7.62467186 -17.15054321 4.28799438 C-12.47360168 -2.72741792 -7.63534497 -2.52792339 0 0 Z " fill="#010203" transform="translate(108.15054321289063,203.71200561523438)"/>
<path d="M0 0 C3.64846135 0.77626837 4.68330086 1.6748094 6.9375 4.625 C7.39160156 7.92480469 7.39160156 7.92480469 7.328125 11.796875 C7.32246521 12.4792926 7.31680542 13.16171021 7.31097412 13.86480713 C7.28865636 16.03559762 7.23847508 18.20471206 7.1875 20.375 C7.16742876 21.8502365 7.14917907 23.32549899 7.1328125 24.80078125 C7.0888088 28.40939501 7.01981583 32.01703381 6.9375 35.625 C7.94651367 35.59881592 8.95552734 35.57263184 9.99511719 35.5456543 C13.74456542 35.45504216 17.49391728 35.39771224 21.24414062 35.3503418 C22.86605105 35.32522228 24.48784854 35.29111972 26.109375 35.24780273 C28.44299171 35.18703147 30.77511048 35.15876706 33.109375 35.13671875 C33.83243835 35.11091232 34.55550171 35.0851059 35.30047607 35.05851746 C39.08528418 35.05641671 40.62407411 35.33001636 43.42285156 37.96411133 C44.9375 40.625 44.9375 40.625 45 43.6875 C43.59324505 47.57676368 42.52939941 48.51498027 38.9375 50.625 C35.00572236 51.25715349 31.10170636 51.32155618 27.125 51.375 C25.51334961 51.41947266 25.51334961 51.41947266 23.86914062 51.46484375 C21.22518573 51.53534921 18.5821027 51.58814143 15.9375 51.625 C16.42831055 52.08825684 16.91912109 52.55151367 17.42480469 53.02880859 C18.38241699 53.9542749 18.38241699 53.9542749 19.359375 54.8984375 C19.99456055 55.50606934 20.62974609 56.11370117 21.28417969 56.73974609 C22.9375 58.625 22.9375 58.625 24.1875 62.25 C23.9375 65.625 23.9375 65.625 21.875 68.5625 C18.4135807 70.99285823 17.07483645 71.09581248 12.9375 70.625 C10.69741821 69.15354919 10.69741821 69.15354919 8.58447266 67.06420898 C7.38390732 65.89685463 7.38390732 65.89685463 6.15908813 64.70591736 C5.31510468 63.85292557 4.47112122 62.99993378 3.6015625 62.12109375 C2.72221039 61.24985367 1.84285828 60.37861359 0.93685913 59.48097229 C-1.39271729 57.16202569 -3.70679486 54.82877327 -6.01696777 52.49053955 C-7.43561513 51.06439483 -8.86624257 49.65157391 -10.30224609 48.24291992 C-13.06141526 45.53294525 -15.79553497 42.80000261 -18.5234375 40.05859375 C-19.37956635 39.21977158 -20.23569519 38.3809494 -21.11776733 37.51670837 C-26.90716484 31.58775563 -26.90716484 31.58775563 -27.69775391 26.68774414 C-26.93238151 22.99766087 -26.21149918 21.69670999 -23.0625 19.625 C-20.3125 18.9375 -20.3125 18.9375 -17.0625 19.625 C-14.1650087 21.73274187 -11.60009204 24.10028913 -9.0625 26.625 C-9.05633667 25.76334229 -9.05633667 25.76334229 -9.05004883 24.88427734 C-9.01694003 22.25517353 -8.94628307 19.62833471 -8.875 17 C-8.86919922 16.09636719 -8.86339844 15.19273438 -8.85742188 14.26171875 C-8.71192038 9.83200664 -8.51470179 6.56981274 -5.703125 3.015625 C-3.0625 0.625 -3.0625 0.625 0 0 Z " fill="#020304" transform="translate(193.0625,108.375)"/>
<path d="M0 0 C1.15951172 -0.02900391 2.31902344 -0.05800781 3.51367188 -0.08789062 C10.31532469 -0.13815867 15.72387045 0.17425925 21.3125 4.3125 C23.37109375 6.34765625 23.37109375 6.34765625 24.75 8.375 C25.22308594 9.04660156 25.69617188 9.71820313 26.18359375 10.41015625 C29.12089058 15.35985713 28.95274747 20.74383598 28.3125 26.3125 C26.23712991 32.63559018 22.85083807 36.26079567 17.08203125 39.4375 C16.49808594 39.72625 15.91414063 40.015 15.3125 40.3125 C14.3225 40.8075 14.3225 40.8075 13.3125 41.3125 C9.11090253 41.63836511 4.9001579 41.63718595 0.6875 41.6875 C-1.05853516 41.74357422 -1.05853516 41.74357422 -2.83984375 41.80078125 C-10.21392755 41.87594179 -15.00784863 41.14951605 -20.6875 36.3125 C-21.3784375 35.74789062 -22.069375 35.18328125 -22.78125 34.6015625 C-27.38715685 29.1512394 -27.33202314 23.84374077 -27.2890625 16.8984375 C-26.34887552 11.29394628 -23.43362398 7.57606151 -19.125 4 C-18.54621094 3.50886719 -17.96742188 3.01773437 -17.37109375 2.51171875 C-12.44463218 -0.99738497 -5.76648427 0.04729211 0 0 Z " fill="#040404" transform="translate(217.6875,415.6875)"/>
<path d="M0 0 C1.15951172 -0.02900391 2.31902344 -0.05800781 3.51367188 -0.08789062 C10.31532469 -0.13815867 15.72387045 0.17425925 21.3125 4.3125 C23.37109375 6.34765625 23.37109375 6.34765625 24.75 8.375 C25.22308594 9.04660156 25.69617188 9.71820313 26.18359375 10.41015625 C29.1221184 15.36192617 29.05485699 20.74482261 28.3125 26.3125 C25.83758142 33.00989416 22.29703739 37.02580767 16.00805664 40.31787109 C10.85685633 42.21860382 5.678559 42.03050786 0.25 41.9375 C-0.88244141 41.95683594 -2.01488281 41.97617187 -3.18164062 41.99609375 C-11.22463576 41.94925045 -16.50142418 40.49330369 -22.23828125 34.76367188 C-27.22638341 29.09409661 -27.03560129 23.96400506 -26.9609375 16.69921875 C-26.47026037 10.62183204 -23.41327114 7.87943173 -19.125 4 C-13.43945919 -0.82447895 -7.11888343 0.05838341 0 0 Z " fill="#040404" transform="translate(293.6875,415.6875)"/>
<path d="M0 0 C1.15951172 -0.02900391 2.31902344 -0.05800781 3.51367188 -0.08789062 C10.26678808 -0.13779995 15.80242127 0.10418067 21.3125 4.3125 C23.37109375 6.6015625 23.37109375 6.6015625 24.75 8.9375 C25.22308594 9.71351563 25.69617188 10.48953125 26.18359375 11.2890625 C28.95386274 16.25445814 29.07452297 20.94039837 27.81640625 26.5078125 C25.63223529 32.99862563 21.57790881 37.11009256 15.58251953 40.46142578 C10.71420616 42.28665061 5.50651025 41.92409154 0.375 41.875 C-1.33719727 41.91077148 -1.33719727 41.91077148 -3.08398438 41.94726562 C-11.18950824 41.93321792 -16.45615739 40.54051084 -22.23779297 34.76342773 C-27.22724201 29.09519586 -27.03559489 23.96338313 -26.9609375 16.69921875 C-26.47026037 10.62183204 -23.41327114 7.87943173 -19.125 4 C-13.43945919 -0.82447895 -7.11888343 0.05838341 0 0 Z " fill="#030404" transform="translate(369.6875,415.6875)"/>
<path d="M0 0 C1.17626953 -0.020625 2.35253906 -0.04125 3.56445312 -0.0625 C11.15231982 -0.09681483 15.90309365 0.43479456 21.8125 5.5 C26.39102223 10.80144679 28.93908503 14.86111574 28.56640625 21.91796875 C27.43442509 28.88490435 24.44353726 33.69120664 18.96875 38.05859375 C12.99044459 42.05724101 7.47816196 41.65260685 0.4375 41.6875 C-0.7175 41.72037109 -1.8725 41.75324219 -3.0625 41.78710938 C-10.2955482 41.83252235 -15.28864601 41.11459682 -20.8125 36.25 C-25.70255786 31.35994214 -26.99454216 27.42734638 -27.1875 20.5625 C-27.13451975 14.14526736 -26.32425433 9.91449601 -21.8125 5.25 C-14.69532899 -0.30139339 -8.68774935 0.03771134 0 0 Z " fill="#030404" transform="translate(445.8125,415.75)"/>
<path d="M0 0 C3.59302427 1.62620059 6.03474738 4.14317552 8.73046875 6.94140625 C9.30049118 7.51708847 9.87051361 8.09277069 10.45780945 8.68589783 C12.27056313 10.52098491 14.06889002 12.36950516 15.8671875 14.21875 C17.09607828 15.46770959 18.32588614 16.71576754 19.55664062 17.96289062 C22.56671864 21.01699569 25.56393582 24.0832218 28.5546875 27.15625 C24.02476954 32.59358055 19.21174534 37.62083931 14.1796875 42.59375 C13.07560547 43.69106445 13.07560547 43.69106445 11.94921875 44.81054688 C10.15332676 46.59477723 8.35512765 48.37661124 6.5546875 50.15625 C2.64304817 48.56357229 0.20924374 46.02486126 -2.7265625 43.03515625 C-3.22192505 42.53459213 -3.7172876 42.03402802 -4.22766113 41.51829529 C-5.80505976 39.92314394 -7.37559661 38.3214593 -8.9453125 36.71875 C-10.51586883 35.12048364 -12.08789454 33.52373579 -13.66296387 31.92991638 C-15.0930811 30.48202008 -16.51835001 29.02933974 -17.94335938 27.57641602 C-20.02664187 25.56123457 -22.07785941 23.81727447 -24.4453125 22.15625 C-21.42300634 18.9856238 -18.38145304 15.83518513 -15.32055664 12.7019043 C-14.28216639 11.63334054 -13.24922467 10.55945387 -12.22192383 9.48022461 C-10.74400119 7.92951196 -9.24752527 6.39901253 -7.74609375 4.87109375 C-6.85059814 3.94417725 -5.95510254 3.01726074 -5.0324707 2.06225586 C-2.4453125 0.15625 -2.4453125 0.15625 0 0 Z " fill="#5FB6FD" transform="translate(245.4453125,31.84375)"/>
<path d="M0 0 C4.41375 -0.04125 8.8275 -0.0825 13.375 -0.125 C15.46207275 -0.15231201 15.46207275 -0.15231201 17.59130859 -0.18017578 C19.2283374 -0.18766846 19.2283374 -0.18766846 20.8984375 -0.1953125 C22.01911621 -0.20578613 23.13979492 -0.21625977 24.29443359 -0.22705078 C27 0 27 0 29 2 C29.24050903 3.91091919 29.24050903 3.91091919 29.22705078 6.26611328 C29.22689972 7.14687531 29.22674866 8.02763733 29.22659302 8.93508911 C29.21627045 9.88721283 29.20594788 10.83933655 29.1953125 11.8203125 C29.1924826 12.79410858 29.18965271 13.76790466 29.18673706 14.77120972 C29.17551913 17.88926349 29.1504117 21.00703268 29.125 24.125 C29.11497228 26.23567294 29.10584607 28.34635038 29.09765625 30.45703125 C29.07727392 35.63821936 29.03812828 40.81879018 29 46 C19.76 46 10.52 46 1 46 C0.67 30.82 0.34 15.64 0 0 Z " fill="#DDEBF0" transform="translate(468,263)"/>
<path d="M0 0 C0.99 0.804375 1.98 1.60875 3 2.4375 C6.99119164 5.32682892 10.13291572 5.74383767 15 6 C15.14695312 6.88751953 15.14695312 6.88751953 15.296875 7.79296875 C16.25769801 12.87042139 17.2985201 16.17513744 21 20 C20.00441959 22.68040879 18.98481703 25.02368544 17.4375 27.4375 C15.82141162 30.31835321 15.37908032 32.73990924 15 36 C14.11248047 36.14695312 14.11248047 36.14695312 13.20703125 36.296875 C8.12957861 37.25769801 4.82486256 38.2985201 1 42 C-1.22694714 40.92776619 -3.25980644 39.82445511 -5.3125 38.4375 C-8.54177723 36.71021218 -11.37956857 36.35494426 -15 36 C-15.12375 34.1746875 -15.12375 34.1746875 -15.25 32.3125 C-15.73558022 28.13356723 -17.36046326 26.25542865 -20 23 C-19.92599682 19.96586953 -19.43362384 18.52396215 -17.5 16.1875 C-15.26176896 12.92341307 -15.32647708 9.91772499 -15 6 C-14.33613281 5.90203125 -13.67226563 5.8040625 -12.98828125 5.703125 C-7.62714274 4.79525337 -3.97963587 3.97963587 0 0 Z " fill="#FDDF76" transform="translate(314,168)"/>
<path d="M0 0 C9.24 0 18.48 0 28 0 C28 9.9 28 19.8 28 30 C18.76 30 9.52 30 0 30 C0 20.1 0 10.2 0 0 Z " fill="#828282" transform="translate(469,324)"/>
<path d="M0 0 C6.93 0 13.86 0 21 0 C21 9.9 21 19.8 21 30 C14.07 30 7.14 30 0 30 C0 20.1 0 10.2 0 0 Z " fill="#9A9A9A" transform="translate(169,324)"/>
<path d="M0 0 C5.0428125 -0.1546875 5.0428125 -0.1546875 10.1875 -0.3125 C11.76374146 -0.38078003 11.76374146 -0.38078003 13.37182617 -0.45043945 C17.84366408 -0.51690171 20.32203452 -0.43631442 24.15625 2.03125 C26.44479633 5.71619749 26.57332618 8.61921755 26.3125 12.8125 C26.28994141 13.50537109 26.26738281 14.19824219 26.24414062 14.91210938 C26.18562661 16.60901573 26.0959548 18.30479861 26 20 C25.34926514 20.01981934 24.69853027 20.03963867 24.02807617 20.06005859 C21.08080849 20.15529299 18.13425115 20.26497818 15.1875 20.375 C14.16333984 20.4059375 13.13917969 20.436875 12.08398438 20.46875 C11.10107422 20.50742187 10.11816406 20.54609375 9.10546875 20.5859375 C7.74651489 20.63306885 7.74651489 20.63306885 6.36010742 20.68115234 C3.73474608 20.86027919 3.73474608 20.86027919 1 23 C0.67 15.41 0.34 7.82 0 0 Z " fill="#F6C958" transform="translate(249,312)"/>
<path d="M0 0 C1.65 0.99 3.3 1.98 5 3 C7.30240667 3.49056683 7.30240667 3.49056683 9.64453125 3.51171875 C10.48564453 3.54716797 11.32675781 3.58261719 12.19335938 3.61914062 C13.48983398 3.65297852 13.48983398 3.65297852 14.8125 3.6875 C15.69615234 3.72166016 16.57980469 3.75582031 17.49023438 3.79101562 C19.65972167 3.87310433 21.8298389 3.93823879 24 4 C24.0809313 6.60478883 24.14045434 9.20706653 24.1875 11.8125 C24.21263672 12.55048828 24.23777344 13.28847656 24.26367188 14.04882812 C24.33788331 19.51573727 24.33788331 19.51573727 22.80078125 21.71875 C20.38599856 23.43686002 18.84052508 23.34405535 15.89453125 23.29296875 C15.00870361 23.28547607 14.12287598 23.2779834 13.21020508 23.27026367 C12.0889624 23.24295166 10.96771973 23.21563965 9.8125 23.1875 C6.244375 23.125625 2.67625 23.06375 -1 23 C-0.67 15.41 -0.34 7.82 0 0 Z " fill="#FED05A" transform="translate(250,343)"/>
<path d="M0 0 C1.24772889 2.31721079 2.14901564 4.47685006 2.9375 7 C3.80732527 10.02049027 3.80732527 10.02049027 5.75 12.0625 C6.1625 12.701875 6.575 13.34125 7 14 C6.26255063 16.87605254 5.03611899 18.94365437 3.4375 21.4375 C1.82141162 24.31835321 1.37908032 26.73990924 1 30 C0.11248047 30.14695313 0.11248047 30.14695313 -0.79296875 30.296875 C-5.87042139 31.25769801 -9.17513744 32.2985201 -13 36 C-15.22694714 34.92776619 -17.25980644 33.82445511 -19.3125 32.4375 C-22.54177723 30.71021218 -25.37956857 30.35494426 -29 30 C-28.67 29.34 -28.34 28.68 -28 28 C-26.2675 27.8453125 -26.2675 27.8453125 -24.5 27.6875 C-17.78784999 26.97779238 -12.23691281 23.67757559 -7.6875 18.75 C-3.36805661 13.24270967 -0.71524336 6.97362281 0 0 Z " fill="#FACD5A" transform="translate(328,174)"/>
<path d="M0 0 C0 11.22 0 22.44 0 34 C-4.36670004 30.25711426 -8.43141441 26.68596348 -12.4375 22.625 C-13.30246094 21.75101562 -14.16742188 20.87703125 -15.05859375 19.9765625 C-15.69925781 19.32429688 -16.33992187 18.67203125 -17 18 C-15.64526876 14.97328771 -14.1260408 12.87863194 -11.77734375 10.546875 C-11.15666016 9.928125 -10.53597656 9.309375 -9.89648438 8.671875 C-9.25001953 8.03765625 -8.60355469 7.4034375 -7.9375 6.75 C-7.28716797 6.1003125 -6.63683594 5.450625 -5.96679688 4.78125 C-1.14034598 0 -1.14034598 0 0 0 Z " fill="#86C4F7" transform="translate(154,369)"/>
<path d="M0 0 C1.38541992 0.00483398 1.38541992 0.00483398 2.79882812 0.00976562 C4.17844727 -0.0144043 4.17844727 -0.0144043 5.5859375 -0.0390625 C6.91141602 -0.0400293 6.91141602 -0.0400293 8.26367188 -0.04101562 C9.07312256 -0.04399658 9.88257324 -0.04697754 10.71655273 -0.05004883 C13.37189732 0.41089602 14.25155567 1.19487327 15.86132812 3.32226562 C16.23632812 5.82226562 16.23632812 5.82226562 15.86132812 8.32226562 C14.25155567 10.44965798 13.37189732 11.23363523 10.71655273 11.69458008 C9.90710205 11.69159912 9.09765137 11.68861816 8.26367188 11.68554688 C7.38001953 11.68490234 6.49636719 11.68425781 5.5859375 11.68359375 C4.66619141 11.66748047 3.74644531 11.65136719 2.79882812 11.63476562 C1.4134082 11.63959961 1.4134082 11.63959961 0 11.64453125 C-6.87162014 11.58931736 -6.87162014 11.58931736 -9.13867188 9.32226562 C-9.38867188 5.82226562 -9.38867188 5.82226562 -9.13867188 2.32226562 C-6.26271631 -0.55368994 -3.93318632 0.0316034 0 0 Z " fill="#85C2F5" transform="translate(215.138671875,430.677734375)"/>
<path d="M0 0 C1.38541992 0.00483398 1.38541992 0.00483398 2.79882812 0.00976562 C4.17844727 -0.0144043 4.17844727 -0.0144043 5.5859375 -0.0390625 C6.91141602 -0.0400293 6.91141602 -0.0400293 8.26367188 -0.04101562 C9.07312256 -0.04399658 9.88257324 -0.04697754 10.71655273 -0.05004883 C13.37189732 0.41089602 14.25155567 1.19487327 15.86132812 3.32226562 C16.23632812 5.82226562 16.23632812 5.82226562 15.86132812 8.32226562 C14.25155567 10.44965798 13.37189732 11.23363523 10.71655273 11.69458008 C9.90710205 11.69159912 9.09765137 11.68861816 8.26367188 11.68554688 C7.38001953 11.68490234 6.49636719 11.68425781 5.5859375 11.68359375 C4.66619141 11.66748047 3.74644531 11.65136719 2.79882812 11.63476562 C1.4134082 11.63959961 1.4134082 11.63959961 0 11.64453125 C-6.87162014 11.58931736 -6.87162014 11.58931736 -9.13867188 9.32226562 C-9.38867188 5.82226562 -9.38867188 5.82226562 -9.13867188 2.32226562 C-6.26271631 -0.55368994 -3.93318632 0.0316034 0 0 Z " fill="#85C2F5" transform="translate(443.138671875,430.677734375)"/>
<path d="M0 0 C1.38541992 0.00483398 1.38541992 0.00483398 2.79882812 0.00976562 C4.17844727 -0.0144043 4.17844727 -0.0144043 5.5859375 -0.0390625 C6.91141602 -0.0400293 6.91141602 -0.0400293 8.26367188 -0.04101562 C9.07312256 -0.04399658 9.88257324 -0.04697754 10.71655273 -0.05004883 C13.37189732 0.41089602 14.25155567 1.19487327 15.86132812 3.32226562 C16.23632812 5.82226562 16.23632812 5.82226562 15.86132812 8.32226562 C14.25155567 10.44965798 13.37189732 11.23363523 10.71655273 11.69458008 C9.90710205 11.69159912 9.09765137 11.68861816 8.26367188 11.68554688 C7.38001953 11.68490234 6.49636719 11.68425781 5.5859375 11.68359375 C4.66619141 11.66748047 3.74644531 11.65136719 2.79882812 11.63476562 C1.4134082 11.63959961 1.4134082 11.63959961 0 11.64453125 C-6.87162014 11.58931736 -6.87162014 11.58931736 -9.13867188 9.32226562 C-9.38867188 5.82226562 -9.38867188 5.82226562 -9.13867188 2.32226562 C-6.26271631 -0.55368994 -3.93318632 0.0316034 0 0 Z " fill="#85C2F5" transform="translate(367.138671875,430.677734375)"/>
<path d="M0 0 C1.38541992 0.00483398 1.38541992 0.00483398 2.79882812 0.00976562 C4.17844727 -0.0144043 4.17844727 -0.0144043 5.5859375 -0.0390625 C6.91141602 -0.0400293 6.91141602 -0.0400293 8.26367188 -0.04101562 C9.07312256 -0.04399658 9.88257324 -0.04697754 10.71655273 -0.05004883 C13.37189732 0.41089602 14.25155567 1.19487327 15.86132812 3.32226562 C16.23632812 5.82226562 16.23632812 5.82226562 15.86132812 8.32226562 C14.25155567 10.44965798 13.37189732 11.23363523 10.71655273 11.69458008 C9.90710205 11.69159912 9.09765137 11.68861816 8.26367188 11.68554688 C7.38001953 11.68490234 6.49636719 11.68425781 5.5859375 11.68359375 C4.66619141 11.66748047 3.74644531 11.65136719 2.79882812 11.63476562 C1.4134082 11.63959961 1.4134082 11.63959961 0 11.64453125 C-6.87162014 11.58931736 -6.87162014 11.58931736 -9.13867188 9.32226562 C-9.38867188 5.82226562 -9.38867188 5.82226562 -9.13867188 2.32226562 C-6.26271631 -0.55368994 -3.93318632 0.0316034 0 0 Z " fill="#85C2F5" transform="translate(291.138671875,430.677734375)"/>
<path d="M0 0 C2 2 2 2 2.625 5.125 C1.7093957 10.80174668 -1.76221802 13.35815611 -6 17 C-7.13199353 16.0919838 -8.25532363 15.17316174 -9.375 14.25 C-10.00148438 13.73953125 -10.62796875 13.2290625 -11.2734375 12.703125 C-13.08312318 10.91800519 -14.00117455 9.32050356 -15 7 C-13.87811441 5.85111717 -12.75238316 4.70598863 -11.625 3.5625 C-10.99851562 2.92441406 -10.37203125 2.28632813 -9.7265625 1.62890625 C-6.38508827 -1.52357057 -4.35125332 -0.99716222 0 0 Z " fill="#84C0F3" transform="translate(90,270)"/>
<path d="M0 0 C1.299375 0.433125 1.299375 0.433125 2.625 0.875 C2.9375 3.5625 2.9375 3.5625 2.625 6.875 C0.125 9.75 0.125 9.75 -2.375 11.875 C-5.74220387 10.48167426 -7.3609524 8.8960714 -9.375 5.875 C-4.43845733 -0.16438731 -4.43845733 -0.16438731 0 0 Z " fill="#84C0F2" transform="translate(67.375,255.125)"/>
<path d="M0 0 C4.23429756 1.31061591 8.07407404 2.94356259 12 5 C10.02 7.31 8.04 9.62 6 12 C2.82781157 8.37464179 1.57097403 4.48849722 0 0 Z " fill="#80BBEC" transform="translate(112,223)"/>
</svg>
