<?xml version="1.0" encoding="UTF-8"?>
<svg version="1.1" xmlns="http://www.w3.org/2000/svg" width="2000" height="2000">
<path d="M0 0 C5.94979054 0.01029832 11.89954177 -0.00295176 17.84932646 -0.01297333 C28.24100886 -0.02731675 38.63262547 -0.02718291 49.02430853 -0.01678469 C60.15522897 -0.00571521 71.28610054 -0.00350952 82.41702399 -0.01173403 C83.12441075 -0.01225072 83.83179751 -0.01276741 84.56062023 -0.01329976 C87.442479 -0.01543324 90.32433771 -0.01762813 93.20619637 -0.01990086 C119.94627884 -0.04097386 146.68632861 -0.04253051 173.42641577 -0.03131106 C199.18630795 -0.02050832 224.94618467 -0.01630061 250.70607886 -0.02139284 C252.3283097 -0.02170276 253.95054054 -0.02201139 255.57277139 -0.02231872 C262.09292607 -0.02356075 268.61308075 -0.02483543 275.13323542 -0.02615778 C293.35629777 -0.02982462 311.57936017 -0.03210789 329.80242285 -0.03330233 C330.63204624 -0.03335691 331.46166963 -0.0334115 332.31643313 -0.03346773 C358.72568518 -0.03510324 385.13493253 -0.0306056 411.54418311 -0.02190401 C412.39991027 -0.02162302 413.25563744 -0.02134202 414.13729574 -0.02105251 C428.03105675 -0.0164735 441.92481766 -0.01159528 455.81857857 -0.00669182 C510.91229692 0.0127314 566.00597639 0.01182984 621.09969458 -0.00761416 C634.98668795 -0.01249949 648.87368133 -0.01734393 662.7606748 -0.02190401 C663.61591303 -0.02218581 664.47115125 -0.0224676 665.35230578 -0.02275793 C691.73568283 -0.0313912 718.11905664 -0.03503816 744.50243506 -0.03330233 C745.74593987 -0.03322082 745.74593987 -0.03322082 747.014566 -0.03313767 C765.21786632 -0.0318874 783.4211663 -0.02935213 801.62446628 -0.02566032 C808.13856081 -0.02434393 814.65265536 -0.02309158 821.1667499 -0.02185747 C822.78707544 -0.02154792 824.40740098 -0.021233 826.02772652 -0.02091269 C851.77418359 -0.01583699 877.52062369 -0.02151072 903.26707853 -0.03231327 C929.93489771 -0.04338004 956.60267782 -0.03921925 983.27049145 -0.01818808 C986.1429389 -0.01597898 989.01538639 -0.01383213 991.88783392 -0.01173403 C992.59271332 -0.0112132 993.29759272 -0.01069238 994.02383209 -0.01015577 C1005.11745287 -0.00231239 1016.21102449 -0.00770946 1027.3046408 -0.01881005 C1038.25249102 -0.02947586 1049.2002686 -0.0251938 1060.14811034 -0.0067537 C1065.98735481 0.00268446 1071.82641611 0.00617814 1077.66565427 -0.00837763 C1110.06574762 -0.08324928 1141.95684005 1.16965819 1173.77742895 7.82637022 C1175.27708579 8.13016826 1176.7767608 8.43387662 1178.27645239 8.73750303 C1237.3930857 20.87259615 1293.60566789 45.0686526 1343.15242895 79.51387022 C1344.26545386 80.28682432 1344.26545386 80.28682432 1345.40096411 81.07539365 C1359.55830807 90.968184 1373.0696068 101.65123432 1385.7813352 113.35371397 C1387.09319467 114.54886764 1388.41328521 115.73578563 1389.76497778 116.88569639 C1395.82064844 122.0557085 1401.43723349 127.64672853 1407.05257544 133.28364561 C1408.71170216 134.94813299 1410.37610947 136.60720468 1412.04110083 138.26582334 C1417.62127358 143.84219286 1423.06285358 149.48060094 1428.15242895 155.51387022 C1429.04080559 156.53552715 1429.93007922 157.55640505 1430.8203977 158.57637022 C1437.9945083 166.94060459 1444.66216372 175.61071891 1451.15242895 184.51387022 C1451.64356177 185.18402158 1452.13469458 185.85417295 1452.6407102 186.54463194 C1468.22037544 207.88445705 1481.62365727 230.69709838 1493.15047583 254.46113584 C1494.17221089 256.55439811 1495.21628951 258.63552312 1496.26180395 260.71699522 C1518.36702057 305.33275666 1530.79936814 355.17908525 1536.15242895 404.51387022 C1536.24172267 405.32158725 1536.33101638 406.12930428 1536.42301597 406.96149758 C1537.36630922 416.68753912 1537.29372224 426.39277397 1537.28385672 436.15332029 C1537.28550835 438.1507731 1537.28759553 440.14822559 1537.29007682 442.14567754 C1537.29562761 447.63592973 1537.29497397 453.12616626 1537.29329923 458.61642035 C1537.29256691 464.58921899 1537.29759395 470.56201327 1537.30187425 476.53481004 C1537.30856744 487.00386927 1537.31155148 497.47292511 1537.31200919 507.94198606 C1537.31251204 519.17327021 1537.31516374 530.40455075 1537.32041678 541.63583372 C1537.32074691 542.34577547 1537.32107705 543.05571723 1537.32141718 543.78717237 C1537.32276723 546.67878791 1537.3241299 549.57040345 1537.32550929 552.46201898 C1537.34180104 586.6754074 1537.34819676 620.88879513 1537.35295716 655.10218677 C1537.35534177 672.14481479 1537.35904554 689.18744242 1537.36299426 706.23007014 C1537.37565855 760.9206566 1537.38644186 815.61124304 1537.38983471 870.30183093 C1537.38999695 872.91512159 1537.39016251 875.52841225 1537.3903291 878.14170291 C1537.39066289 883.38254277 1537.39099337 888.62338264 1537.39132366 893.8642225 C1537.39171055 899.99973949 1537.39210016 906.13525647 1537.39249472 912.27077345 C1537.39260714 914.02679648 1537.39271856 915.78281951 1537.39282897 917.53884254 C1537.39637706 973.91501852 1537.41145004 1030.29118176 1537.43476672 1086.66735288 C1537.451517 1127.18339642 1537.46698706 1167.69943755 1537.47150168 1208.2154846 C1537.47164191 1209.46634373 1537.47164191 1209.46634373 1537.47178497 1210.74247275 C1537.4738044 1229.05237043 1537.47496013 1247.36226808 1537.47531355 1265.67216586 C1537.47544972 1272.22458865 1537.47565871 1278.77701143 1537.47590681 1285.32943421 C1537.47596837 1286.95943691 1537.47602669 1288.58943962 1537.47608176 1290.21944233 C1537.47700017 1316.15296075 1537.48695148 1342.08646582 1537.50153924 1368.01997985 C1537.51618251 1394.15686994 1537.52118024 1420.29374368 1537.5131197 1446.43063714 C1537.51200448 1450.05025464 1537.51099377 1453.66987217 1537.51004538 1457.28948972 C1537.50985541 1457.99896889 1537.50966544 1458.70844805 1537.50946972 1459.43942659 C1537.50674652 1470.6289322 1537.51404431 1481.81840739 1537.52561875 1493.0079064 C1537.53681564 1504.03718282 1537.53688692 1515.06642491 1537.52624856 1526.09570431 C1537.52087465 1531.98452437 1537.52008764 1537.87323973 1537.53275728 1543.76205096 C1537.57939846 1566.8704356 1537.51639268 1589.60146769 1534.15242895 1612.51387022 C1534.04042164 1613.30959106 1533.92841432 1614.10531189 1533.81301284 1614.92514548 C1533.23411296 1619.03382704 1532.5790055 1623.11846489 1531.83992895 1627.20137022 C1531.62828101 1628.39230283 1531.41663306 1629.58323545 1531.19857153 1630.81025694 C1523.98994329 1670.29644246 1511.57884946 1708.37346334 1494.15242895 1744.51387022 C1493.79439185 1745.2616876 1493.43635474 1746.00950498 1493.06746802 1746.7799835 C1490.84481156 1751.40202472 1488.53539104 1755.97250698 1486.15242895 1760.51387022 C1485.56606665 1761.6329376 1485.56606665 1761.6329376 1484.96785864 1762.7746124 C1471.37468563 1788.5184606 1455.16621008 1812.39503073 1436.5835813 1834.77851865 C1435.31604733 1836.31547387 1434.07043688 1837.87045188 1432.8282102 1839.42793272 C1423.47733419 1851.14677549 1412.94899498 1861.8080498 1402.40081152 1872.44071958 C1401.00843027 1873.84499723 1399.62003609 1875.25322468 1398.23177466 1876.6615753 C1392.92735012 1881.97275276 1387.45834816 1886.88094208 1381.58138403 1891.55244444 C1379.31532308 1893.38233022 1377.16351615 1895.28510895 1375.02742895 1897.26387022 C1356.33241196 1914.0066642 1334.85541253 1928.03951882 1313.15242895 1940.51387022 C1312.40283911 1940.94651182 1311.65324927 1941.37915342 1310.88094458 1941.82490537 C1305.68455509 1944.80950419 1300.4389869 1947.69231847 1295.15242895 1950.51387022 C1293.96036841 1951.15292295 1293.96036841 1951.15292295 1292.74422583 1951.80488584 C1248.49333022 1975.30555818 1200.52202118 1989.11835704 1151.22518286 1996.99678037 C1148.44761825 1997.46419511 1145.70338924 1998.01907949 1142.9453977 1998.58808897 C1138.32970079 1999.42336371 1133.73671984 1999.81197651 1129.05867597 2000.06334273 C1128.27294449 2000.10579943 1127.487213 2000.14825613 1126.67767147 2000.1919994 C1117.4061927 2000.65250295 1108.14021749 2000.65613562 1098.85950789 2000.64809129 C1096.86430471 2000.65004918 1094.86910193 2000.6524399 1092.87389973 2000.65521926 C1087.41781233 2000.66156776 1081.96173976 2000.66178505 1076.50564938 2000.66094186 C1070.55933625 2000.66111238 1064.61302826 2000.66702994 1058.66671774 2000.67218272 C1048.25322791 2000.68040035 1037.83974055 2000.68492774 1027.42624792 2000.6869087 C1016.2587541 2000.68904237 1005.09126416 2000.69331487 993.92377219 2000.70015142 C992.86346673 2000.70079734 992.86346673 2000.70079734 991.78174097 2000.70145631 C988.90245841 2000.70321481 986.02317587 2000.70498447 983.14389333 2000.70676933 C948.30003717 2000.72832674 913.45618027 2000.73924145 878.61231897 2000.74824557 C867.30852647 2000.75118264 856.00473417 2000.75455295 844.70094189 2000.75821278 C843.50355099 2000.75860022 843.50355099 2000.75860022 842.28197037 2000.75899548 C839.05196332 2000.76004181 835.82195628 2000.76109023 832.59194923 2000.7621413 C777.34059841 2000.78010371 722.08924728 2000.79547971 666.83789396 2000.80290034 C662.50129499 2000.80348429 658.16469603 2000.80408156 653.82809707 2000.80467795 C652.53778989 2000.80485513 652.53778989 2000.80485513 651.2214159 2000.80503589 C642.50697816 2000.80623321 633.79254041 2000.80744199 625.07810266 2000.80866842 C623.33089274 2000.80891366 621.58368282 2000.80915752 619.83647289 2000.80939999 C563.75016227 2000.81718582 507.66387259 2000.83956222 451.57757112 2000.87207642 C411.25977591 2000.89544148 370.94198489 2000.91698288 330.62418303 2000.92408273 C329.79397167 2000.92422975 328.96376031 2000.92437678 328.10839103 2000.92452825 C309.87768121 2000.927714 291.64697142 2000.92976425 273.41626135 2000.9307558 C266.07983164 2000.93117049 258.74340195 2000.93172538 251.40697226 2000.93231771 C250.60410487 2000.93237838 249.80123749 2000.93243905 248.97404079 2000.93250156 C223.1768578 2000.93451254 197.37969965 2000.94871381 171.58252531 2000.96926271 C145.57598794 2000.98990482 119.56947918 2000.99770607 93.56293444 2000.98818495 C89.95739128 2000.98686677 86.35184808 2000.98568865 82.74630484 2000.98459432 C82.03961957 2000.98437447 81.3329343 2000.98415463 80.60483432 2000.98392812 C69.4822338 2000.98083187 58.35968856 2000.99106931 47.23710081 2001.00706987 C36.26024082 2001.02257746 25.28344693 2001.02313175 14.30658257 2001.00952164 C8.45146074 2001.00266871 2.59652627 2001.00180347 -3.25857832 2001.01908173 C-40.62547563 2001.12236406 -76.25215486 1998.10485348 -112.84757105 1990.51387022 C-114.33015405 1990.21150449 -114.33015405 1990.21150449 -115.84268823 1989.90303037 C-122.9722864 1988.44045009 -129.92530637 1986.94701087 -136.72159448 1984.30610655 C-139.79215735 1983.16187406 -142.91817468 1982.22727383 -146.05118433 1981.27021787 C-180.91963659 1970.58215455 -214.75562013 1955.59799943 -245.84757105 1936.51387022 C-246.86391626 1935.89729551 -246.86391626 1935.89729551 -247.9007937 1935.26826475 C-257.52837246 1929.42417155 -266.7819738 1923.19378398 -275.84757105 1916.51387022 C-276.82983667 1915.79715147 -277.8121023 1915.08043272 -278.82413355 1914.34199522 C-290.72058473 1905.55593693 -302.21656636 1896.26766579 -313.00382105 1886.14668272 C-315.13808072 1884.17073351 -317.29301117 1882.2681017 -319.4999148 1880.37715147 C-324.36374327 1876.13924661 -328.9167017 1871.59520942 -333.46597925 1867.02583311 C-334.90782326 1865.57862636 -336.3549422 1864.13684996 -337.80264917 1862.69551084 C-343.03005616 1857.47218828 -348.06817929 1852.15072038 -352.84757105 1846.51387022 C-353.72460657 1845.50426138 -354.60217434 1844.49511454 -355.48038355 1843.48652647 C-377.91841167 1817.28538077 -399.10502893 1788.21973651 -413.7264773 1756.89131162 C-415.1360734 1753.90205925 -416.58587927 1750.93334369 -418.03507105 1747.96308897 C-418.91135712 1746.16160953 -419.78763692 1744.36012691 -420.66315332 1742.55827329 C-421.50622466 1740.82323595 -422.3501014 1739.08859003 -423.19400659 1737.35395811 C-427.89564474 1727.60190836 -432.19727966 1717.70903788 -435.84757105 1707.51387022 C-436.18433862 1706.57478819 -436.5211062 1705.63570615 -436.86807886 1704.66816709 C-445.88909629 1679.16896326 -453.0234114 1653.16579295 -457.72257105 1626.51387022 C-457.90150903 1625.50445371 -458.08044702 1624.49503721 -458.26480737 1623.45503233 C-458.7341309 1620.58967695 -459.14354453 1617.72154522 -459.53052529 1614.84408906 C-459.7493862 1613.23550795 -459.97599449 1611.62796858 -460.20889417 1610.02136002 C-463.48212093 1586.89073034 -463.27873648 1563.80819349 -463.23917507 1540.49847053 C-463.23240099 1534.52880401 -463.24316328 1528.55916282 -463.25157091 1522.5895019 C-463.26388826 1512.15054876 -463.26527477 1501.71163079 -463.25902048 1491.27267454 C-463.25236624 1480.08518599 -463.25230081 1468.89772562 -463.26006761 1457.71023748 C-463.26055561 1457.00054001 -463.26104361 1456.29084255 -463.26154639 1455.5596391 C-463.26355484 1452.6685824 -463.26560798 1449.77752574 -463.26771814 1446.88646912 C-463.28905728 1417.61916328 -463.29118357 1388.35187831 -463.2856611 1359.08456664 C-463.28490529 1355.04779938 -463.28417768 1351.01103211 -463.28347912 1346.97426484 C-463.28334003 1346.17233705 -463.28320094 1345.37040926 -463.28305764 1344.54418063 C-463.28009905 1326.73276534 -463.28312435 1308.92135253 -463.28737541 1291.10993768 C-463.28795757 1288.66861472 -463.28852642 1286.22729175 -463.28909105 1283.78596879 C-463.29060615 1277.24072455 -463.29213307 1270.6954803 -463.29368405 1264.15023607 C-463.30443283 1218.48773995 -463.30915091 1172.82524614 -463.30121389 1127.16274927 C-463.30106558 1126.30293335 -463.30091728 1125.44311744 -463.30076448 1124.5572465 C-463.29910564 1114.97051475 -463.29735605 1105.38378301 -463.29557147 1095.79705128 C-463.29541044 1094.93159643 -463.29524942 1094.06614158 -463.29508351 1093.17446083 C-463.29377636 1086.15398418 -463.29377636 1086.15398418 -463.29312233 1082.67463414 C-463.2827334 1027.32961162 -463.29049566 971.9846209 -463.31412378 916.63960264 C-463.32006777 902.69393384 -463.32595958 888.74826502 -463.3315331 874.80259607 C-463.33187687 873.94376659 -463.33222064 873.0849371 -463.33257483 872.20008248 C-463.34311172 845.70664844 -463.34869654 819.21321705 -463.34909025 792.7197809 C-463.34910303 791.88732346 -463.34911581 791.05486603 -463.34912898 790.19718261 C-463.34935734 771.91794663 -463.34835061 753.63871089 -463.34621993 735.35947504 C-463.34546525 728.81804125 -463.34478702 722.27660745 -463.34413978 715.73517365 C-463.34397709 714.10800672 -463.34380942 712.48083978 -463.34363676 710.85367284 C-463.34092237 684.99161319 -463.34944071 659.12957292 -463.36349087 633.26751744 C-463.3779391 606.47624325 -463.377397 579.68500573 -463.36011615 552.89373276 C-463.3583122 550.00825867 -463.35657198 547.12278455 -463.35488191 544.23731039 C-463.35425116 543.17518573 -463.35425116 543.17518573 -463.35360767 542.091604 C-463.34734488 530.9441632 -463.35435988 519.79677338 -463.36709111 508.64933978 C-463.37936623 497.65009244 -463.37670711 486.6509153 -463.3598708 475.65167215 C-463.35129015 469.78405392 -463.34868739 463.91661961 -463.36414012 458.04901126 C-463.44283098 425.97161079 -462.09599788 394.59627247 -455.59757105 363.07637022 C-455.45172571 362.34757658 -455.30588037 361.61878294 -455.15561548 360.86790464 C-452.20709763 346.17198288 -448.34698741 331.81243568 -443.84757105 317.51387022 C-443.33371851 315.8473541 -443.33371851 315.8473541 -442.80948511 314.147171 C-431.79640926 278.6292316 -415.97405539 243.84436913 -395.84757105 212.51387022 C-395.36223901 211.7575128 -394.87690698 211.00115537 -394.37686792 210.22187803 C-380.87799333 189.33330332 -366.1812735 169.33239468 -349.2264773 151.10371397 C-347.36990325 149.08251759 -345.58051741 147.03524688 -343.7967898 144.95137022 C-339.30608792 139.804757 -334.49755057 134.97779549 -329.66983667 130.15083311 C-328.10896778 128.58778288 -326.55629217 127.01689656 -325.00382105 125.44551084 C-319.39484134 119.80531088 -313.65921677 114.55769873 -307.42667261 109.59663389 C-304.95957099 107.60431621 -302.60241938 105.53435155 -300.25382105 103.40449522 C-295.81195457 99.41628295 -291.14311355 95.81441611 -286.34757105 92.26387022 C-285.47809839 91.61764707 -284.60862573 90.97142393 -283.71280542 90.30561826 C-281.09629514 88.36780708 -278.47329872 86.43916784 -275.84757105 84.51387022 C-275.10378198 83.96617979 -274.35999292 83.41848936 -273.5936648 82.85420225 C-262.43523923 74.67289805 -250.83070357 67.42325779 -238.84757105 60.51387022 C-238.09363062 60.07832822 -237.33969019 59.64278623 -236.56290308 59.194046 C-231.37099276 56.21233729 -226.12942804 53.33291296 -220.84757105 50.51387022 C-220.05286401 50.08783506 -219.25815698 49.6617999 -218.43936792 49.22285459 C-150.56039932 13.17383508 -76.16687981 -0.18986519 0 0 Z " fill="#881299" transform="translate(462.8475710451603,-0.5138702169060707)"/>
<path d="M0 0 C1.00546875 0.73283203 1.00546875 0.73283203 2.03125 1.48046875 C3.0625 2.18171875 4.09375 2.88296875 5.15625 3.60546875 C25.28955456 21.57757113 29.39189622 56.60558185 30.87011719 81.89453125 C31.87588109 104.27734966 31.19717564 126.27882179 28.03125 148.48046875 C27.77664736 150.38662586 27.52271779 152.29287303 27.26953125 154.19921875 C26.23286284 161.7628556 25.08665478 169.16440134 22.8828125 176.48828125 C22.22024861 178.81637272 21.64454049 181.11321567 21.1171875 183.47265625 C10.55503561 230.61519321 -4.13993805 278.12666536 -32.96875 317.48046875 C-33.60554688 318.35058594 -34.24234375 319.22070312 -34.8984375 320.1171875 C-40.64435938 327.70339311 -47.06001938 334.93535553 -53.96875 341.48046875 C-54.41863281 341.92519531 -54.86851562 342.36992188 -55.33203125 342.828125 C-63.77864858 350.68788058 -74.96061214 356.26764818 -85.96875 359.48046875 C-86.69449219 359.70476562 -87.42023437 359.9290625 -88.16796875 360.16015625 C-108.15986437 365.2540773 -130.23488076 360.40555288 -147.85644531 350.40966797 C-156.22236116 345.42351448 -163.23723369 339.72795923 -169.89453125 332.6328125 C-171.78176302 330.43491787 -171.78176302 330.43491787 -173.96875 329.48046875 C-174.00613281 330.17527344 -174.04351563 330.87007812 -174.08203125 331.5859375 C-174.52037066 338.367306 -175.27183259 345.04445917 -176.25390625 351.765625 C-176.38389008 352.66516907 -176.5138739 353.56471313 -176.64779663 354.49151611 C-178.57814936 367.77460711 -180.61532404 381.04208845 -182.64013672 394.31103516 C-183.17050324 397.78915306 -183.69866507 401.26760037 -184.2265625 404.74609375 C-184.46718918 406.31656464 -184.46718918 406.31656464 -184.712677 407.91876221 C-185.59832678 413.76375423 -186.35816009 419.60020585 -186.96875 425.48046875 C-163.52297594 423.08266479 -140.15208726 420.13374686 -116.78125 417.10546875 C-110.64587846 416.31084919 -104.51048166 415.51642519 -98.375 414.72265625 C-97.62351622 414.625417 -96.87203243 414.52817776 -96.09777641 414.42799187 C-61.32766002 409.93118399 -26.51525218 405.78595912 8.31591797 401.79229736 C11.10657027 401.47181897 13.89705547 401.14991896 16.6875 400.82763672 C60.29253101 395.79313106 60.29253101 395.79313106 81.77441406 393.7890625 C84.89049853 393.49380532 88.00358248 393.17564421 91.1171875 392.85546875 C103.84607829 391.61757711 116.50209831 391.2972415 129.28125 391.29296875 C130.46305344 391.29147324 130.46305344 391.29147324 131.66873169 391.28994751 C167.07996759 391.29503752 167.07996759 391.29503752 179.05859375 401.42578125 C187.32126671 410.03205052 189.42383912 419.49169113 189.21484375 431.109375 C188.74190786 439.79328287 185.90954484 446.88595158 179.46875 452.85546875 C175.01375228 455.82546723 171.1453295 457.00966575 165.86328125 458.06640625 C165.15137131 458.20946198 164.43946136 458.3525177 163.70597839 458.49990845 C162.18760025 458.80352427 160.66864433 459.10426273 159.14916992 459.40234375 C156.92269462 459.83995237 154.69860089 460.28824416 152.47460938 460.73828125 C129.49609576 465.33695934 106.35627131 468.40629105 83.09368896 471.11410522 C74.83031069 472.07616038 66.56943513 473.05940665 58.30859375 474.04296875 C57.04309818 474.19345956 57.04309818 474.19345956 55.75203705 474.34699059 C37.62172807 476.50529569 19.51252889 478.81770214 1.40625 481.16796875 C-4.3723166 481.91727835 -10.15096915 482.66592413 -15.9296875 483.4140625 C-16.62086481 483.50358122 -17.31204212 483.59309994 -18.0241642 483.68533134 C-31.41601204 485.41888622 -44.81455175 487.09511999 -58.21875 488.73046875 C-59.20146881 488.85045227 -60.18418762 488.97043579 -61.19668579 489.09405518 C-71.47341266 490.346853 -81.75266101 491.57672831 -92.03515625 492.78125 C-95.61724753 493.2013132 -99.19928718 493.62181145 -102.78125 494.04296875 C-103.64364288 494.1443515 -104.50603577 494.24573425 -105.39456177 494.35018921 C-118.97729889 495.95245141 -132.52615872 497.74393441 -146.06665039 499.66943359 C-153.31104628 500.69885413 -160.55641694 501.69934938 -167.81640625 502.61328125 C-168.53015915 502.70340988 -169.24391205 502.79353851 -169.97929382 502.88639832 C-173.34438283 503.31015993 -176.71000926 503.72768583 -180.0769043 504.13696289 C-190.84732818 504.75704131 -190.84732818 504.75704131 -199.8203125 509.5390625 C-201.35619237 513.47279565 -202.36906076 517.43907793 -203.34375 521.54296875 C-207.41832565 537.7471596 -213.043729 553.14324573 -227.83203125 562.2421875 C-235.14486617 566.22847236 -240.47874045 567.96425512 -248.5703125 565.77734375 C-255.76253301 563.27385697 -259.51967174 559.51390767 -263.0859375 552.80859375 C-266.11725957 545.87209945 -265.39214471 538.3273209 -265.21875 530.91796875 C-265.1986487 529.41734162 -265.18040436 527.91668841 -265.1640625 526.41601562 C-265.12036687 522.77028392 -265.05154202 519.12554676 -264.96875 515.48046875 C-265.62875 515.81046875 -266.28875 516.14046875 -266.96875 516.48046875 C-268.30082803 516.67693882 -269.63992012 516.82678521 -270.98046875 516.953125 C-286.27572709 518.53317319 -301.3777277 520.95432594 -316.53125 523.54296875 C-317.57711273 523.72054718 -318.62297546 523.89812561 -319.70053101 524.08108521 C-322.72949296 524.59665383 -325.7575009 525.11744272 -328.78515625 525.640625 C-329.69272675 525.7957959 -330.60029724 525.9509668 -331.53536987 526.11083984 C-336.75113981 527.02261218 -341.84216 528.15776507 -346.96875 529.48046875 C-348.42172904 529.6887133 -349.88048868 529.86479592 -351.34375 529.98046875 C-355.32219123 530.37223376 -359.15929869 531.06841432 -363.0703125 531.88671875 C-366.50744995 532.59082238 -369.95543907 533.2217869 -373.40625 533.85546875 C-379.51303354 534.98248114 -385.5854708 536.23672125 -391.65625 537.54296875 C-398.08403999 538.92459496 -404.49127116 540.11413096 -411.01171875 540.98828125 C-414.10437852 541.45804645 -414.10437852 541.45804645 -417.61450195 542.42651367 C-421.9103864 543.51285528 -426.2123288 544.1983352 -430.59375 544.8359375 C-441.45407486 546.48791114 -452.20404165 548.61256533 -462.96875 550.79296875 C-464.44841751 551.09084793 -464.44841751 551.09084793 -465.95797729 551.39474487 C-480.49930921 554.3226155 -494.99990065 557.3848388 -509.46191406 560.68408203 C-516.60479426 562.3061981 -523.75605509 563.89096693 -530.90625 565.48046875 C-531.67242645 565.65099762 -532.43860291 565.82152649 -533.22799683 565.9972229 C-543.50762617 568.28461944 -553.79449693 570.53285065 -564.09375 572.73046875 C-565.23046143 572.97321533 -566.36717285 573.21596191 -567.53833008 573.46606445 C-568.62911865 573.69898193 -569.71990723 573.93189941 -570.84375 574.171875 C-592.65014949 577.20661983 -592.65014949 577.20661983 -610.96875 587.48046875 C-613.26213536 592.29746492 -614.85638749 597.17600656 -616.2890625 602.3125 C-618.88527802 611.35459224 -621.79734648 620.26850529 -624.84375 629.16796875 C-625.11854187 629.9722934 -625.39333374 630.77661804 -625.67645264 631.60531616 C-651.5547877 707.07011242 -686.41771848 781.16883671 -741.96875 839.48046875 C-742.61730957 840.16302734 -743.26586914 840.84558594 -743.93408203 841.54882812 C-770.8886358 869.71933039 -805.37553143 893.61121852 -845.71069336 894.88476562 C-870.33761612 895.18811328 -892.43402583 886.14641884 -910.46875 869.35546875 C-929.09417402 849.91276284 -935.60231428 825.84452952 -935.30126953 799.58789062 C-933.67940117 728.83988123 -890.54890153 660.0988616 -840.87402344 612.27197266 C-837.67518698 609.26414821 -834.34135175 606.47679282 -830.88671875 603.76953125 C-827.86294444 601.39746733 -824.91486768 598.94912107 -821.96484375 596.48657227 C-813.18621533 589.17530179 -804.20541675 582.20213466 -794.96875 575.48046875 C-794.3097168 574.99900391 -793.65068359 574.51753906 -792.97167969 574.02148438 C-774.17551784 560.34656915 -754.55439076 548.26420266 -733.96875 537.48046875 C-733.26621094 537.10728516 -732.56367187 536.73410156 -731.83984375 536.34960938 C-717.15003257 528.56663785 -701.68094989 521.96625494 -685.90625 516.73046875 C-680.48589243 514.79228029 -676.35513167 513.26542339 -672.96875 508.48046875 C-671.96581945 506.15555868 -671.06175607 503.87111115 -670.2109375 501.4921875 C-669.95520966 500.79322357 -669.69948181 500.09425964 -669.43600464 499.37411499 C-666.20779479 490.49144791 -663.14100481 481.55146563 -660.09375 472.60546875 C-659.63337341 471.25769348 -659.63337341 471.25769348 -659.16369629 469.88269043 C-655.1805856 458.21058824 -651.35019761 446.51730793 -647.81176758 434.7019043 C-645.34665683 426.53097209 -642.59665896 418.47277058 -639.78125 410.41796875 C-636.99521291 402.43694682 -634.23396086 394.46533681 -631.84375 386.35546875 C-631.64370361 385.6812085 -631.44365723 385.00694824 -631.23754883 384.31225586 C-630.45709068 381.58589883 -629.96875 379.33537366 -629.96875 376.48046875 C-630.38012207 376.86678467 -630.79149414 377.25310059 -631.21533203 377.65112305 C-632.08714111 378.46963745 -632.08714111 378.46963745 -632.9765625 379.3046875 C-633.62641113 379.91481689 -634.27625977 380.52494629 -634.94580078 381.15356445 C-636.39359535 382.51134497 -637.84251326 383.86792854 -639.29248047 385.22338867 C-642.7654097 388.47021771 -646.23026486 391.72314752 -649.65625 395.01953125 C-670.11310232 414.59196537 -694.13265743 429.42517375 -723.23828125 428.7890625 C-737.26349667 428.1148002 -750.34742777 421.23423708 -759.875 411.05078125 C-775.45293572 391.92712136 -779.96449533 368.54224634 -777.96875 344.48046875 C-776.86005891 335.87720956 -775.24243707 327.36858365 -773.59350586 318.85546875 C-772.97730081 315.52666114 -772.44851263 312.195833 -771.94921875 308.84765625 C-769.64364217 293.48256877 -766.29842201 278.29636889 -761.60253906 263.48486328 C-760.93758798 261.38191705 -760.29153658 259.27378738 -759.6484375 257.1640625 C-757.83926362 251.26690281 -755.95433941 245.43782342 -753.7774353 239.66426086 C-752.4544903 236.0917502 -751.23211664 232.48617443 -750.0078125 228.87890625 C-749.59914444 227.6805162 -749.59914444 227.6805162 -749.18222046 226.45791626 C-748.31824736 223.92415702 -747.4558256 221.38987416 -746.59375 218.85546875 C-736.0011444 187.72236686 -736.0011444 187.72236686 -729.99609375 172.45703125 C-729.65384766 171.58046875 -729.31160156 170.70390625 -728.95898438 169.80078125 C-728.25928797 168.00935075 -727.55358743 166.22025334 -726.84179688 164.43359375 C-721.78414163 151.39268306 -721.6201017 139.15595514 -721.58789062 125.34277344 C-721.57831416 122.89598614 -721.54450906 120.45041692 -721.5078125 118.00390625 C-721.51285797 117.26723724 -721.51790344 116.53056824 -721.52310181 115.77157593 C-721.42036509 110.28830571 -719.97802295 106.08189926 -716.96875 101.48046875 C-711.13887293 95.94208553 -706.60980562 95.07916088 -698.7421875 95.23828125 C-685.10063148 96.11382625 -673.82742004 98.99653835 -664.09375 109.29296875 C-656.20955056 118.99659883 -653.76676849 129.22018906 -654.96875 141.48046875 C-656.03519968 147.55959271 -657.88350616 153.45301617 -659.65625 159.35546875 C-660.09752006 160.87707843 -660.53697896 162.39921453 -660.97460938 163.921875 C-662.06387818 167.69434809 -663.17617407 171.45952164 -664.29733276 175.22262573 C-665.4213213 179.00237629 -666.52983344 182.78666735 -667.640625 186.5703125 C-668.89537832 190.83645567 -670.15151518 195.1021896 -671.41015625 199.3671875 C-672.41021235 202.75762161 -673.40655542 206.14910029 -674.39990234 209.54150391 C-674.90567928 211.26548693 -675.41544673 212.98829811 -675.92578125 214.7109375 C-678.62491111 223.95689298 -681.00326728 233.28149711 -683.40185547 242.60913086 C-684.85277964 248.23583815 -686.32185555 253.8455026 -687.96875 259.41796875 C-688.43346408 261.05465913 -688.89775799 262.69147394 -689.35742188 264.32958984 C-689.8341678 266.0069587 -690.32211792 267.68114437 -690.81445312 269.35400391 C-694.61912936 282.43794956 -697.62075349 294.97814862 -697.65625 308.66796875 C-697.66301758 309.72338867 -697.66978516 310.77880859 -697.67675781 311.86621094 C-697.48342788 320.08935406 -695.59058074 326.83389475 -690.03125 333.04296875 C-685.82250682 336.23086784 -681.64502429 336.38647263 -676.4921875 336.109375 C-657.32415206 332.68802943 -643.33542352 315.85652148 -632.77099609 300.77001953 C-630.01233487 296.7655113 -627.44610561 292.66407513 -624.96875 288.48046875 C-624.61103516 287.88024902 -624.25332031 287.2800293 -623.88476562 286.66162109 C-609.01233674 261.27569333 -600.61614168 231.75173775 -590.73292542 204.17738342 C-588.78435653 198.74126845 -586.82042392 193.31097741 -584.84410095 187.8848877 C-581.73215583 179.33697923 -578.7093203 170.76907262 -575.86328125 162.12890625 C-575.13425237 159.9704714 -574.36021821 157.85151591 -573.53125 155.73046875 C-571.74326146 151.07586814 -570.33951899 146.29732463 -568.87524414 141.53393555 C-567.6756324 137.65864658 -566.40265531 133.83962492 -564.96875 130.04296875 C-563.2840018 125.53458256 -561.91907241 120.97822662 -560.59375 116.35546875 C-552.87552692 89.77607894 -542.58154053 68.16564209 -517.96875 53.48046875 C-513.73029546 51.17568702 -509.468464 49.21730103 -504.96875 47.48046875 C-504.09089844 47.14144531 -503.21304687 46.80242188 -502.30859375 46.453125 C-492.624925 43.28365876 -479.22238551 42.44374272 -469.70703125 46.453125 C-466.42060882 48.39543758 -464.84270122 50.15571658 -462.96875 53.48046875 C-461.77232736 61.68196079 -464.09717396 69.86954815 -465.96875 77.79296875 C-466.28169141 79.14847335 -466.59443203 80.50402432 -466.90698242 81.85961914 C-469.94519766 94.89067156 -473.51821152 107.76265505 -477.17504883 120.63208008 C-478.17835241 124.23267771 -479.07492542 127.85123272 -479.96875 131.48046875 C-480.68827297 134.12949899 -481.4157741 136.77485564 -482.15625 139.41796875 C-482.36910645 140.18101318 -482.58196289 140.94405762 -482.80126953 141.73022461 C-483.52250026 144.31399398 -484.24550785 146.89726173 -484.96875 149.48046875 C-485.51432456 151.43098912 -486.05989741 153.38150997 -486.60546875 155.33203125 C-487.18485021 157.40235652 -487.76427835 159.47266872 -488.34375 161.54296875 C-488.63910645 162.59846924 -488.93446289 163.65396973 -489.23876953 164.74145508 C-490.7405475 170.10535262 -492.24668979 175.46795418 -493.76171875 180.828125 C-496.86297807 191.82117215 -499.91127704 202.81834665 -502.66430664 213.90478516 C-503.89022228 218.73225827 -505.27265855 223.48055373 -506.80892944 228.21893311 C-511.78059064 243.56976938 -515.95679657 259.15217442 -520.24395752 274.7043457 C-521.33942054 278.67591656 -522.43831855 282.64653628 -523.53710938 286.6171875 C-524.82052807 291.25555356 -526.10380388 295.89395824 -527.3855896 300.53277588 C-531.82563708 316.59867136 -536.2895195 332.65795906 -540.88671875 348.6796875 C-543.92367486 359.34740696 -546.88942104 370.03552796 -549.87304688 380.71826172 C-550.75865993 383.88912466 -551.64482013 387.05983406 -552.53125 390.23046875 C-552.82161133 391.26969482 -553.11197266 392.3089209 -553.41113281 393.37963867 C-555.01290956 399.10226026 -556.63807436 404.81737328 -558.28686523 410.52661133 C-560.63742135 418.66991217 -562.8609301 426.83334887 -564.96875 435.04296875 C-567.24942754 443.91334233 -569.77085094 452.6827653 -572.4453125 461.44140625 C-575.07839023 470.08409669 -577.50940309 478.787086 -579.96875 487.48046875 C-579.00662598 487.29218506 -578.04450195 487.10390137 -577.05322266 486.90991211 C-567.89384072 485.14125238 -558.72505071 483.64746479 -549.48861694 482.34588623 C-538.12587255 480.74113685 -526.81703486 478.99725091 -515.54052734 476.85961914 C-509.53511411 475.73195763 -503.52250639 474.80769012 -497.46875 473.98046875 C-489.283721 472.86171256 -481.17505232 471.47338065 -473.05419922 469.9609375 C-466.4813483 468.74111321 -459.8989133 467.6454717 -453.29248047 466.625 C-445.91953237 465.48385721 -438.56201736 464.2564298 -431.20556641 463.01367188 C-418.6896547 460.90912995 -406.1491802 458.95616541 -393.6015625 457.05078125 C-376.49871004 454.45367109 -359.42684216 451.75833264 -342.38671875 448.7734375 C-334.4171361 447.37796828 -326.44044591 446.02639953 -318.46078491 444.68994141 C-316.91490226 444.43068323 -315.36917914 444.1704715 -313.82363892 443.90917969 C-304.97112694 442.41302862 -296.1242472 441.07348222 -287.21972656 439.9206543 C-283.37154432 439.39960649 -279.59085407 438.7317733 -275.78125 437.98046875 C-274.44546029 437.7231898 -273.10952092 437.46668677 -271.7734375 437.2109375 C-270.51789062 436.96988281 -269.26234375 436.72882813 -267.96875 436.48046875 C-265.7830713 436.07469924 -263.5956954 435.67789618 -261.40625 435.29296875 C-260.07400391 435.05513672 -260.07400391 435.05513672 -258.71484375 434.8125 C-255.45003499 434.41775072 -252.25473523 434.45998106 -248.96875 434.48046875 C-248.85414932 433.62913864 -248.73954865 432.77780853 -248.62147522 431.90068054 C-247.45495629 423.4607091 -246.03285448 415.11342019 -244.40234375 406.75 C-244.04391136 404.89262459 -244.04391136 404.89262459 -243.67823792 402.99772644 C-243.05151159 399.75498868 -242.42166512 396.51287738 -241.79052734 393.27099609 C-241.27425998 390.61356396 -240.76207596 387.9553515 -240.24992275 385.29712391 C-239.63623239 382.11432881 -239.01921817 378.93217927 -238.40234375 375.75 C-238.05857948 373.9688958 -238.05857948 373.9688958 -237.70787048 372.15180969 C-237.49417313 371.05604111 -237.28047577 369.96027252 -237.06030273 368.83129883 C-236.87314194 367.86758865 -236.68598114 366.90387848 -236.4931488 365.91096497 C-235.96875 363.48046875 -235.96875 363.48046875 -234.96875 360.48046875 C-235.69856079 360.91746094 -235.69856079 360.91746094 -236.44311523 361.36328125 C-277.61520697 385.90159714 -277.61520697 385.90159714 -301.89453125 382.01171875 C-311.46061418 379.51233783 -319.37590425 373.57611297 -324.96875 365.48046875 C-328.8743684 358.4015354 -332.96875 349.69493722 -332.96875 341.48046875 C-333.62875 341.48046875 -334.28875 341.48046875 -334.96875 341.48046875 C-335.2265625 342.16109375 -335.484375 342.84171875 -335.75 343.54296875 C-340.51906369 355.03763507 -347.03625929 364.9614799 -354.96875 374.48046875 C-355.71125 375.38796875 -356.45375 376.29546875 -357.21875 377.23046875 C-368.76847151 390.76014251 -385.81666053 401.17235584 -403.79101562 402.72412109 C-424.75908383 403.9033272 -441.70499247 400.17452507 -458.15625 386.35546875 C-467.02103007 377.9610066 -472.95513521 367.95799876 -476.96875 356.48046875 C-477.38769531 355.33707031 -477.80664062 354.19367188 -478.23828125 353.015625 C-484.65300152 334.23657986 -486.63782974 314.80667072 -486.43530273 295.05322266 C-486.40624788 291.98024405 -486.41478952 288.90899673 -486.42773438 285.8359375 C-486.40487386 264.71659409 -483.63279284 244.05562323 -478.96875 223.48046875 C-478.63713867 221.98265869 -478.63713867 221.98265869 -478.29882812 220.45458984 C-471.82058389 191.57900122 -462.06511819 163.47745203 -449.96875 136.48046875 C-449.56978516 135.58231445 -449.17082031 134.68416016 -448.75976562 133.75878906 C-436.56380641 106.5290025 -420.51224959 81.99608338 -399.37109375 60.88671875 C-397.90399043 59.4172299 -396.4548646 57.92913421 -395.0390625 56.41015625 C-381.23781116 41.83293094 -362.18945071 29.1334525 -341.609375 28.23828125 C-320.71637008 27.73067028 -304.49058559 33.83814463 -287.96875 46.48046875 C-287.63875 46.81046875 -287.30875 47.14046875 -286.96875 47.48046875 C-284.78832971 43.40136787 -283.36641998 39.57705085 -282.21875 35.10546875 C-279.92266551 27.45767401 -276.57463985 22.83533559 -269.90625 18.48046875 C-258.40796673 14.57105244 -243.45946917 18.04796737 -232.6953125 22.98046875 C-227.18613173 26.01130745 -223.24325697 29.3034428 -220.65625 35.0703125 C-217.36498938 46.60842501 -220.60890949 61.00396021 -223.8046875 72.31640625 C-225.98510402 80.2474035 -227.692712 88.25194251 -229.34597778 96.30685425 C-230.20681704 100.49821416 -231.08272178 104.68643303 -231.95703125 108.875 C-232.13002243 109.70524185 -232.30301361 110.5354837 -232.48124695 111.3908844 C-233.94683451 118.41137334 -235.46832355 125.41847663 -237.03125 132.41796875 C-237.39222778 134.03614502 -237.39222778 134.03614502 -237.76049805 135.68701172 C-238.99185134 141.18352301 -240.24198814 146.67539105 -241.5078125 152.1640625 C-245.18764718 168.17532872 -248.66167584 184.22718632 -252.03530884 200.3057251 C-252.52659193 202.64361596 -253.02032506 204.98099352 -253.51669312 207.31781006 C-256.2788939 220.3416365 -258.74007191 233.21900234 -259.96875 246.48046875 C-260.07840088 247.53685547 -260.18805176 248.59324219 -260.30102539 249.68164062 C-263.60365028 272.0826892 -263.60365028 272.0826892 -258.96875 293.48046875 C-257.00510978 295.86823003 -257.00510978 295.86823003 -253.3125 295.83203125 C-248.67523052 295.70856604 -245.42406259 294.15278542 -241.46875 291.85546875 C-240.49264771 291.30959106 -240.49264771 291.30959106 -239.49682617 290.75268555 C-227.87802184 284.13970869 -221.25114855 277.41859325 -216.96875 264.48046875 C-215.45126398 258.57087712 -214.45291 252.54969932 -213.40625 246.54296875 C-213.12692201 244.99260901 -212.84632702 243.44247701 -212.56445312 241.89257812 C-211.99029966 238.72936002 -211.42246547 235.56509052 -210.85791016 232.40014648 C-209.78865749 226.44214795 -208.64983368 220.49783914 -207.51115417 214.55279541 C-206.30963419 208.27762305 -205.12606082 201.99932484 -203.953125 195.71875 C-198.06199213 164.22856456 -191.96956792 132.77931848 -185.81054688 101.34057617 C-185.6397014 100.46846969 -185.46885593 99.5963632 -185.29283333 98.69782925 C-183.91913553 91.68592969 -183.91913553 91.68592969 -183.25799179 88.31287193 C-181.17557432 77.68697866 -179.11357441 67.05762863 -177.08203125 56.421875 C-176.4771679 53.27049576 -175.87175683 50.11922231 -175.2661438 46.96798706 C-174.90830821 45.09673653 -174.55326991 43.22494834 -174.2013855 41.35256958 C-168.80829977 12.6574402 -168.80829977 12.6574402 -160.74609375 6.890625 C-152.23502241 2.56925123 -140.89256057 5.65242902 -132.03125 7.73046875 C-130.71833984 8.03694336 -130.71833984 8.03694336 -129.37890625 8.34960938 C-123.276264 9.88922415 -116.69911614 11.56555447 -112.27832031 16.28515625 C-110.70659441 18.91993615 -110.5457957 20.63009657 -110.45703125 23.68359375 C-110.42158203 24.66328125 -110.38613281 25.64296875 -110.34960938 26.65234375 C-110.31577148 28.17601562 -110.31577148 28.17601562 -110.28125 29.73046875 C-110.23000977 31.27734375 -110.23000977 31.27734375 -110.17773438 32.85546875 C-110.09536907 35.39702687 -110.02618166 37.93824501 -109.96875 40.48046875 C-108.03019668 38.25221112 -106.09289657 36.0228828 -104.15625 33.79296875 C-103.56674561 33.11540527 -102.97724121 32.4378418 -102.36987305 31.73974609 C-99.54838236 28.48905488 -96.74383333 25.2293636 -94.0078125 21.90625 C-71.86870665 -4.96463927 -32.31781586 -21.81452571 0 0 Z " fill="#FCFAFC" transform="translate(1302.96875,874.51953125)"/>
<path d="M0 0 C20.56617221 -0.94737691 41.66294552 2.44041225 61.640625 7.12548828 C62.7745166 7.38426758 63.9084082 7.64304688 65.07666016 7.90966797 C89.84095501 13.632713 113.21733406 22.00683329 135.640625 34.12548828 C137.36152344 35.04007812 137.36152344 35.04007812 139.1171875 35.97314453 C153.16810485 43.69639143 166.05524244 53.14139421 178.06616211 63.73950195 C179.20972158 64.74616766 180.35986594 65.74536843 181.51391602 66.73999023 C193.84851686 77.40220442 205.04277862 88.93972681 214.640625 102.12548828 C215.13014648 102.79193359 215.61966797 103.45837891 216.12402344 104.14501953 C230.25293255 123.4613975 243.62390154 144.65640095 251.63671875 167.30517578 C252.68357045 170.24613658 253.89317374 173.07686154 255.140625 175.93798828 C260.54709156 188.86944279 264.06442471 202.37404722 266.640625 216.12548828 C266.82544434 217.09905273 267.01026367 218.07261719 267.20068359 219.07568359 C272.00575045 245.33470262 273.03499392 273.70520536 268.640625 300.12548828 C268.46821289 301.16560059 268.29580078 302.20571289 268.11816406 303.27734375 C263.55366631 329.66373838 255.58900927 355.12741932 243.640625 379.12548828 C243.24375488 379.93018555 242.84688477 380.73488281 242.43798828 381.56396484 C224.57711924 417.4840783 197.55111642 448.96969213 165.640625 473.12548828 C164.96644531 473.64014648 164.29226563 474.15480469 163.59765625 474.68505859 C145.02861603 488.7834565 124.8915814 499.61673161 103.640625 509.12548828 C102.87218262 509.46950684 102.10374023 509.81352539 101.31201172 510.16796875 C83.24649107 518.08760103 63.75789512 522.31779933 44.453125 526.00048828 C43.40455322 526.20367676 42.35598145 526.40686523 41.27563477 526.61621094 C26.76713901 529.24254314 12.03120589 529.36281401 -2.671875 529.37548828 C-3.90570419 529.3769989 -3.90570419 529.3769989 -5.16445923 529.37854004 C-32.96531127 529.35572027 -60.26168291 526.02461287 -86.359375 516.12548828 C-95.16148637 513.5140735 -102.62545284 514.738644 -110.60302734 518.92504883 C-119.20137257 523.82200359 -127.27027903 529.65712465 -135.421875 535.25048828 C-146.07243828 542.53403921 -156.71900392 549.81428862 -167.60546875 556.74267578 C-168.34322037 557.21577179 -169.08097198 557.6888678 -169.84107971 558.17630005 C-188.26775238 569.78613504 -188.26775238 569.78613504 -198.359375 568.12548828 C-201.82856583 564.91648676 -203.25152833 562.02440676 -203.52050781 557.28833008 C-203.56688418 553.46308845 -203.60609378 549.63849699 -203.609375 545.81298828 C-203.61004974 545.11066071 -203.61072449 544.40833313 -203.61141968 543.6847229 C-203.59422118 532.38241618 -202.7543789 521.4722616 -200.890625 510.32080078 C-199.87928901 504.23791224 -198.94079131 498.14408264 -198.01596069 492.04751587 C-197.68414591 489.89267684 -197.33579774 487.74102598 -196.9855957 485.58911133 C-195.85017451 478.37549493 -195.1393755 471.28940404 -195.08984375 463.98095703 C-195.08181229 463.28806076 -195.07378082 462.59516449 -195.06550598 461.88127136 C-195.1859203 447.91842698 -204.58211502 437.54118216 -213.171875 427.43798828 C-250.39305376 383.20577585 -268.83801453 325.64554315 -268.734375 268.37548828 C-268.73449585 267.3462323 -268.7346167 266.31697632 -268.73474121 265.25653076 C-268.7063409 248.21799629 -267.63452965 231.88154499 -264.359375 215.12548828 C-264.21516113 214.33335937 -264.07094727 213.54123047 -263.92236328 212.72509766 C-253.03719837 153.87923643 -215.85133627 96.17620434 -168.359375 60.12548828 C-167.38484375 59.34560547 -166.4103125 58.56572266 -165.40625 57.76220703 C-117.98945734 19.9842378 -59.84087578 3.18276181 0 0 Z " fill="#00DFC4" transform="translate(1057.359375,230.87451171875)"/>
<path d="M0 0 C2.05602463 0.015987 4.1100528 0.00012112 6.16601562 -0.01904297 C23.17078269 -0.04661325 40.06152988 3.05448429 53.32226562 14.39111328 C54.1240625 15.01501953 54.92585938 15.63892578 55.75195312 16.28173828 C66.75173119 25.30891177 73.58952443 38.23886557 75.32226562 52.39111328 C78.36587537 91.92870394 61.62944825 133.75686699 36.44726562 163.96533203 C32.159146 168.86040977 27.78652689 173.65706932 23.32226562 178.39111328 C22.58105469 179.18646484 21.83984375 179.98181641 21.07617188 180.80126953 C-1.1603581 203.9354209 -41.29681409 226.25150664 -73.80273438 227.82861328 C-77.42292492 228.08068581 -78.50935873 228.27647454 -81.61523438 230.39111328 C-92.07548638 245.60602529 -93.9588961 266.66104634 -91.36425781 284.55273438 C-89.62238705 293.27768039 -85.56006131 299.79285905 -79.11523438 305.76611328 C-71.59804893 310.77757025 -62.29881026 310.58906241 -53.62939453 309.02050781 C-29.17862068 303.26844082 -10.21150022 287.5632626 7.32226562 270.39111328 C7.9497168 269.77880859 8.57716797 269.16650391 9.22363281 268.53564453 C17.47413724 260.48945417 17.47413724 260.48945417 25.13476562 251.89111328 C29.45929664 246.83674958 34.34126113 243.0709915 40.88476562 241.57861328 C46.70117346 242.95340059 50.23498873 246.02324577 53.39111328 251.11572266 C55.98919054 255.74343721 58.18573515 260.53704432 60.32226562 265.39111328 C60.78117187 266.39013672 61.24007813 267.38916016 61.71289062 268.41845703 C65.42600329 277.32208282 65.91345883 287.14851286 62.36132812 296.21142578 C57.50070486 306.40777083 50.98906018 314.29131693 42.41210938 321.55126953 C40.16595207 323.52872765 38.09566215 325.62072594 36.00976562 327.76611328 C31.91200337 331.92029912 27.54219369 335.57956607 22.98632812 339.21923828 C20.63169511 341.13885112 18.41573589 343.13075689 16.19726562 345.20361328 C-11.25031663 369.69306388 -49.92747756 388.81929731 -87.17773438 388.70361328 C-88.73427734 388.7277832 -88.73427734 388.7277832 -90.32226562 388.75244141 C-107.73163167 388.76328161 -123.76008201 382.07069074 -136.23535156 369.89990234 C-145.31010235 360.40735667 -151.05058301 349.56332073 -155.67773438 337.39111328 C-156.27521484 335.93705078 -156.27521484 335.93705078 -156.88476562 334.45361328 C-160.52433269 324.8571518 -161.54930641 314.53589293 -162.67773438 304.39111328 C-162.82456665 303.10587769 -162.82456665 303.10587769 -162.97436523 301.79467773 C-168.92278451 241.82760702 -155.84703407 182.78588259 -130.67773438 128.39111328 C-130.20094238 127.35374023 -129.72415039 126.31636719 -129.23291016 125.24755859 C-114.84917079 94.15132796 -97.52876264 65.19301311 -73.67773438 40.39111328 C-73.15920898 39.85067383 -72.64068359 39.31023438 -72.10644531 38.75341797 C-65.0361798 31.42806169 -57.79352465 24.56880439 -49.67773438 18.39111328 C-49.12972168 17.97200684 -48.58170898 17.55290039 -48.01708984 17.12109375 C-33.11047366 5.80903977 -18.9806958 -0.17475145 0 0 Z " fill="#FCFAFC" transform="translate(1502.677734375,831.60888671875)"/>
<path d="M0 0 C1.05018311 0.37801758 1.05018311 0.37801758 2.12158203 0.76367188 C18.40588873 6.72160642 33.82725223 14.7957235 41.9375 30.9375 C46.21097364 40.33107884 48.25567085 48.39698948 48.5 58.6875 C48.53085693 59.48373779 48.56171387 60.27997559 48.59350586 61.1003418 C48.59413834 67.18547572 46.88671549 71.31024979 43 76 C38.45882892 79.98646665 33.69996773 80.80833782 27.72265625 80.578125 C22.96461544 79.5678093 19.86949517 76.83727303 17 73 C14.2960413 67.72760321 13.41500266 62.95793549 12.6875 57.125 C11.21942131 47.32093426 8.46250575 41.38600277 0.4375 35.25 C-5.32803866 31.49630338 -11.51038395 29.19463898 -18 27 C-19.155 26.566875 -20.31 26.13375 -21.5 25.6875 C-34.30010373 23.17319391 -46.88801221 25.86023154 -58.0625 32.515625 C-63.49153487 36.67496623 -67.37945037 42.74760199 -68.37109375 49.54296875 C-68.57917674 57.82956794 -66.58643146 63.69628225 -61.26171875 70.0859375 C-49.47308149 81.66855974 -32.48143672 86.92489816 -17.42675781 92.85220337 C17.33319237 106.54222958 17.33319237 106.54222958 32 118 C32.76441406 118.58265625 33.52882813 119.1653125 34.31640625 119.765625 C44.27053745 127.84981505 50.70940841 139.43632891 53 152 C54.62013381 169.46124495 52.05624246 184.69229838 40.89453125 198.62890625 C25.69235986 216.1859751 3.51922092 222.43201867 -19 225 C-42.04463421 226.33694782 -66.10454806 219.5831832 -84 205 C-97.86533483 192.06678852 -107.29694778 173.45079871 -108.16796875 154.30859375 C-108.17441406 153.03113281 -108.18085937 151.75367188 -108.1875 150.4375 C-108.20167969 149.15746094 -108.21585938 147.87742187 -108.23046875 146.55859375 C-107.95091811 142.24214236 -107.33068596 139.41856145 -104.34375 136.234375 C-103.7353125 135.74453125 -103.126875 135.2546875 -102.5 134.75 C-101.8915625 134.24984375 -101.283125 133.7496875 -100.65625 133.234375 C-96.4702227 130.11459994 -92.0351154 130.58105357 -87 131 C-82.07134985 132.67388118 -78.52339863 135.42520536 -76 140 C-74.70062685 143.93455047 -73.86974025 147.95200683 -73 152 C-69.59916311 166.88639057 -64.95937546 178.14079422 -51.67358398 186.55957031 C-42.95146018 191.25873299 -32.94318691 191.54934616 -23.25 191.5 C-22.02732422 191.49790527 -20.80464844 191.49581055 -19.54492188 191.49365234 C-9.91890241 191.32658709 -1.81688214 189.91071385 7 186 C8.12921875 185.54753906 8.12921875 185.54753906 9.28125 185.0859375 C11.49623911 183.68646711 12.03242222 182.4100676 13 180 C13.28101563 179.37222656 13.56203125 178.74445313 13.8515625 178.09765625 C16.992793 169.83209518 17.41880065 160.9922679 14.375 152.625 C5.09266407 132.81630373 -20.64727763 125.22374793 -39.35986328 117.30688477 C-46.76129842 114.15477812 -53.96361269 110.70402159 -61.09716797 106.98828125 C-63.05975676 105.9689639 -65.0313723 104.96866524 -67.00390625 103.96875 C-81.88003115 96.34677187 -93.74802056 87.07290261 -100 71 C-103.56064022 59.90795325 -103.0331659 47.14736768 -100 36 C-99.82855469 35.26652344 -99.65710938 34.53304687 -99.48046875 33.77734375 C-96.13129755 21.52585943 -86.83372198 12.77031843 -76.29296875 6.3515625 C-53.92963109 -5.70200116 -23.91688964 -8.75322118 0 0 Z " fill="#8E189F" transform="translate(1025,403)"/>
<path d="M0 0 C11.44068752 10.60356404 14.07624979 25.76941812 14.8515625 40.89453125 C15.14088626 51.10200159 14.25165225 61.22440822 13.25 71.375 C13.07380127 73.18145996 13.07380127 73.18145996 12.89404297 75.02441406 C12.16677309 81.7546791 11.01687968 88.15912068 9.26977539 94.69873047 C8.66876651 96.97289662 8.15643048 99.22682254 7.7109375 101.53515625 C5.13747353 114.51945175 0.90831861 126.85541711 -3.40380859 139.35302734 C-4.50446637 142.5707746 -5.55616225 145.80155443 -6.59521484 149.03955078 C-8.40313171 154.64215549 -10.46328108 159.99343226 -13 165.3046875 C-14.13690278 167.73296354 -15.20749921 170.16390245 -16.25 172.6328125 C-20.17730335 181.87455914 -24.36276864 190.30609687 -30.4375 198.375 C-31.14777344 199.31859375 -31.85804687 200.2621875 -32.58984375 201.234375 C-40.44736835 211.23235006 -48.37311297 218.93116513 -60.4375 223.375 C-61.31664062 223.73722656 -62.19578125 224.09945313 -63.1015625 224.47265625 C-73.17250977 227.19676494 -86.16689961 227.22059234 -95.625 222.625 C-99.00652492 220.66440868 -101.57113231 218.8524017 -103.4375 215.375 C-103.78102494 209.70253872 -102.85614459 204.60203066 -101.671875 199.09765625 C-101.48245331 198.19404861 -101.29303162 197.29044098 -101.09786987 196.35945129 C-100.4699539 193.38350199 -99.82974974 190.41038677 -99.1875 187.4375 C-98.96874207 186.41521301 -98.74998413 185.39292603 -98.52459717 184.33966064 C-94.99959387 167.90270438 -91.14501479 151.55695359 -87.0625 135.25 C-86.81028687 134.24011017 -86.55807373 133.23022034 -86.29821777 132.18972778 C-83.61728708 121.49213216 -80.83686067 110.87076613 -77.4375 100.375 C-77.01814109 99.0500384 -76.59957137 97.72482684 -76.18164062 96.39941406 C-70.08344315 77.13287279 -63.62251009 58.42817293 -54.4375 40.375 C-54.05529297 39.6030127 -53.67308594 38.83102539 -53.27929688 38.03564453 C-48.09887738 27.65424832 -41.76072999 19.43768168 -33.4375 11.375 C-32.62925781 10.5809375 -31.82101562 9.786875 -30.98828125 8.96875 C-22.1648932 0.71510952 -12.15998061 -5.74835447 0 0 Z " fill="#8B149B" transform="translate(1252.4375,942.625)"/>
<path d="M0 0 C4.32705711 3.12115595 6.87578079 6.81484237 8.5625 11.875 C9.25024804 20.70610916 7.87591999 28.91344695 5.9375 37.5 C5.66752197 38.7276709 5.39754395 39.9553418 5.11938477 41.22021484 C3.2216287 49.59807329 0.87139534 57.66678286 -2.01171875 65.75 C-3.50074026 69.94588182 -4.67096303 74.19871541 -5.8125 78.5 C-8.33802723 87.92772602 -11.46846589 97.13482565 -14.58984375 106.37890625 C-17.10632417 113.83305478 -19.43111385 121.33585449 -21.5859375 128.90234375 C-39.11540828 189.79522779 -39.11540828 189.79522779 -57.4375 208.875 C-58.31148437 209.79152344 -58.31148437 209.79152344 -59.203125 210.7265625 C-64.41250499 215.66817062 -71.22967251 218.8987331 -78.4375 219.4375 C-84.76352065 219.01661556 -90.14926878 216.05940223 -94.67578125 211.73828125 C-107.25005968 197.03276919 -110.21953709 177.27210729 -110 158.5625 C-109.99607239 157.78696777 -109.99214478 157.01143555 -109.98809814 156.21240234 C-109.88320659 141.39580694 -108.07142455 127.26438175 -104.4375 112.875 C-104.09259521 111.50819092 -104.09259521 111.50819092 -103.74072266 110.11376953 C-98.88942134 91.54286451 -91.47535451 73.77979486 -82.4375 56.875 C-82.11813477 56.26962402 -81.79876953 55.66424805 -81.46972656 55.04052734 C-67.57836094 28.90078504 -46.08514114 7.13821349 -17.30859375 -1.78515625 C-11.29230882 -2.87788441 -5.39582901 -3.15853405 0 0 Z " fill="#871298" transform="translate(996.4375,970.125)"/>
<path d="M0 0 C-0.44730469 1.12535156 -0.89460937 2.25070312 -1.35546875 3.41015625 C-4.31412856 10.90657741 -7.20932059 18.3918502 -9.6875 26.0625 C-11.220199 30.77079104 -12.87148017 35.28738635 -14.9831543 39.7644043 C-15.99403546 41.9868866 -16.89339797 44.22821604 -17.77734375 46.50390625 C-39.75129844 101.74995996 -74.87100642 172.67394247 -128 204 C-128.804375 204.47953125 -129.60875 204.9590625 -130.4375 205.453125 C-136.65362842 208.69830969 -143.1163279 208.8990548 -150 208 C-155.14815635 205.56139962 -158.45222255 201.96193382 -161.0859375 196.921875 C-164.9405853 184.60018034 -161.92467035 169.95088042 -158 158 C-157.59910156 156.74316406 -157.19820313 155.48632812 -156.78515625 154.19140625 C-150.52444152 135.68574572 -140.24195052 118.85726201 -129 103 C-128.51998535 102.32179199 -128.0399707 101.64358398 -127.54541016 100.94482422 C-112.00087617 79.11463823 -94.09777641 58.62334866 -73 42 C-71.89235561 41.08204599 -70.78700262 40.16132216 -69.68359375 39.23828125 C-15.97996784 -5.32665595 -15.97996784 -5.32665595 0 0 Z " fill="#79098C" transform="translate(602,1485)"/>
<path d="M0 0 C4.85901474 2.29698879 7.66907123 5.15884024 10 10 C11.67182823 16.53759694 9.4842204 21.61703863 6.46484375 27.37890625 C5.92835457 28.42581886 5.92835457 28.42581886 5.38102722 29.49388123 C4.26335856 31.6675746 3.13317784 33.83435754 2 36 C1.65773376 36.6585498 1.31546753 37.31709961 0.96282959 37.99560547 C-1.39501697 42.5316122 -3.785051 47.04998651 -6.1875 51.5625 C-6.55438934 52.25309509 -6.92127869 52.94369019 -7.29928589 53.6552124 C-12.42745558 63.30109817 -17.68749449 72.8572904 -23.1159668 82.33813477 C-27.56659198 90.14483343 -31.79575645 98.05907939 -36 106 C-40.7146598 114.90461571 -45.4964441 123.75294477 -50.5 132.5 C-55.56277523 141.35213054 -60.40888195 150.30509906 -65.1875 159.3125 C-70.56891642 169.453141 -76.00427502 179.55426245 -81.63525391 189.55908203 C-83.28498565 192.50971136 -84.91355845 195.47169558 -86.54296875 198.43359375 C-87.79936331 200.70579323 -89.05587329 202.9779289 -90.3125 205.25 C-90.8998291 206.32290283 -91.4871582 207.39580566 -92.09228516 208.5012207 C-100.26193581 223.21429689 -100.26193581 223.21429689 -108 226 C-113.44845861 226.5943773 -117.20205854 225.62528873 -122 223 C-126.5825955 218.0458427 -128.53960887 214.47571194 -128.38818359 207.78271484 C-127.68529697 202.74403451 -125.28754494 198.69407075 -122.8125 194.3125 C-122.00643311 192.8279834 -122.00643311 192.8279834 -121.18408203 191.31347656 C-119.48073998 188.19454247 -117.74574642 185.09537454 -116 182 C-115.4445752 181.01112793 -114.88915039 180.02225586 -114.31689453 179.00341797 C-112.12760067 175.11198523 -109.93135041 171.22474035 -107.71801758 167.34692383 C-104.35918993 161.45578633 -101.12214112 155.51963571 -98 149.5 C-94.48276945 142.72184092 -90.79361667 136.06467085 -87 129.4375 C-80.57951615 118.20554211 -74.53323222 106.78701456 -68.53125 95.32788086 C-64.5375866 87.71495477 -60.44964908 80.17011785 -56.21281433 72.68955994 C-52.91979365 66.87521535 -49.72699658 61.01027789 -46.5625 55.125 C-41.50018996 45.74684108 -36.3796704 36.4050183 -31.171875 27.10693359 C-29.96603298 24.93893013 -28.77850739 22.76161943 -27.59375 20.58203125 C-15.36669172 -1.78423126 -15.36669172 -1.78423126 0 0 Z " fill="#9019A1" transform="translate(1219,398)"/>
<path d="M0 0 C5.15271864 4.67339598 6.83701361 7.94274506 7.21118164 14.88256836 C7.58939118 34.90388707 -2.91061369 52.3142657 -16.3125 66.4375 C-29.45184458 79.91375085 -47.21356137 89.66084982 -64.98046875 95.6484375 C-67.39008628 96.431572 -67.39008628 96.431572 -69.96875 97.5625 C-72.59928056 98.54456474 -73.72341473 98.39642047 -76.3125 97.4375 C-75.81979142 90.05582958 -73.44860205 83.7869179 -70.75 76.9375 C-70.30108398 75.78564209 -69.85216797 74.63378418 -69.38964844 73.44702148 C-65.84478258 64.48876107 -61.87177864 55.91615852 -57.3125 47.4375 C-56.8484375 46.509375 -56.384375 45.58125 -55.90625 44.625 C-47.31772376 27.84741386 -23.75092595 -11.20326696 0 0 Z " fill="#9119A0" transform="translate(1509.3125,898.5625)"/>
</svg>
